Preview_RobotoExtremo-wght_100.00_wdth_77.00_opsz_36.00_GRAD_0.00_XTRA_468.00_XOPQ_96.00_YOPQ_79.00.ufo
<glyph name="exclam" format="2">
  <advance width="446"/>
  <unicode hex="0021"/>
  <outline>
    <contour>
      <point x="182.3864615384615" y="42.59507692307691" type="qcurve" smooth="yes"/>
      <point x="182.3864615384615" y="68.45230769230768"/>
      <point x="204.40000000000003" y="104.21169230769232"/>
      <point x="223.89415384615384" y="104.21169230769232" type="qcurve" smooth="yes"/>
      <point x="243.76615384615383" y="104.21169230769232"/>
      <point x="264.4153846153846" y="68.45230769230768"/>
      <point x="264.4153846153846" y="42.59507692307691" type="qcurve" smooth="yes"/>
      <point x="264.4153846153846" y="16.880000000000003"/>
      <point x="243.75261538461535" y="-18.879384615384613"/>
      <point x="223.7249230769231" y="-18.879384615384613" type="qcurve" smooth="yes"/>
      <point x="204.37292307692306" y="-18.879384615384613"/>
      <point x="182.3864615384615" y="16.880000000000003"/>
    </contour>
    <contour>
      <point x="208.1230769230769" y="377.19446153846155" type="line"/>
      <point x="205.0843076923077" y="1456.0" type="line"/>
      <point x="241.93969230769227" y="1456.0" type="line"/>
      <point x="238.59015384615387" y="377.19446153846155" type="line"/>
    </contour>
  </outline>
</glyph>
<glyph name="quotedbl" format="2">
  <advance width="531"/>
  <unicode hex="0022"/>
  <outline>
    <contour>
      <point x="124.57661538461537" y="1135.0006153846152" type="line"/>
      <point x="120.46523076923077" y="1375.0929230769232" type="line"/>
      <point x="120.46523076923077" y="1456.0" type="line"/>
      <point x="175.13230769230768" y="1456.0" type="line"/>
      <point x="175.13230769230768" y="1375.0929230769232" type="line"/>
      <point x="170.2566153846154" y="1135.0006153846152" type="line"/>
    </contour>
    <contour>
      <point x="360.97476923076914" y="1135.0006153846152" type="line"/>
      <point x="356.86338461538463" y="1375.0929230769232" type="line"/>
      <point x="356.86338461538463" y="1456.0" type="line"/>
      <point x="411.28615384615387" y="1456.0" type="line"/>
      <point x="411.28615384615387" y="1375.0929230769232" type="line"/>
      <point x="406.41046153846156" y="1135.0006153846152" type="line"/>
    </contour>
  </outline>
</glyph>
<glyph name="numbersign" format="2">
  <advance width="1190"/>
  <unicode hex="0023"/>
  <outline>
    <contour>
      <point x="222.36615384615382" y="-20.0" type="line"/>
      <point x="613.0412307692309" y="1458.9723076923076" type="line"/>
      <point x="653.1956923076924" y="1458.9723076923076" type="line"/>
      <point x="263.28492307692306" y="-20.0" type="line"/>
    </contour>
    <contour>
      <point x="558.8670769230771" y="-20.0" type="line"/>
      <point x="949.0799999999997" y="1458.9723076923076" type="line"/>
      <point x="989.8295384615386" y="1458.9723076923076" type="line"/>
      <point x="599.955076923077" y="-20.0" type="line"/>
    </contour>
    <contour>
      <point x="81.28984615384614" y="489.01969230769225" type="line"/>
      <point x="81.28984615384614" y="533.438153846154" type="line"/>
      <point x="1047.9864615384615" y="533.438153846154" type="line"/>
      <point x="1047.9864615384615" y="489.01969230769225" type="line"/>
    </contour>
    <contour>
      <point x="163.51076923076926" y="909.088" type="line"/>
      <point x="163.51076923076926" y="953.5064615384616" type="line"/>
      <point x="1129.9716923076921" y="953.5064615384616" type="line"/>
      <point x="1129.9716923076921" y="909.088" type="line"/>
    </contour>
  </outline>
</glyph>
<glyph name="dollar" format="2">
  <advance width="759"/>
  <unicode hex="0024"/>
  <outline>
    <contour>
      <point x="61.55199999999999" y="380.8769230769231" type="qcurve" smooth="yes"/>
      <point x="61.55199999999999" y="428.53046153846157" type="line"/>
      <point x="98.62399999999998" y="428.53046153846157" type="line"/>
      <point x="98.62399999999998" y="382.12246153846155" type="line" smooth="yes"/>
      <point x="98.62399999999998" y="208.14461538461538"/>
      <point x="269.5741538461538" y="36.116307692307686"/>
      <point x="421.41476923076925" y="36.116307692307686" type="qcurve" smooth="yes"/>
      <point x="570.820923076923" y="36.116307692307686"/>
      <point x="735.4067692307692" y="202.92123076923076"/>
      <point x="735.4067692307692" y="355.35938461538467" type="qcurve" smooth="yes"/>
      <point x="735.4067692307692" y="488.59015384615384"/>
      <point x="623.0067692307695" y="654.6049230769231"/>
      <point x="432.99815384615385" y="728.8147692307692" type="qcurve" smooth="yes"/>
      <point x="243.65353846153846" y="803.4726153846153"/>
      <point x="86.99876923076923" y="973.0258461538461"/>
      <point x="86.99876923076923" y="1124.5439999999999" type="qcurve" smooth="yes"/>
      <point x="86.99876923076923" y="1276.6744615384616"/>
      <point x="255.25538461538463" y="1456.0"/>
      <point x="412.1760000000001" y="1456.0" type="qcurve" smooth="yes"/>
      <point x="565.3046153846152" y="1456.0"/>
      <point x="746.313846153846" y="1246.6307692307696"/>
      <point x="746.313846153846" y="1079.099076923077" type="qcurve" smooth="yes"/>
      <point x="746.313846153846" y="1036.272" type="line"/>
      <point x="708.4110769230771" y="1036.272" type="line"/>
      <point x="708.4110769230771" y="1078.7876923076924" type="line" smooth="yes"/>
      <point x="708.4110769230771" y="1234.324307692308"/>
      <point x="558.9261538461537" y="1419.8836923076924"/>
      <point x="412.9403076923078" y="1419.8836923076924" type="qcurve" smooth="yes"/>
      <point x="265.22523076923073" y="1419.8836923076924"/>
      <point x="125.35507692307692" y="1266.265846153846"/>
      <point x="125.35507692307692" y="1124.584615384615" type="qcurve" smooth="yes"/>
      <point x="125.35507692307692" y="997.1138461538461"/>
      <point x="258.3064615384615" y="840.2652307692307"/>
      <point x="450.93599999999986" y="764.9889230769231" type="qcurve" smooth="yes"/>
      <point x="637.848" y="691.0720000000002"/>
      <point x="772.9987692307691" y="510.4073846153847"/>
      <point x="772.9987692307691" y="355.40000000000003" type="qcurve" smooth="yes"/>
      <point x="772.9987692307691" y="184.28000000000003"/>
      <point x="584.2024615384613" y="0.0"/>
      <point x="421.41476923076925" y="0.0" type="qcurve" smooth="yes"/>
      <point x="259.2326153846154" y="0.0"/>
      <point x="61.55199999999999" y="197.2036923076923"/>
    </contour>
    <contour>
      <point x="398.3372307692307" y="-150.0" type="line"/>
      <point x="398.3372307692307" y="31.352" type="line"/>
      <point x="435.4978461538462" y="31.352" type="line"/>
      <point x="435.4978461538462" y="16.215384615384618" type="line"/>
      <point x="434.5593846153847" y="7.569230769230769" type="line"/>
      <point x="434.5593846153847" y="-150.0" type="line"/>
    </contour>
    <contour>
      <point x="398.22953846153837" y="1424.6480000000004" type="line"/>
      <point x="398.22953846153837" y="1439.7846153846153" type="line"/>
      <point x="398.33723076923076" y="1448.4307692307689" type="line"/>
      <point x="398.33723076923076" y="1606.0" type="line"/>
      <point x="434.5593846153846" y="1606.0" type="line"/>
      <point x="434.5593846153846" y="1424.6480000000004" type="line"/>
    </contour>
  </outline>
</glyph>
<glyph name="ampersand" format="2">
  <advance width="850"/>
  <unicode hex="0026"/>
  <outline>
    <contour>
      <point x="68.96615384615384" y="375.22092307692304" type="qcurve" smooth="yes"/>
      <point x="68.96615384615384" y="517.1224615384614"/>
      <point x="177.06707692307694" y="699.5169230769229"/>
      <point x="305.36984615384614" y="806.9206153846154" type="qcurve" smooth="yes"/>
      <point x="402.25600000000003" y="896.808" type="line" smooth="yes"/>
      <point x="462.0203076923076" y="949.0184615384616"/>
      <point x="529.9852307692306" y="1085.7113846153845"/>
      <point x="529.9852307692306" y="1179.886153846154" type="qcurve" smooth="yes"/>
      <point x="529.9852307692306" y="1305.4756923076925"/>
      <point x="453.48123076923076" y="1445.1606153846158"/>
      <point x="379.43999999999994" y="1445.1606153846158" type="qcurve" smooth="yes"/>
      <point x="305.0910769230769" y="1445.1606153846158"/>
      <point x="218.5846153846154" y="1296.849846153846"/>
      <point x="218.5846153846154" y="1161.9292307692306" type="qcurve" smooth="yes"/>
      <point x="218.5846153846154" y="1075.7101538461538"/>
      <point x="262.8073846153845" y="927.8843076923079"/>
      <point x="341.45846153846145" y="798.0086153846154" type="qcurve" smooth="yes"/>
      <point x="829.6633846153845" y="0.0" type="line"/>
      <point x="783.0455384615384" y="0.0" type="line"/>
      <point x="309.0553846153847" y="781.0012307692305" type="line" smooth="yes"/>
      <point x="222.16923076923072" y="924.4295384615384"/>
      <point x="180.26153846153846" y="1066.6030769230763"/>
      <point x="180.26153846153846" y="1161.9292307692306" type="qcurve" smooth="yes"/>
      <point x="180.26153846153846" y="1320.105846153846"/>
      <point x="290.15261538461544" y="1481.6406153846153"/>
      <point x="379.44" y="1481.6406153846153" type="qcurve" smooth="yes"/>
      <point x="467.66338461538464" y="1481.6406153846153"/>
      <point x="572.2904615384617" y="1330.4092307692301"/>
      <point x="572.2904615384617" y="1179.7267692307692" type="qcurve" smooth="yes"/>
      <point x="572.2904615384617" y="1081.8781538461535"/>
      <point x="491.49169230769235" y="925.5329230769232"/>
      <point x="428.24369230769224" y="866.726153846154" type="qcurve" smooth="yes"/>
      <point x="325.1421538461538" y="773.732923076923" type="line" smooth="yes"/>
      <point x="205.19138461538464" y="672.1803076923075"/>
      <point x="107.22276923076923" y="495.8830769230769"/>
      <point x="107.22276923076923" y="375.248" type="qcurve" smooth="yes"/>
      <point x="107.22276923076923" y="210.8584615384615"/>
      <point x="243.66338461538462" y="19.28246153846154"/>
      <point x="359.609846153846" y="19.28246153846154" type="qcurve" smooth="yes"/>
      <point x="517.8609230769233" y="19.28246153846154"/>
      <point x="742.4855384615386" y="377.1858461538462"/>
      <point x="742.4855384615387" y="673.532923076923" type="qcurve"/>
      <point x="781.5144615384613" y="673.532923076923" type="line"/>
      <point x="781.5144615384613" y="379.07938461538464"/>
      <point x="540.7458461538462" y="-17.19753846153846"/>
      <point x="359.609846153846" y="-17.19753846153846" type="qcurve" smooth="yes"/>
      <point x="221.65907692307695" y="-17.19753846153846"/>
      <point x="68.96615384615384" y="196.1150769230769"/>
    </contour>
  </outline>
</glyph>
<glyph name="quotesingle" format="2">
  <advance width="279"/>
  <unicode hex="0027"/>
  <outline>
    <contour>
      <point x="115.86646153846152" y="1134.768" type="line"/>
      <point x="116.92061538461537" y="1375.3255384615381" type="line"/>
      <point x="116.92061538461537" y="1456.0" type="line"/>
      <point x="165.66461538461542" y="1456.0" type="line"/>
      <point x="165.66461538461542" y="1375.3255384615381" type="line"/>
      <point x="165.95446153846154" y="1134.768" type="line"/>
    </contour>
  </outline>
</glyph>
<glyph name="parenleft" format="2">
  <advance width="515"/>
  <unicode hex="0028"/>
  <outline>
    <contour>
      <point x="449.8640000000001" y="-436.0" type="line"/>
      <point x="316.5083076923077" y="-355.7624615384615"/>
      <point x="110.59692307692308" y="95.86399999999999"/>
      <point x="110.59692307692308" y="515.0" type="qcurve" smooth="yes"/>
      <point x="110.59692307692308" y="525.0" type="line" smooth="yes"/>
      <point x="110.59692307692308" y="922.3704615384615"/>
      <point x="309.2283076923077" y="1399.922461538462"/>
      <point x="449.8640000000001" y="1476.0" type="qcurve"/>
      <point x="450.64246153846165" y="1456.1212307692308" type="line"/>
      <point x="337.0941538461538" y="1386.0855384615381"/>
      <point x="148.47999999999996" y="943.9803076923079"/>
      <point x="148.47999999999996" y="532.0" type="qcurve" smooth="yes"/>
      <point x="148.47999999999996" y="508.0" type="line" smooth="yes"/>
      <point x="148.47999999999996" y="78.10707692307693"/>
      <point x="342.68553846153844" y="-339.2646153846154"/>
      <point x="450.48676923076937" y="-414.30400000000003" type="qcurve"/>
    </contour>
  </outline>
</glyph>
<glyph name="parenright" format="2">
  <advance width="515"/>
  <unicode hex="0029"/>
  <outline>
    <contour>
      <point x="65.58707692307692" y="-436.0" type="qcurve"/>
      <point x="64.9643076923077" y="-411.81169230769234" type="line"/>
      <point x="173.28492307692306" y="-336.7723076923076"/>
      <point x="366.53907692307695" y="78.10707692307693"/>
      <point x="366.53907692307695" y="508.0" type="qcurve" smooth="yes"/>
      <point x="366.53907692307695" y="532.0" type="line" smooth="yes"/>
      <point x="366.53907692307695" y="943.9803076923079"/>
      <point x="173.46769230769235" y="1375.9009230769227"/>
      <point x="64.8086153846154" y="1451.1366153846154" type="qcurve"/>
      <point x="65.58707692307692" y="1476.0" type="line"/>
      <point x="198.3446153846154" y="1395.396923076923"/>
      <point x="405.1864615384615" y="922.3704615384615"/>
      <point x="405.1864615384615" y="525.0" type="qcurve" smooth="yes"/>
      <point x="405.1864615384615" y="515.0" type="line" smooth="yes"/>
      <point x="405.1864615384615" y="95.86399999999999"/>
      <point x="198.3446153846154" y="-355.39692307692303"/>
    </contour>
  </outline>
</glyph>
<glyph name="asterisk" format="2">
  <advance width="861"/>
  <unicode hex="002A"/>
  <outline>
    <contour>
      <point x="44.31384615384615" y="1171.5563076923077" type="line"/>
      <point x="54.47199999999999" y="1204.9058461538464" type="line"/>
      <point x="414.99138461538456" y="1080.7286153846148" type="line"/>
      <point x="413.80246153846156" y="1472.48" type="line"/>
      <point x="448.2959999999998" y="1472.48" type="line"/>
      <point x="447.35138461538446" y="1080.7286153846148" type="line"/>
      <point x="807.6129230769229" y="1204.750153846154" type="line"/>
      <point x="817.2375384615383" y="1171.4006153846153" type="line"/>
      <point x="456.6098461538463" y="1051.6812307692308" type="line"/>
      <point x="682.808" y="735.7501538461539" type="line"/>
      <point x="655.0030769230768" y="715.9901538461538" type="line"/>
      <point x="431.0492307692307" y="1033.7630769230768" type="line"/>
      <point x="207.21723076923072" y="715.8480000000001" type="line"/>
      <point x="179.65661538461538" y="735.6080000000002" type="line"/>
      <point x="405.48861538461534" y="1051.6812307692308" type="line"/>
    </contour>
  </outline>
</glyph>
<glyph name="plus" format="2">
  <advance width="1142"/>
  <unicode hex="002B"/>
  <outline>
    <contour>
      <point x="179.08553846153845" y="666.8178461538461" type="line"/>
      <point x="179.08553846153845" y="703.3680000000002" type="line"/>
      <point x="963.057230769231" y="703.3680000000002" type="line"/>
      <point x="963.057230769231" y="666.8178461538461" type="line"/>
    </contour>
    <contour>
      <point x="552.1150769230769" y="228.49415384615384" type="line"/>
      <point x="552.1150769230769" y="1139.1230769230767" type="line"/>
      <point x="590.0276923076922" y="1139.1230769230767" type="line"/>
      <point x="590.0276923076922" y="228.49415384615384" type="line"/>
    </contour>
  </outline>
</glyph>
<glyph name="comma" format="2">
  <advance width="432"/>
  <unicode hex="002C"/>
  <outline>
    <contour>
      <point x="154.40861538461542" y="-128.52553846153845" type="line"/>
      <point x="177.13292307692308" y="-90.74215384615383"/>
      <point x="198.70523076923075" y="-8.142153846153846"/>
      <point x="197.68984615384613" y="49.91815384615384" type="qcurve" smooth="yes"/>
      <point x="197.3513846153846" y="127.01415384615386" type="line"/>
      <point x="252.05907692307693" y="127.3390769230769" type="line"/>
      <point x="252.39753846153835" y="50.412307692307685" type="line" smooth="yes"/>
      <point x="253.412923076923" y="-18.340923076923072"/>
      <point x="223.51015384615386" y="-109.70707692307691"/>
      <point x="192.35876923076918" y="-149.92553846153842" type="qcurve"/>
    </contour>
  </outline>
</glyph>
<glyph name="hyphen" format="2">
  <advance width="465"/>
  <unicode hex="002D"/>
  <outline>
    <contour>
      <point x="35.32923076923077" y="622.8141538461539" type="line"/>
      <point x="35.32923076923077" y="658.1538461538462" type="line"/>
      <point x="429.65599999999984" y="658.1538461538462" type="line"/>
      <point x="429.65599999999984" y="622.8141538461539" type="line"/>
    </contour>
  </outline>
</glyph>
<glyph name="period" format="2">
  <advance width="400"/>
  <unicode hex="002E"/>
  <outline>
    <contour>
      <point x="157.98153846153846" y="44.09784615384615" type="qcurve" smooth="yes"/>
      <point x="157.98153846153846" y="69.82461538461538"/>
      <point x="180.43015384615384" y="106.07446153846152"/>
      <point x="201.1224615384615" y="106.07446153846152" type="qcurve" smooth="yes"/>
      <point x="220.54399999999998" y="106.07446153846152"/>
      <point x="241.38338461538453" y="69.82461538461538"/>
      <point x="241.38338461538453" y="43.17784615384615" type="qcurve" smooth="yes"/>
      <point x="241.38338461538453" y="17.681846153846145"/>
      <point x="220.21907692307693" y="-18.7236923076923"/>
      <point x="200.03323076923078" y="-18.7236923076923" type="qcurve" smooth="yes"/>
      <point x="179.936" y="-18.7236923076923"/>
      <point x="157.98153846153846" y="17.837538461538458"/>
    </contour>
  </outline>
</glyph>
<glyph name="slash" format="2">
  <advance width="392"/>
  <unicode hex="002F"/>
  <outline>
    <contour>
      <point x="-71.94461538461539" y="-112.856" type="line"/>
      <point x="424.32184615384614" y="1456.0" type="line"/>
      <point x="464.2873846153848" y="1456.0" type="line"/>
      <point x="-32.281230769230774" y="-112.856" type="line"/>
    </contour>
  </outline>
</glyph>
<glyph name="zero" format="2">
  <advance width="918"/>
  <unicode hex="0030"/>
  <outline>
    <contour>
      <point x="140.46153846153845" y="369.1956923076923" type="qcurve" smooth="yes"/>
      <point x="140.46153846153845" y="1087.5827692307691" type="line" smooth="yes"/>
      <point x="140.46153846153845" y="1276.640615384615"/>
      <point x="317.14953846153844" y="1481.5089230769233"/>
      <point x="458.59323076923073" y="1481.5089230769233" type="qcurve" smooth="yes"/>
      <point x="601.1926153846154" y="1481.5089230769233"/>
      <point x="787.5692307692309" y="1276.640615384615"/>
      <point x="787.5692307692309" y="1087.5827692307691" type="qcurve" smooth="yes"/>
      <point x="787.5692307692309" y="369.1956923076923" type="line" smooth="yes"/>
      <point x="787.5692307692309" y="181.13353846153845"/>
      <point x="601.1926153846154" y="-25.50892307692308"/>
      <point x="458.59323076923073" y="-25.50892307692307" type="qcurve" smooth="yes"/>
      <point x="317.14953846153844" y="-25.50892307692307"/>
      <point x="140.46153846153845" y="181.13353846153845"/>
    </contour>
    <contour>
      <point x="178.7243076923077" y="361.1716923076923" type="line" smooth="yes"/>
      <point x="178.7243076923077" y="203.44923076923078"/>
      <point x="331.91815384615387" y="15.046769230769227"/>
      <point x="458.59323076923073" y="15.046769230769227" type="qcurve" smooth="yes"/>
      <point x="586.424" y="15.046769230769227"/>
      <point x="749.3064615384617" y="204.13784615384617"/>
      <point x="749.3064615384617" y="361.1716923076923" type="qcurve" smooth="yes"/>
      <point x="749.3064615384617" y="1095.2953846153844" type="line" smooth="yes"/>
      <point x="749.3064615384617" y="1254.324923076923"/>
      <point x="586.5796923076924" y="1440.7975384615384"/>
      <point x="458.59323076923073" y="1440.7975384615384" type="qcurve" smooth="yes"/>
      <point x="331.7624615384615" y="1440.7975384615384"/>
      <point x="178.7243076923077" y="1254.3249230769227"/>
      <point x="178.7243076923077" y="1095.2953846153844" type="qcurve" smooth="yes"/>
    </contour>
  </outline>
</glyph>
<glyph name="one" format="2">
  <advance width="918"/>
  <unicode hex="0031"/>
  <outline>
    <contour>
      <point x="481.92799999999994" y="-1.0" type="line"/>
      <point x="481.92799999999994" y="1422.9230769230771" type="line"/>
      <point x="159.69969230769226" y="1297.0941538461539" type="line"/>
      <point x="159.85538461538462" y="1336.1969230769232" type="line"/>
      <point x="495.7150769230769" y="1471.8861538461538" type="line"/>
      <point x="519.1907692307693" y="1471.8861538461538" type="line"/>
      <point x="519.1907692307693" y="-1.0" type="line"/>
    </contour>
  </outline>
</glyph>
<glyph name="two" format="2">
  <advance width="918"/>
  <unicode hex="0032"/>
  <outline>
    <contour>
      <point x="125.95261538461541" y="0.0" type="line"/>
      <point x="125.95261538461541" y="36.32" type="line"/>
      <point x="547.9193846153846" y="687.0036923076923" type="line" smooth="yes"/>
      <point x="619.3243076923077" y="799.7212307692308"/>
      <point x="727.1803076923077" y="1005.6135384615385"/>
      <point x="727.1803076923077" y="1145.958153846154" type="qcurve" smooth="yes"/>
      <point x="727.1803076923077" y="1289.7803076923076"/>
      <point x="604.5532307692307" y="1441.108923076923"/>
      <point x="479.3298461538462" y="1441.108923076923" type="qcurve" smooth="yes"/>
      <point x="353.87507692307696" y="1441.108923076923"/>
      <point x="164.0596923076923" y="1281.6941538461538"/>
      <point x="167.0596923076923" y="1102.288" type="qcurve" smooth="yes"/>
      <point x="167.0596923076923" y="1036.0" type="line"/>
      <point x="130.79692307692306" y="1036.0" type="line"/>
      <point x="130.79692307692306" y="1102.288" type="line" smooth="yes"/>
      <point x="130.7969230769231" y="1292.934153846154"/>
      <point x="325.63507692307695" y="1481.6646153846157"/>
      <point x="479.1741538461539" y="1481.6646153846157" type="qcurve" smooth="yes"/>
      <point x="623.6375384615384" y="1481.6646153846157"/>
      <point x="764.443076923077" y="1307.548923076923"/>
      <point x="764.443076923077" y="1148.958153846154" type="qcurve" smooth="yes"/>
      <point x="764.443076923077" y="1006.4412307692309"/>
      <point x="672.8110769230767" y="810.6313846153847"/>
      <point x="581.3723076923076" y="667.6424615384616" type="qcurve" smooth="yes"/>
      <point x="152.97476923076923" y="28.9126153846154" type="line"/>
      <point x="785.1206153846153" y="28.9126153846154" type="line"/>
      <point x="785.1206153846153" y="0.0" type="line"/>
    </contour>
  </outline>
</glyph>
<glyph name="three" format="2">
  <advance width="918"/>
  <unicode hex="0033"/>
  <outline>
    <contour>
      <point x="98.0424615384616" y="341.8676923076923" type="qcurve" smooth="yes"/>
      <point x="98.0424615384616" y="392.0" type="line"/>
      <point x="136.6166153846154" y="392.0" type="line"/>
      <point x="136.6166153846154" y="343.86769230769227" type="line" smooth="yes"/>
      <point x="136.6166153846154" y="175.39323076923077"/>
      <point x="320.86092307692303" y="11.046769230769215"/>
      <point x="461.0744615384615" y="11.046769230769215" type="qcurve" smooth="yes"/>
      <point x="582.0424615384617" y="11.046769230769215"/>
      <point x="761.4184615384615" y="198.5907692307692"/>
      <point x="761.4184615384615" y="384.81415384615383" type="qcurve" smooth="yes"/>
      <point x="761.4184615384615" y="557.9858461538462"/>
      <point x="593.176" y="738.84"/>
      <point x="454.0098461538461" y="738.84" type="qcurve" smooth="yes"/>
      <point x="293.75261538461535" y="738.84" type="line"/>
      <point x="293.75261538461535" y="784.16" type="line"/>
      <point x="430.5526153846154" y="784.16" type="line" smooth="yes"/>
      <point x="578.2473846153845" y="784.16"/>
      <point x="714.5433846153845" y="981.9661538461538"/>
      <point x="714.5433846153845" y="1130.2073846153846" type="qcurve" smooth="yes"/>
      <point x="714.5433846153845" y="1293.648615384615"/>
      <point x="559.515076923077" y="1441.108923076923"/>
      <point x="432.05046153846143" y="1441.108923076923" type="qcurve" smooth="yes"/>
      <point x="319.05292307692304" y="1441.108923076923"/>
      <point x="165.96861538461536" y="1290.516923076923"/>
      <point x="165.96861538461536" y="1156.3778461538461" type="qcurve" smooth="yes"/>
      <point x="165.96861538461536" y="1089.0" type="line"/>
      <point x="127.55015384615385" y="1089.0" type="line"/>
      <point x="127.55015384615385" y="1156.3778461538463" type="line" smooth="yes"/>
      <point x="127.55015384615385" y="1311.2098461538465"/>
      <point x="296.4215384615385" y="1481.6646153846157"/>
      <point x="433.20615384615377" y="1481.6646153846157" type="qcurve" smooth="yes"/>
      <point x="570.1323076923077" y="1481.6646153846157"/>
      <point x="752.8061538461538" y="1315.4972307692308"/>
      <point x="752.8061538461538" y="1130.1316923076922" type="qcurve" smooth="yes"/>
      <point x="752.8061538461538" y="973.6646153846153"/>
      <point x="628.1815384615385" y="792.6886153846153"/>
      <point x="544.2812307692308" y="770.0" type="qcurve"/>
      <point x="544.2812307692308" y="767.0" type="line"/>
      <point x="642.7286153846154" y="750.0"/>
      <point x="799.6812307692308" y="566.3772307692308"/>
      <point x="799.6812307692308" y="385.8141538461539" type="qcurve" smooth="yes"/>
      <point x="799.6812307692308" y="180.1193846153846"/>
      <point x="604.1267692307692" y="-25.50892307692307"/>
      <point x="461.07446153846143" y="-25.508923076923075" type="qcurve" smooth="yes"/>
      <point x="298.3095384615384" y="-25.508923076923075"/>
      <point x="98.0424615384616" y="158.4787692307692"/>
    </contour>
  </outline>
</glyph>
<glyph name="four" format="2">
  <advance width="918"/>
  <unicode hex="0034"/>
  <outline>
    <contour>
      <point x="629.7316923076922" y="0.0" type="line"/>
      <point x="629.7316923076922" y="396.6886153846154" type="line"/>
      <point x="629.7316923076922" y="404.16" type="line"/>
      <point x="629.7316923076922" y="1353.0000000000002" type="line"/>
      <point x="623.4203076923076" y="1353.0000000000002" type="line"/>
      <point x="107.19384615384615" y="418.32" type="line"/>
      <point x="647.4320000000001" y="418.32" type="line"/>
      <point x="652.4960000000001" y="418.32" type="line"/>
      <point x="854.1556923076923" y="418.32" type="line"/>
      <point x="854.1556923076923" y="383.52861538461536" type="line"/>
      <point x="85.02276923076923" y="383.52861538461536" type="line"/>
      <point x="85.02276923076923" y="434.8486153846154" type="line"/>
      <point x="639.7821538461537" y="1476.0" type="line"/>
      <point x="662.9944615384617" y="1476.0" type="line"/>
      <point x="662.9944615384617" y="0.0" type="line"/>
    </contour>
  </outline>
</glyph>
<glyph name="five" format="2">
  <advance width="918"/>
  <unicode hex="0035"/>
  <outline>
    <contour>
      <point x="108.3298461538462" y="327.7778461538462" type="qcurve" smooth="yes"/>
      <point x="108.3298461538462" y="375.0" type="line"/>
      <point x="154.59261538461539" y="378.0" type="line"/>
      <point x="154.59261538461539" y="325.7778461538462" type="line" smooth="yes"/>
      <point x="154.7483076923077" y="170.34523076923077"/>
      <point x="314.64307692307693" y="15.04676923076922"/>
      <point x="462.2578461538462" y="15.04676923076922" type="qcurve" smooth="yes"/>
      <point x="595.6129230769229" y="15.04676923076922"/>
      <point x="783.7716923076924" y="225.87815384615382"/>
      <point x="783.7716923076924" y="468.0" type="qcurve" smooth="yes"/>
      <point x="783.7716923076924" y="698.0043076923076"/>
      <point x="613.6129230769228" y="907.8258461538461"/>
      <point x="483.5550769230769" y="907.8258461538461" type="qcurve" smooth="yes"/>
      <point x="388.7907692307693" y="907.8258461538461"/>
      <point x="213.51507692307695" y="807.3132307692307"/>
      <point x="169.99015384615385" y="723.5218461538461" type="qcurve"/>
      <point x="147.45046153846152" y="736.0959999999999" type="line"/>
      <point x="210.98153846153846" y="1456.0" type="line"/>
      <point x="754.7833846153848" y="1456.0" type="line"/>
      <point x="754.7833846153848" y="1421.2086153846153" type="line"/>
      <point x="242.92861538461543" y="1421.2086153846153" type="line"/>
      <point x="186.16615384615386" y="798.3575384615384" type="line"/>
      <point x="214.14523076923072" y="849.9846153846155"/>
      <point x="375.73476923076925" y="945.5372307692307"/>
      <point x="478.96923076923076" y="945.5372307692307" type="qcurve" smooth="yes"/>
      <point x="626.3243076923078" y="945.5372307692307"/>
      <point x="821.0344615384615" y="718.9427692307693"/>
      <point x="821.0344615384615" y="465.0" type="qcurve" smooth="yes"/>
      <point x="821.0344615384615" y="210.87384615384616"/>
      <point x="615.4756923076923" y="-25.50892307692307"/>
      <point x="461.10215384615384" y="-25.50892307692307" type="qcurve" smooth="yes"/>
      <point x="303.936" y="-25.50892307692307"/>
      <point x="108.3298461538462" y="147.80800000000002"/>
    </contour>
  </outline>
</glyph>
<glyph name="six" format="2">
  <advance width="918"/>
  <unicode hex="0036"/>
  <outline>
    <contour>
      <point x="105.35384615384615" y="614.0" type="qcurve" smooth="yes"/>
      <point x="105.35384615384615" y="644.0" type="line" smooth="yes"/>
      <point x="105.35384615384615" y="1043.659076923077"/>
      <point x="433.20861538461537" y="1481.6646153846157"/>
      <point x="669.0332307692307" y="1481.6646153846157" type="qcurve" smooth="yes"/>
      <point x="687.5846153846154" y="1481.6646153846157" type="line"/>
      <point x="687.5846153846154" y="1444.108923076923" type="line"/>
      <point x="669.0332307692307" y="1444.108923076923" type="line" smooth="yes"/>
      <point x="457.3113846153846" y="1444.108923076923"/>
      <point x="143.6166153846154" y="1042.659076923077"/>
      <point x="143.6166153846154" y="651.0" type="qcurve" smooth="yes"/>
      <point x="143.6166153846154" y="606.0000000000001" type="line" smooth="yes"/>
      <point x="143.6166153846154" y="266.31138461538455"/>
      <point x="323.9870769230769" y="9.89107692307692"/>
      <point x="474.21476923076926" y="9.89107692307692" type="qcurve" smooth="yes"/>
      <point x="614.5883076923078" y="9.89107692307692"/>
      <point x="774.6486153846154" y="235.92615384615388"/>
      <point x="774.6486153846154" y="462.0" type="qcurve" smooth="yes"/>
      <point x="774.6486153846154" y="674.7347692307692"/>
      <point x="607.744" y="874.3587692307691"/>
      <point x="475.41230769230765" y="874.3587692307691" type="qcurve" smooth="yes"/>
      <point x="352.6461538461539" y="874.3587692307691"/>
      <point x="142.28123076923077" y="620.3772307692307"/>
      <point x="143.83815384615386" y="462.99999999999994" type="qcurve"/>
      <point x="115.59815384615382" y="462.99999999999994" type="line"/>
      <point x="114.04123076923072" y="660.4153846153845"/>
      <point x="339.0947692307692" y="909.9144615384615"/>
      <point x="469.7507692307692" y="909.9144615384615" type="qcurve" smooth="yes"/>
      <point x="633.5353846153846" y="909.9144615384615"/>
      <point x="812.9113846153846" y="684.8947692307693"/>
      <point x="812.9113846153846" y="462.0" type="qcurve" smooth="yes"/>
      <point x="812.9113846153846" y="221.76615384615386"/>
      <point x="630.9796923076923" y="-25.66461538461538"/>
      <point x="472.9033846153846" y="-25.66461538461538" type="qcurve" smooth="yes"/>
      <point x="300.4498461538462" y="-25.66461538461538"/>
      <point x="105.35384615384615" y="254.9156923076923"/>
    </contour>
  </outline>
</glyph>
<glyph name="seven" format="2">
  <advance width="918"/>
  <unicode hex="0037"/>
  <outline>
    <contour>
      <point x="269.26892307692316" y="0.0" type="line"/>
      <point x="753.1243076923075" y="1422.3458461538462" type="line"/>
      <point x="68.24430769230769" y="1422.3458461538462" type="line"/>
      <point x="68.24430769230769" y="1456.0" type="line"/>
      <point x="785.3298461538461" y="1456.0" type="line"/>
      <point x="785.3298461538461" y="1412.9956923076923" type="line"/>
      <point x="308.5316923076923" y="0.0" type="line"/>
    </contour>
  </outline>
</glyph>
<glyph name="eight" format="2">
  <advance width="918"/>
  <unicode hex="0038"/>
  <outline>
    <contour>
      <point x="100.82092307692308" y="376.0" type="qcurve" smooth="yes"/>
      <point x="98.82092307692308" y="525.7926153846154"/>
      <point x="231.43876923076922" y="718.6313846153847"/>
      <point x="355.63200000000006" y="747.7070769230769" type="qcurve"/>
      <point x="355.63200000000006" y="750.3956923076923" type="line"/>
      <point x="266.6307692307692" y="769.0800000000002"/>
      <point x="147.18707692307697" y="946.4289230769228"/>
      <point x="147.18707692307697" y="1099.8024615384616" type="qcurve" smooth="yes"/>
      <point x="147.18707692307697" y="1280.2516923076919"/>
      <point x="306.14707692307695" y="1481.6646153846154"/>
      <point x="457.9846153846153" y="1481.6646153846154" type="qcurve" smooth="yes"/>
      <point x="610.1335384615384" y="1481.6646153846154"/>
      <point x="771.5323076923077" y="1279.1243076923079"/>
      <point x="771.5323076923077" y="1099.8024615384616" type="qcurve" smooth="yes"/>
      <point x="771.5323076923077" y="946.2732307692307"/>
      <point x="653.2486153846153" y="772.2356923076924"/>
      <point x="558.5686153846154" y="750.3956923076923" type="qcurve"/>
      <point x="558.5686153846154" y="747.7070769230768" type="line"/>
      <point x="681.0972307692307" y="721.32"/>
      <point x="818.0541538461539" y="537.7784615384616"/>
      <point x="817.2098461538461" y="376.0" type="qcurve" smooth="yes"/>
      <point x="816.3655384615384" y="180.976"/>
      <point x="632.1279999999999" y="-25.50892307692307"/>
      <point x="457.9846153846153" y="-25.50892307692307" type="qcurve" smooth="yes"/>
      <point x="283.21846153846144" y="-25.50892307692307"/>
      <point x="103.82092307692308" y="172.19753846153847"/>
    </contour>
    <contour>
      <point x="139.08369230769233" y="374.7686153846154" type="qcurve" smooth="yes"/>
      <point x="139.08369230769233" y="197.5132307692308"/>
      <point x="305.17107692307684" y="11.046769230769229"/>
      <point x="458.1403076923076" y="11.046769230769232" type="qcurve" smooth="yes"/>
      <point x="610.6566153846153" y="11.046769230769232"/>
      <point x="778.1827692307693" y="197.9803076923077"/>
      <point x="778.1827692307693" y="374.92430769230765" type="qcurve" smooth="yes"/>
      <point x="778.1827692307693" y="534.2313846153846"/>
      <point x="611.9261538461539" y="727.9956923076923"/>
      <point x="458.1403076923076" y="727.9956923076923" type="qcurve" smooth="yes"/>
      <point x="302.76984615384623" y="727.9956923076923"/>
      <point x="139.08369230769233" y="535.0098461538463"/>
    </contour>
    <contour>
      <point x="184.29415384615388" y="1100.878153846154" type="qcurve" smooth="yes"/>
      <point x="184.29415384615388" y="951.5230769230769"/>
      <point x="320.27323076923074" y="764.0043076923076"/>
      <point x="458.1403076923076" y="764.0043076923077" type="qcurve" smooth="yes"/>
      <point x="594.9975384615383" y="764.0043076923077"/>
      <point x="734.2695384615387" y="951.6787692307694"/>
      <point x="734.2695384615387" y="1100.878153846154" type="qcurve" smooth="yes"/>
      <point x="734.2695384615387" y="1262.2332307692309"/>
      <point x="594.2849230769231" y="1443.108923076923"/>
      <point x="458.1403076923076" y="1443.108923076923" type="qcurve" smooth="yes"/>
      <point x="320.3870769230769" y="1443.108923076923"/>
      <point x="184.29415384615388" y="1265.4547692307692"/>
    </contour>
  </outline>
</glyph>
<glyph name="nine" format="2">
  <advance width="918"/>
  <unicode hex="0039"/>
  <outline>
    <contour>
      <point x="105.11938461538463" y="994.0" type="qcurve" smooth="yes"/>
      <point x="105.11938461538463" y="1235.6350769230767"/>
      <point x="287.0510769230769" y="1481.6646153846157"/>
      <point x="445.1273846153845" y="1481.6646153846157" type="qcurve" smooth="yes"/>
      <point x="618.3452307692309" y="1481.6646153846157"/>
      <point x="812.6769230769231" y="1202.4855384615385"/>
      <point x="812.6769230769231" y="842.0" type="qcurve" smooth="yes"/>
      <point x="812.6769230769231" y="812.0" type="line" smooth="yes"/>
      <point x="812.6769230769231" y="412.34092307692305"/>
      <point x="484.822153846154" y="-25.664615384615384"/>
      <point x="248.99753846153854" y="-25.66461538461538" type="qcurve" smooth="yes"/>
      <point x="230.4461538461538" y="-25.66461538461538" type="line"/>
      <point x="230.4461538461538" y="11.891076923076914" type="line"/>
      <point x="248.99753846153848" y="11.891076923076913" type="line" smooth="yes"/>
      <point x="460.7193846153847" y="11.891076923076913"/>
      <point x="774.4141538461539" y="413.3409230769231"/>
      <point x="774.4141538461539" y="805.0" type="qcurve" smooth="yes"/>
      <point x="774.4141538461539" y="849.9999999999999" type="line" smooth="yes"/>
      <point x="774.4141538461539" y="1191.089846153846"/>
      <point x="594.0436923076923" y="1446.108923076923"/>
      <point x="443.81600000000003" y="1446.108923076923" type="qcurve" smooth="yes"/>
      <point x="303.44246153846154" y="1446.108923076923"/>
      <point x="144.1464615384615" y="1221.475076923077"/>
      <point x="144.1464615384615" y="994.0" type="qcurve" smooth="yes"/>
      <point x="144.1464615384615" y="781.2652307692308"/>
      <point x="309.35261538461543" y="581.6412307692308"/>
      <point x="441.52861538461536" y="581.6412307692308" type="qcurve" smooth="yes"/>
      <point x="565.8516923076922" y="581.6412307692308"/>
      <point x="775.7495384615385" y="834.8584615384617"/>
      <point x="774.1926153846155" y="993.0000000000001" type="qcurve"/>
      <point x="803.1969230769231" y="993.0000000000001" type="line"/>
      <point x="804.7538461538461" y="795.5846153846154"/>
      <point x="579.4030769230768" y="546.0855384615385"/>
      <point x="447.0344615384615" y="546.0855384615385" type="qcurve" smooth="yes"/>
      <point x="283.0941538461538" y="546.0855384615385"/>
      <point x="105.11938461538463" y="771.1052307692307"/>
    </contour>
  </outline>
</glyph>
<glyph name="colon" format="2">
  <advance width="424"/>
  <unicode hex="003A"/>
  <outline>
    <contour>
      <point x="169.92246153846156" y="43.90707692307692" type="qcurve" smooth="yes"/>
      <point x="169.92246153846156" y="69.87630769230769"/>
      <point x="192.2430769230769" y="106.5243076923077"/>
      <point x="212.1316923076923" y="106.5243076923077" type="qcurve" smooth="yes"/>
      <point x="232.55384615384614" y="106.5243076923077"/>
      <point x="254.34092307692308" y="69.87630769230769"/>
      <point x="254.34092307692308" y="43.90707692307692" type="qcurve" smooth="yes"/>
      <point x="254.34092307692308" y="17.92430769230769"/>
      <point x="232.54030769230775" y="-18.7236923076923"/>
      <point x="211.96246153846153" y="-18.7236923076923" type="qcurve" smooth="yes"/>
      <point x="191.90461538461537" y="-18.7236923076923"/>
      <point x="169.92246153846156" y="17.92430769230769"/>
    </contour>
    <contour>
      <point x="169.92246153846156" y="965.4036923076925" type="qcurve" smooth="yes"/>
      <point x="169.92246153846156" y="991.3729230769231"/>
      <point x="192.2430769230769" y="1028.0209230769235"/>
      <point x="212.1316923076923" y="1028.0209230769235" type="qcurve" smooth="yes"/>
      <point x="232.55384615384614" y="1028.0209230769235"/>
      <point x="254.34092307692308" y="991.3729230769231"/>
      <point x="254.34092307692308" y="965.4036923076923" type="qcurve" smooth="yes"/>
      <point x="254.34092307692308" y="939.4209230769229"/>
      <point x="232.54030769230775" y="902.7729230769231"/>
      <point x="211.96246153846153" y="902.7729230769231" type="qcurve" smooth="yes"/>
      <point x="191.90461538461537" y="902.7729230769231"/>
      <point x="169.92246153846156" y="939.4209230769231"/>
    </contour>
  </outline>
</glyph>
<glyph name="semicolon" format="2">
  <advance width="424"/>
  <unicode hex="003B"/>
  <outline>
    <contour>
      <point x="154.35015384615383" y="-128.68123076923075" type="line"/>
      <point x="177.59446153846147" y="-90.89784615384613"/>
      <point x="200.24246153846153" y="-8.142153846153844"/>
      <point x="199.2270769230769" y="49.91815384615384" type="qcurve" smooth="yes"/>
      <point x="198.88861538461538" y="127.01415384615387" type="line"/>
      <point x="252.83200000000005" y="127.18338461538463" type="line"/>
      <point x="253.1704615384615" y="51.02092307692307" type="line" smooth="yes"/>
      <point x="254.1858461538461" y="-18.49661538461538"/>
      <point x="224.52738461538465" y="-109.25415384615386"/>
      <point x="193.13169230769236" y="-150.23692307692303" type="qcurve"/>
    </contour>
    <contour>
      <point x="168.9852307692308" y="965.4036923076925" type="qcurve" smooth="yes"/>
      <point x="168.9852307692308" y="991.3729230769231"/>
      <point x="191.30584615384612" y="1028.0209230769235"/>
      <point x="211.19446153846152" y="1028.0209230769235" type="qcurve" smooth="yes"/>
      <point x="231.6166153846154" y="1028.0209230769235"/>
      <point x="253.40369230769227" y="991.3729230769231"/>
      <point x="253.40369230769227" y="965.4036923076923" type="qcurve" smooth="yes"/>
      <point x="253.40369230769227" y="939.4209230769229"/>
      <point x="231.60307692307697" y="902.7729230769231"/>
      <point x="211.02523076923075" y="902.7729230769231" type="qcurve" smooth="yes"/>
      <point x="190.96738461538456" y="902.7729230769231"/>
      <point x="168.9852307692308" y="939.4209230769231"/>
    </contour>
  </outline>
</glyph>
<glyph name="less" format="2">
  <advance width="1090"/>
  <unicode hex="003C"/>
  <outline>
    <contour>
      <point x="875.5563076923075" y="295.74769230769226" type="line"/>
      <point x="200.83323076923077" y="654.0824615384614" type="line"/>
      <point x="200.83323076923077" y="699.0412307692308" type="line"/>
      <point x="875.5563076923075" y="1052.3587692307697" type="line"/>
      <point x="875.5563076923075" y="1015.1372307692309" type="line"/>
      <point x="219.724923076923" y="670.147076923077" type="line"/>
      <point x="875.5563076923075" y="320.1261538461539" type="line"/>
    </contour>
  </outline>
</glyph>
<glyph name="equal" format="2">
  <advance width="1086"/>
  <unicode hex="003D"/>
  <outline>
    <contour>
      <point x="242.57107692307693" y="483.1636923076922" type="line"/>
      <point x="242.57107692307693" y="512.8393846153846" type="line"/>
      <point x="843.8424615384615" y="512.8393846153846" type="line"/>
      <point x="843.8424615384615" y="483.1636923076922" type="line"/>
    </contour>
    <contour>
      <point x="242.57107692307693" y="862.5692307692308" type="line"/>
      <point x="242.57107692307693" y="892.2449230769233" type="line"/>
      <point x="843.8424615384615" y="892.2449230769233" type="line"/>
      <point x="843.8424615384615" y="862.5692307692308" type="line"/>
    </contour>
  </outline>
</glyph>
<glyph name="greater" format="2">
  <advance width="1090"/>
  <unicode hex="003E"/>
  <outline>
    <contour>
      <point x="213.83446153846154" y="290.5476923076923" type="line"/>
      <point x="213.83446153846154" y="327.7692307692308" type="line"/>
      <point x="870.1858461538462" y="682.990153846154" type="line"/>
      <point x="213.83446153846154" y="1038.3803076923075" type="line"/>
      <point x="213.83446153846154" y="1062.7587692307695" type="line"/>
      <point x="888.5575384615385" y="699.0412307692308" type="line"/>
      <point x="888.5575384615385" y="654.0824615384614" type="line"/>
    </contour>
  </outline>
</glyph>
<glyph name="question" format="2">
  <advance width="670"/>
  <unicode hex="003F"/>
  <outline>
    <contour>
      <point x="254.5353846153847" y="43.75138461538461" type="qcurve" smooth="yes"/>
      <point x="254.5353846153847" y="69.87630769230769"/>
      <point x="276.856" y="106.3686153846154"/>
      <point x="296.1360000000001" y="106.3686153846154" type="qcurve" smooth="yes"/>
      <point x="316.71384615384613" y="106.3686153846154"/>
      <point x="339.02092307692305" y="69.87630769230769"/>
      <point x="339.02092307692305" y="43.75138461538461" type="qcurve" smooth="yes"/>
      <point x="339.02092307692305" y="17.612923076923074"/>
      <point x="317.4646153846154" y="-18.879384615384613"/>
      <point x="296.7310769230769" y="-18.879384615384613" type="qcurve" smooth="yes"/>
      <point x="276.6732307692307" y="-18.879384615384613"/>
      <point x="254.5353846153847" y="17.612923076923074"/>
    </contour>
    <contour>
      <point x="87.22276923076923" y="1089.1175384615387" type="line"/>
      <point x="87.22276923076923" y="1146.4972307692303" type="line" smooth="yes"/>
      <point x="87.22276923076923" y="1309.750153846154"/>
      <point x="210.71815384615385" y="1473.1975384615384"/>
      <point x="324.2535384615384" y="1473.1975384615384" type="qcurve" smooth="yes"/>
      <point x="436.69230769230774" y="1473.1975384615384"/>
      <point x="556.8892307692308" y="1303.1175384615385"/>
      <point x="556.8892307692308" y="1152.264615384615" type="qcurve" smooth="yes"/>
      <point x="556.8892307692308" y="1003.2775384615384"/>
      <point x="478.17969230769233" y="858.7919999999998"/>
      <point x="413.26523076923075" y="771.5113846153847" type="qcurve" smooth="yes"/>
      <point x="354.88061538461534" y="688.2356923076923"/>
      <point x="307.56000000000006" y="527.1015384615384"/>
      <point x="307.56000000000006" y="444.51138461538466" type="qcurve" smooth="yes"/>
      <point x="307.56000000000006" y="398.3907692307693" type="line"/>
      <point x="275.53661538461535" y="398.3907692307693" type="line"/>
      <point x="275.53661538461535" y="445.03138461538464" type="line" smooth="yes"/>
      <point x="275.53661538461535" y="552.7132307692308"/>
      <point x="337.97907692307695" y="719.3083076923078"/>
      <point x="399.0695384615385" y="804.8295384615384" type="qcurve" smooth="yes"/>
      <point x="453.6350769230769" y="880.4203076923077"/>
      <point x="518.1058461538461" y="1023.4399999999999"/>
      <point x="518.1058461538461" y="1152.264615384615" type="qcurve" smooth="yes"/>
      <point x="518.1058461538461" y="1285.7926153846158"/>
      <point x="414.40553846153836" y="1437.929846153846"/>
      <point x="324.2535384615383" y="1437.929846153846" type="qcurve" smooth="yes"/>
      <point x="234.06523076923077" y="1437.929846153846"/>
      <point x="126.31015384615388" y="1294.342153846154"/>
      <point x="126.31015384615388" y="1146.8018461538459" type="qcurve" smooth="yes"/>
      <point x="126.31015384615388" y="1089.1175384615387" type="line"/>
    </contour>
  </outline>
</glyph>
<glyph name="at" format="2">
  <advance width="1545"/>
  <unicode hex="0040"/>
  <outline>
    <contour>
      <point x="519.4000000000001" y="409.6529230769231" type="qcurve" smooth="yes"/>
      <point x="519.4000000000001" y="699.5630769230768"/>
      <point x="709.8344615384616" y="1052.0"/>
      <point x="850.7458461538462" y="1052.0" type="qcurve" smooth="yes"/>
      <point x="904.0886153846153" y="1052.0"/>
      <point x="999.4098461538465" y="981.7009230769231"/>
      <point x="1019.723076923077" y="949.8923076923077" type="qcurve"/>
      <point x="1030.2695384615383" y="949.8923076923077" type="line"/>
      <point x="928.1199999999997" y="350.0" type="line" smooth="yes"/>
      <point x="898.1760000000002" y="179.91815384615384"/>
      <point x="1021.9138461538461" y="37.21784615384617"/>
      <point x="1119.4049230769228" y="37.21784615384617" type="qcurve" smooth="yes"/>
      <point x="1250.5989717624147" y="37.21784615384617"/>
      <point x="1416.076307692308" y="355.8135384615383"/>
      <point x="1416.0763076923079" y="650.0" type="qcurve" smooth="yes"/>
      <point x="1416.076307692308" y="975.9987692307691"/>
      <point x="1104.419472281908" y="1443.0110769230766"/>
      <point x="813.5883076923075" y="1443.0110769230766" type="qcurve" smooth="yes"/>
      <point x="522.7387076923077" y="1443.0110769230766"/>
      <point x="137.18153846153845" y="892.9876923076922"/>
      <point x="137.18153846153845" y="460.0" type="qcurve" smooth="yes"/>
      <point x="137.18153846153845" y="31.808615384615372"/>
      <point x="474.2407032967034" y="-403.0110769230768"/>
      <point x="727.8916923076923" y="-403.0110769230768" type="qcurve" smooth="yes"/>
      <point x="845.8664615384619" y="-403.0110769230768"/>
      <point x="1010.5513846153844" y="-350.7033846153845"/>
      <point x="1067.2424615384618" y="-313.0110769230768" type="qcurve"/>
      <point x="1068.0209230769233" y="-349.0615384615385" type="line"/>
      <point x="1007.7329230769236" y="-393.0615384615385"/>
      <point x="846.2590769230771" y="-439.0615384615385"/>
      <point x="727.8916923076923" y="-439.0615384615385" type="qcurve" smooth="yes"/>
      <point x="462.65538461538455" y="-439.0615384615385"/>
      <point x="99.03999999999999" y="24.55261538461538"/>
      <point x="99.03999999999999" y="460.0" type="qcurve" smooth="yes"/>
      <point x="99.03999999999999" y="905.2153846153846"/>
      <point x="511.92246153846145" y="1479.0615384615385"/>
      <point x="813.5883076923075" y="1479.0615384615385" type="qcurve" smooth="yes"/>
      <point x="1112.329230769231" y="1479.0615384615385"/>
      <point x="1451.747076923077" y="1006.3495384615385"/>
      <point x="1451.7470769230767" y="650.0" type="qcurve" smooth="yes"/>
      <point x="1451.7470769230767" y="340.0646153846154"/>
      <point x="1254.991384615384" y="0.0"/>
      <point x="1113.3507692307692" y="0.0" type="qcurve" smooth="yes"/>
      <point x="1023.8322547960515" y="0.0"/>
      <point x="905.2490407024317" y="106.1632579530322"/>
      <point x="882.5889230769232" y="202.39569230769234" type="qcurve"/>
      <point x="858.8371522145312" y="106.53049913537554"/>
      <point x="759.480491212052" y="0.0"/>
      <point x="696.7636923076923" y="0.0" type="qcurve" smooth="yes"/>
      <point x="615.0492307692308" y="0.0"/>
      <point x="519.4000000000001" y="205.44615384615386"/>
    </contour>
    <contour>
      <point x="557.3926153846154" y="409.65292307692306" type="qcurve" smooth="yes"/>
      <point x="557.3926153846154" y="209.8030769230769"/>
      <point x="631.763070948469" y="36.05046153846155"/>
      <point x="701.1883076923078" y="36.05046153846155" type="qcurve" smooth="yes"/>
      <point x="764.9839181047089" y="36.05046153846155"/>
      <point x="860.3189487045755" y="196.81873225633885"/>
      <point x="895.2350769230768" y="391.0153846153846" type="qcurve" smooth="yes"/>
      <point x="994.7058461538462" y="948.8836923076921" type="line"/>
      <point x="972.7014237113488" y="977.8614693017189"/>
      <point x="893.8289230769229" y="1014.7587692307692"/>
      <point x="855.4904615384617" y="1014.7587692307692" type="qcurve" smooth="yes"/>
      <point x="726.3147677150436" y="1014.7587692307692"/>
      <point x="557.3926153846155" y="684.2098461538463"/>
    </contour>
  </outline>
</glyph>
<glyph name="A" format="2">
  <advance width="852"/>
  <unicode hex="0041"/>
  <anchor x="501.5784615384615" y="1432.0" name="top"/>
  <outline>
    <contour>
      <point x="0.0" y="0.0" type="line"/>
      <point x="387.8" y="1465.3163076923076" type="line"/>
      <point x="470.0750769230769" y="1465.3163076923076" type="line"/>
      <point x="858.8055384615384" y="0.0" type="line"/>
      <point x="818.1526153846154" y="0.0" type="line"/>
      <point x="474.0393846153844" y="1311.7532307692306" type="line" smooth="yes"/>
      <point x="461.5458461538461" y="1350.201230769231"/>
      <point x="440.1132307692308" y="1419.612923076923"/>
      <point x="431.4252307692308" y="1452.3206153846152" type="qcurve"/>
      <point x="423.70030769230766" y="1452.3206153846152" type="line"/>
      <point x="415.1452307692307" y="1419.612923076923"/>
      <point x="392.42400000000004" y="1350.079384615385"/>
      <point x="379.7267692307691" y="1311.7396923076922" type="qcurve" smooth="yes"/>
      <point x="37.47076923076923" y="0.0" type="line"/>
    </contour>
    <contour>
      <point x="136.28492307692306" y="441.8467692307692" type="line"/>
      <point x="162.11999999999995" y="472.83569230769234" type="line"/>
      <point x="712.3544615384615" y="473.7698461538462" type="line"/>
      <point x="701.3803076923076" y="442.78092307692305" type="line"/>
    </contour>
  </outline>
</glyph>
<glyph name="B" format="2">
  <advance width="858"/>
  <unicode hex="0042"/>
  <outline>
    <contour>
      <point x="162.06892307692308" y="0.0" type="line"/>
      <point x="162.06892307692308" y="1456.0" type="line"/>
      <point x="432.8836923076923" y="1456.0" type="line" smooth="yes"/>
      <point x="575.8184615384614" y="1456.0"/>
      <point x="732.548923076923" y="1283.6769230769228"/>
      <point x="732.548923076923" y="1098.540923076923" type="qcurve" smooth="yes"/>
      <point x="732.548923076923" y="958.2036923076922"/>
      <point x="640.6061538461538" y="785.9956923076926"/>
      <point x="565.155692307692" y="765.6596923076922" type="qcurve"/>
      <point x="564.9999999999998" y="762.323076923077" type="line"/>
      <point x="659.5544615384616" y="741.2633846153848"/>
      <point x="769.9236923076922" y="550.2683076923078"/>
      <point x="769.9236923076922" y="391.68" type="qcurve" smooth="yes"/>
      <point x="769.9236923076922" y="205.73107692307696"/>
      <point x="607.6996923076921" y="0.0"/>
      <point x="465.2227692307691" y="0.0" type="qcurve" smooth="yes"/>
    </contour>
    <contour>
      <point x="200.14953846153847" y="35.77784615384614" type="line"/>
      <point x="464.6676923076922" y="35.77784615384614" type="line" smooth="yes"/>
      <point x="602.505846153846" y="35.77784615384614"/>
      <point x="731.3163076923078" y="227.2763076923077"/>
      <point x="731.3163076923078" y="392.4307692307692" type="qcurve" smooth="yes"/>
      <point x="731.3163076923078" y="553.875076923077"/>
      <point x="601.8694432639184" y="740.7230769230769"/>
      <point x="463.4221538461538" y="740.7230769230769" type="qcurve" smooth="yes"/>
      <point x="200.14953846153847" y="740.7230769230769" type="line"/>
    </contour>
    <contour>
      <point x="200.14953846153847" y="777.2535384615384" type="line"/>
      <point x="434.584" y="777.2535384615384" type="line" smooth="yes"/>
      <point x="573.4141538461538" y="777.2535384615384"/>
      <point x="693.3944615384613" y="943.8480000000003"/>
      <point x="693.3944615384614" y="1098.540923076923" type="qcurve" smooth="yes"/>
      <point x="693.3944615384613" y="1256.9273846153847"/>
      <point x="570.5142959250383" y="1420.2221538461538"/>
      <point x="432.20799999999997" y="1420.2221538461538" type="qcurve" smooth="yes"/>
      <point x="200.14953846153847" y="1420.2221538461538" type="line"/>
    </contour>
  </outline>
</glyph>
<glyph name="C" format="2">
  <advance width="889"/>
  <unicode hex="0043"/>
  <anchor x="566.0209230769232" y="0" name="bottom"/>
  <outline>
    <contour>
      <point x="114.03446153846153" y="620.8652307692308" type="qcurve" smooth="yes"/>
      <point x="114.03446153846153" y="835.0400000000001" type="line" smooth="yes"/>
      <point x="114.03446153846153" y="1145.478153846154"/>
      <point x="326.81476923076923" y="1481.9723076923078"/>
      <point x="497.25907692307686" y="1481.9723076923078" type="qcurve" smooth="yes"/>
      <point x="662.052923076923" y="1481.9723076923078"/>
      <point x="840.4726153846153" y="1230.1464615384614"/>
      <point x="839.0449230769228" y="1046.4233846153847" type="qcurve" smooth="yes"/>
      <point x="838.5913846153845" y="981.3692307692309" type="line"/>
      <point x="799.5520000000001" y="981.3692307692309" type="line"/>
      <point x="800.0055384615385" y="1045.2523076923076" type="line" smooth="yes"/>
      <point x="798.4030769230768" y="1200.766153846154"/>
      <point x="651.1887193071829" y="1446.6929230769229"/>
      <point x="497.24553846153856" y="1446.6929230769229" type="qcurve" smooth="yes"/>
      <point x="340.3667044534413" y="1446.6929230769229"/>
      <point x="152.2215384615384" y="1126.3655384615383"/>
      <point x="152.2215384615384" y="834.3495384615383" type="qcurve" smooth="yes"/>
      <point x="152.2215384615384" y="621.7113846153846" type="line" smooth="yes"/>
      <point x="152.2215384615384" y="330.7494441325098"/>
      <point x="340.3802429149797" y="9.476307692307678"/>
      <point x="497.19138461538466" y="9.476307692307678" type="qcurve" smooth="yes"/>
      <point x="651.5136423841058" y="9.476307692307678"/>
      <point x="791.5901538461537" y="258.0960000000001"/>
      <point x="800.4726153846154" y="416.6639999999999" type="qcurve" smooth="yes"/>
      <point x="800.5390769230771" y="474.6307692307693" type="line"/>
      <point x="839.5784615384615" y="474.6307692307693" type="line"/>
      <point x="839.5119999999998" y="415.49292307692303" type="line" smooth="yes"/>
      <point x="830.5396923076921" y="228.56"/>
      <point x="662.0935384615383" y="-25.816615384615385"/>
      <point x="497.19138461538466" y="-25.816615384615385" type="qcurve" smooth="yes"/>
      <point x="326.99753846153834" y="-25.816615384615385"/>
      <point x="114.03446153846153" y="311.73293690579084"/>
    </contour>
  </outline>
</glyph>
<glyph name="D" format="2">
  <advance width="946"/>
  <unicode hex="0044"/>
  <outline>
    <contour>
      <point x="162.06892307692308" y="0.0" type="line"/>
      <point x="162.06892307692308" y="1456.0" type="line"/>
      <point x="394.59323076923073" y="1456.0" type="line" smooth="yes"/>
      <point x="595.1421538461539" y="1456.0"/>
      <point x="831.299076923077" y="1130.2609230769235"/>
      <point x="831.299076923077" y="846.9132307692307" type="qcurve" smooth="yes"/>
      <point x="831.299076923077" y="615.4024615384615" type="line" smooth="yes"/>
      <point x="831.299076923077" y="326.1681893491124"/>
      <point x="595.7581538461541" y="0.0"/>
      <point x="395.0603076923076" y="0.0" type="qcurve" smooth="yes"/>
    </contour>
    <contour>
      <point x="199.97353846153845" y="35.77784615384617" type="line"/>
      <point x="394.5932307692307" y="35.77784615384617" type="line" smooth="yes"/>
      <point x="582.4532275529345" y="35.77784615384617"/>
      <point x="792.3476923076923" y="340.63907692307686"/>
      <point x="792.3476923076923" y="614.0621538461539" type="qcurve" smooth="yes"/>
      <point x="792.3476923076923" y="847.9692307692308" type="line" smooth="yes"/>
      <point x="792.3476923076923" y="1115.7476923076927"/>
      <point x="582.1486121683191" y="1420.2221538461542"/>
      <point x="394.1261538461538" y="1420.2221538461542" type="qcurve" smooth="yes"/>
      <point x="199.97353846153845" y="1420.2221538461542" type="line"/>
    </contour>
  </outline>
</glyph>
<glyph name="E" format="2">
  <advance width="785"/>
  <unicode hex="0045"/>
  <anchor x="504.368" y="1272.7458461538463" name="top"/>
  <outline>
    <contour>
      <point x="162.06892307692308" y="0.0" type="line"/>
      <point x="162.06892307692308" y="1456.0" type="line"/>
      <point x="718.6486153846154" y="1456.0" type="line"/>
      <point x="718.6486153846154" y="1420.2221538461542" type="line"/>
      <point x="199.97353846153845" y="1420.2221538461542" type="line"/>
      <point x="199.97353846153845" y="769.8301538461536" type="line"/>
      <point x="629.3113846153844" y="769.8301538461536" type="line"/>
      <point x="629.3113846153844" y="733.8080000000003" type="line"/>
      <point x="199.97353846153845" y="733.8080000000003" type="line"/>
      <point x="199.97353846153845" y="35.77784615384616" type="line"/>
      <point x="729.4344615384614" y="35.77784615384616" type="line"/>
      <point x="729.4344615384614" y="0.0" type="line"/>
    </contour>
  </outline>
</glyph>
<glyph name="F" format="2">
  <advance width="757"/>
  <unicode hex="0046"/>
  <outline>
    <contour>
      <point x="162.06892307692308" y="0.0" type="line"/>
      <point x="162.06892307692308" y="1456.0" type="line"/>
      <point x="709.8067692307694" y="1456.0" type="line"/>
      <point x="709.8067692307694" y="1420.2221538461542" type="line"/>
      <point x="199.97353846153845" y="1420.2221538461542" type="line"/>
      <point x="199.97353846153845" y="750.4849230769231" type="line"/>
      <point x="632.9175384615382" y="750.4849230769231" type="line"/>
      <point x="632.9175384615382" y="715.9913846153846" type="line"/>
      <point x="199.97353846153845" y="715.9913846153846" type="line"/>
      <point x="199.97353846153845" y="0.0" type="line"/>
    </contour>
  </outline>
</glyph>
<glyph name="G" format="2">
  <advance width="915"/>
  <unicode hex="0047"/>
  <outline>
    <contour>
      <point x="114.03446153846153" y="621.3852307692308" type="qcurve" smooth="yes"/>
      <point x="114.03446153846153" y="834.5200000000001" type="line" smooth="yes"/>
      <point x="114.03446153846153" y="1145.3563076923076"/>
      <point x="326.0972307692308" y="1481.9723076923078"/>
      <point x="496.3304615384613" y="1481.9723076923078" type="qcurve" smooth="yes"/>
      <point x="659.9403076923074" y="1481.9723076923078"/>
      <point x="831.6326153846155" y="1244.808"/>
      <point x="839.3323076923078" y="1072.6535384615386" type="qcurve" smooth="yes"/>
      <point x="840.1630769230771" y="1028.3889230769234" type="line"/>
      <point x="801.1236923076922" y="1028.3889230769234" type="line"/>
      <point x="800.2929230769232" y="1071.7193846153846" type="line" smooth="yes"/>
      <point x="792.420681124598" y="1214.6439121064618"/>
      <point x="649.190520114459" y="1446.6929230769229"/>
      <point x="496.3304615384613" y="1446.6929230769229" type="qcurve" smooth="yes"/>
      <point x="339.8183967611336" y="1446.6929230769229"/>
      <point x="152.22153846153842" y="1125.0467692307693"/>
      <point x="152.22153846153842" y="833.673846153846" type="qcurve" smooth="yes"/>
      <point x="152.22153846153842" y="622.2313846153845" type="line" smooth="yes"/>
      <point x="152.22153846153842" y="332.6977518248176"/>
      <point x="336.708990087952" y="9.489846153846145"/>
      <point x="518.4356923076922" y="9.489846153846145" type="qcurve" smooth="yes"/>
      <point x="612.7188917312196" y="9.489846153846145"/>
      <point x="743.5964101976842" y="69.48368087905541"/>
      <point x="803.3606153846152" y="126.82030769230771" type="qcurve"/>
      <point x="803.3606153846152" y="636.5175384615384" type="line"/>
      <point x="496.7710769230768" y="636.5175384615384" type="line"/>
      <point x="496.7710769230768" y="673.0596923076922" type="line"/>
      <point x="838.030153846154" y="673.0596923076922" type="line"/>
      <point x="838.030153846154" y="113.1556923076923" type="line"/>
      <point x="785.1883076923077" y="56.64184615384615"/>
      <point x="635.7649580419578" y="-25.816615384615382"/>
      <point x="518.4086153846152" y="-25.816615384615382" type="qcurve" smooth="yes"/>
      <point x="324.99446153846145" y="-25.816615384615382"/>
      <point x="114.03446153846153" y="313.0326292134831"/>
    </contour>
  </outline>
</glyph>
<glyph name="H" format="2">
  <advance width="1016"/>
  <unicode hex="0048"/>
  <outline>
    <contour>
      <point x="162.06892307692308" y="0.0" type="line"/>
      <point x="162.06892307692308" y="1456.0" type="line"/>
      <point x="199.97353846153845" y="1456.0" type="line"/>
      <point x="199.97353846153845" y="770.1821538461536" type="line"/>
      <point x="815.6067692307694" y="770.1821538461536" type="line"/>
      <point x="815.6067692307694" y="1456.0" type="line"/>
      <point x="853.5113846153845" y="1456.0" type="line"/>
      <point x="853.5113846153845" y="0.0" type="line"/>
      <point x="815.6067692307694" y="0.0" type="line"/>
      <point x="815.6067692307694" y="734.1870769230769" type="line"/>
      <point x="199.97353846153845" y="734.1870769230769" type="line"/>
      <point x="199.97353846153845" y="0.0" type="line"/>
    </contour>
  </outline>
</glyph>
<glyph name="I" format="2">
  <advance width="381"/>
  <unicode hex="0049"/>
  <anchor x="194.6270769230769" y="1432.0" name="top"/>
  <outline>
    <contour>
      <point x="171.47692307692301" y="0.0" type="line"/>
      <point x="171.47692307692301" y="1456.0" type="line"/>
      <point x="208.6172307692308" y="1456.0" type="line"/>
      <point x="208.6172307692308" y="0.0" type="line"/>
    </contour>
  </outline>
</glyph>
<glyph name="J" format="2">
  <advance width="708"/>
  <unicode hex="004A"/>
  <outline>
    <contour>
      <point x="23.138461538461538" y="383.71938461538457" type="qcurve" smooth="yes"/>
      <point x="23.138461538461538" y="417.47938461538456" type="line"/>
      <point x="62.17784615384617" y="417.47938461538456" type="line"/>
      <point x="62.17784615384617" y="384.1526153846154" type="line" smooth="yes"/>
      <point x="62.17784615384617" y="195.25846153846152"/>
      <point x="185.9974870264064" y="9.476307692307673"/>
      <point x="298.04676923076926" y="9.476307692307673" type="qcurve" smooth="yes"/>
      <point x="409.39943605051667" y="9.476307692307673"/>
      <point x="523.8664615384615" y="209.9748453608247"/>
      <point x="523.8664615384615" y="405.5107692307692" type="qcurve" smooth="yes"/>
      <point x="523.8664615384615" y="1456.0" type="line"/>
      <point x="561.0067692307691" y="1456.0" type="line"/>
      <point x="561.0067692307691" y="406.63446153846144" type="line" smooth="yes"/>
      <point x="559.9667692307693" y="198.6636213017751"/>
      <point x="424.236923076923" y="-25.816615384615382"/>
      <point x="298.0467692307692" y="-25.816615384615382" type="qcurve" smooth="yes"/>
      <point x="171.03138461538458" y="-25.816615384615382"/>
      <point x="23.138461538461538" y="187.04000000000002"/>
    </contour>
  </outline>
</glyph>
<glyph name="K" format="2">
  <advance width="864"/>
  <unicode hex="004B"/>
  <outline>
    <contour>
      <point x="162.06892307692308" y="0.0" type="line"/>
      <point x="162.06892307692308" y="1456.0" type="line"/>
      <point x="199.24246153846153" y="1456.0" type="line"/>
      <point x="199.24246153846153" y="621.7083076923077" type="line"/>
      <point x="818.3618461538459" y="1456.0" type="line"/>
      <point x="850.9261538461539" y="1456.0" type="line"/>
      <point x="199.97353846153845" y="575.6190769230769" type="line"/>
      <point x="199.97353846153845" y="0.0" type="line"/>
    </contour>
    <contour>
      <point x="824.5790769230769" y="0.0" type="line"/>
      <point x="343.9833846153847" y="808.8215384615385" type="line"/>
      <point x="362.64984615384617" y="839.5846153846156" type="line"/>
      <point x="856.1033846153842" y="0.0" type="line"/>
    </contour>
  </outline>
</glyph>
<glyph name="L" format="2">
  <advance width="718"/>
  <unicode hex="004C"/>
  <outline>
    <contour>
      <point x="162.06892307692308" y="0.0" type="line"/>
      <point x="162.06892307692308" y="1456.0" type="line"/>
      <point x="199.97353846153848" y="1456.0" type="line"/>
      <point x="199.97353846153848" y="35.77784615384616" type="line"/>
      <point x="698.9156923076922" y="35.77784615384616" type="line"/>
      <point x="698.9156923076922" y="0.0" type="line"/>
    </contour>
  </outline>
</glyph>
<glyph name="M" format="2">
  <advance width="1275"/>
  <unicode hex="004D"/>
  <outline>
    <contour>
      <point x="162.06892307692308" y="0.0" type="line"/>
      <point x="162.06892307692308" y="1456.0" type="line"/>
      <point x="210.16923076923078" y="1456.0" type="line"/>
      <point x="598.1766153846153" y="160.41046153846156" type="line" smooth="yes"/>
      <point x="607.9421538461538" y="131.4153846153846"/>
      <point x="634.0892307692307" y="46.63200000000001"/>
      <point x="639.7267692307689" y="13.233230769230772" type="qcurve"/>
      <point x="645.364307692308" y="13.233230769230772" type="line"/>
      <point x="652.076923076923" y="46.63200000000001"/>
      <point x="673.7415384615383" y="131.42892307692307"/>
      <point x="682.9735384615383" y="160.41046153846156" type="qcurve" smooth="yes"/>
      <point x="1069.0135384615382" y="1456.0" type="line"/>
      <point x="1112.6116923076922" y="1456.0" type="line"/>
      <point x="1112.6116923076922" y="0.0" type="line"/>
      <point x="1074.4430769230771" y="0.0" type="line"/>
      <point x="1074.4430769230771" y="1236.9316923076922" type="line" smooth="yes"/>
      <point x="1074.4430769230771" y="1266.6639999999998"/>
      <point x="1078.796307692308" y="1341.9747692307692"/>
      <point x="1081.3550769230771" y="1370.9698461538458" type="qcurve"/>
      <point x="1074.4375384615385" y="1370.9698461538458" type="line"/>
      <point x="1069.4043076923074" y="1342.001846153846"/>
      <point x="1041.8529230769234" y="1267.3772307692307"/>
      <point x="1032.620923076923" y="1237.124923076923" type="qcurve" smooth="yes"/>
      <point x="661.9944615384616" y="0.0" type="line"/>
      <point x="619.6658461538462" y="0.0" type="line"/>
      <point x="234.4910769230769" y="1236.8910769230768" type="line" smooth="yes"/>
      <point x="224.10953846153842" y="1266.5827692307691"/>
      <point x="205.68307692307692" y="1341.9070769230766"/>
      <point x="201.16984615384618" y="1370.9021538461536" type="qcurve"/>
      <point x="192.98153846153843" y="1370.9021538461536" type="line"/>
      <point x="196.30461538461537" y="1341.8935384615386"/>
      <point x="200.41353846153842" y="1266.5421538461537"/>
      <point x="200.41353846153842" y="1236.8504615384616" type="qcurve" smooth="yes"/>
      <point x="200.41353846153842" y="0.0" type="line"/>
    </contour>
  </outline>
</glyph>
<glyph name="N" format="2">
  <advance width="1011"/>
  <unicode hex="004E"/>
  <anchor x="592.6836923076924" y="1432.0" name="top"/>
  <outline>
    <contour>
      <point x="151.66892307692308" y="0.0" type="line"/>
      <point x="151.66892307692308" y="1456.0" type="line"/>
      <point x="204.30461538461543" y="1456.0" type="line"/>
      <point x="817.5692307692309" y="68.19876923076924" type="line" smooth="yes"/>
      <point x="829.9243076923076" y="40.989538461538416"/>
      <point x="820.7692307692308" y="53.57969230769233"/>
      <point x="829.3698461538461" y="25.499076923076927" type="qcurve"/>
      <point x="835.3981538461538" y="25.499076923076927" type="line"/>
      <point x="832.8393846153846" y="55.07630769230771"/>
      <point x="828.352" y="132.45415384615382"/>
      <point x="828.352" y="162.6541538461538" type="qcurve" smooth="yes"/>
      <point x="828.352" y="1457.5286153846153" type="line"/>
      <point x="864.8492307692308" y="1456.0" type="line"/>
      <point x="864.8492307692308" y="0.0" type="line"/>
      <point x="812.2270769230765" y="0.0" type="line"/>
      <point x="217.37723076923075" y="1341.3329230769236" type="line" smooth="yes"/>
      <point x="205.1643076923077" y="1367.3236923076925"/>
      <point x="195.45292307692304" y="1408.9735384615385"/>
      <point x="188.50030769230767" y="1436.0055384615384" type="qcurve"/>
      <point x="182.5384615384615" y="1436.0055384615384" type="line"/>
      <point x="185.09723076923078" y="1405.9756664615384"/>
      <point x="187.58953846153847" y="1351.2596923076924"/>
      <point x="187.58953846153847" y="1323.056" type="qcurve" smooth="yes"/>
      <point x="187.58953846153847" y="0.0" type="line"/>
    </contour>
  </outline>
</glyph>
<glyph name="O" format="2">
  <advance width="997"/>
  <unicode hex="004F"/>
  <anchor x="567.8486153846153" y="1432.0" name="top"/>
  <outline>
    <contour>
      <point x="114.03446153846153" y="620.8652307692308" type="qcurve" smooth="yes"/>
      <point x="114.03446153846153" y="834.8843076923077" type="line" smooth="yes"/>
      <point x="114.03446153846153" y="1145.302153846154"/>
      <point x="321.9390769230769" y="1481.9723076923078"/>
      <point x="501.4209230769232" y="1481.9723076923078" type="qcurve" smooth="yes"/>
      <point x="680.7833846153848" y="1481.9723076923078"/>
      <point x="881.4916923076922" y="1145.302153846154"/>
      <point x="881.4916923076922" y="834.8843076923077" type="qcurve" smooth="yes"/>
      <point x="881.4916923076922" y="620.8652307692308" type="line" smooth="yes"/>
      <point x="881.4916923076922" y="312.02401382886785"/>
      <point x="680.7833846153848" y="-25.816615384615382"/>
      <point x="501.4209230769232" y="-25.816615384615382" type="qcurve" smooth="yes"/>
      <point x="321.78338461538465" y="-25.816615384615382"/>
      <point x="114.03446153846153" y="312.4910907519448"/>
    </contour>
    <contour>
      <point x="152.2215384615384" y="621.7113846153845" type="line" smooth="yes"/>
      <point x="152.2215384615384" y="326.7137518248175"/>
      <point x="336.1772565077508" y="9.476307692307675"/>
      <point x="501.40738461538473" y="9.476307692307675" type="qcurve" smooth="yes"/>
      <point x="666.7020532319393" y="9.476307692307675"/>
      <point x="843.0603076923076" y="326.8559056709713"/>
      <point x="843.0603076923076" y="621.4270769230768" type="qcurve" smooth="yes"/>
      <point x="843.0603076923076" y="834.3495384615384" type="line" smooth="yes"/>
      <point x="843.0603076923076" y="1130.4892307692307"/>
      <point x="666.6885147704007" y="1446.6929230769229"/>
      <point x="501.4209230769232" y="1446.6929230769229" type="qcurve" smooth="yes"/>
      <point x="336.3858718923662" y="1446.6929230769229"/>
      <point x="152.2215384615384" y="1130.4892307692307"/>
      <point x="152.2215384615384" y="834.3495384615384" type="qcurve" smooth="yes"/>
    </contour>
  </outline>
</glyph>
<glyph name="P" format="2">
  <advance width="818"/>
  <unicode hex="0050"/>
  <outline>
    <contour>
      <point x="162.06892307692308" y="0.0" type="line"/>
      <point x="162.06892307692308" y="1456.0" type="line"/>
      <point x="430.6006153846154" y="1456.0" type="line" smooth="yes"/>
      <point x="593.8861538461537" y="1456.0"/>
      <point x="747.2295384615386" y="1232.1987692307694"/>
      <point x="747.2295384615386" y="1045.2313846153847" type="qcurve" smooth="yes"/>
      <point x="747.2295384615386" y="859.8209230769231"/>
      <point x="594.1975384615383" y="631.2984615384613"/>
      <point x="430.6006153846154" y="631.2984615384613" type="qcurve" smooth="yes"/>
      <point x="199.97353846153848" y="631.2984615384613" type="line"/>
      <point x="199.97353846153848" y="0.0" type="line"/>
    </contour>
    <contour>
      <point x="199.97353846153848" y="667.8406153846154" type="line"/>
      <point x="429.6596923076923" y="667.8406153846154" type="line" smooth="yes"/>
      <point x="583.9618268223923" y="667.8406153846154"/>
      <point x="708.710153846154" y="877.182153846154"/>
      <point x="708.710153846154" y="1045.3735384615386" type="qcurve" smooth="yes"/>
      <point x="708.710153846154" y="1215.5883076923078"/>
      <point x="583.5082883608538" y="1420.2221538461542"/>
      <point x="429.8424615384615" y="1420.2221538461542" type="qcurve" smooth="yes"/>
      <point x="199.97353846153848" y="1420.2221538461542" type="line"/>
    </contour>
  </outline>
</glyph>
<glyph name="Q" format="2">
  <advance width="997"/>
  <unicode hex="0051"/>
  <outline>
    <contour>
      <point x="114.03446153846153" y="620.8652307692308" type="qcurve" smooth="yes"/>
      <point x="114.03446153846153" y="834.8843076923077" type="line" smooth="yes"/>
      <point x="114.03446153846153" y="1145.302153846154"/>
      <point x="321.9390769230769" y="1481.9723076923078"/>
      <point x="501.4209230769232" y="1481.9723076923078" type="qcurve" smooth="yes"/>
      <point x="680.7833846153848" y="1481.9723076923078"/>
      <point x="881.4916923076922" y="1145.302153846154"/>
      <point x="881.4916923076922" y="834.8843076923077" type="qcurve" smooth="yes"/>
      <point x="881.4916923076922" y="620.8652307692308" type="line" smooth="yes"/>
      <point x="881.4916923076922" y="312.044923076923"/>
      <point x="680.7833846153848" y="-25.816615384615382"/>
      <point x="501.4209230769232" y="-25.816615384615382" type="qcurve" smooth="yes"/>
      <point x="321.78338461538465" y="-25.816615384615382"/>
      <point x="114.03446153846153" y="312.5119999999999"/>
    </contour>
    <contour>
      <point x="152.2215384615384" y="621.7113846153845" type="line" smooth="yes"/>
      <point x="152.2215384615384" y="326.7156923076923"/>
      <point x="336.2000000000001" y="9.476307692307675"/>
      <point x="501.40738461538473" y="9.476307692307675" type="qcurve" smooth="yes"/>
      <point x="666.6916923076922" y="9.476307692307675"/>
      <point x="843.0603076923076" y="326.85784615384614"/>
      <point x="843.0603076923076" y="621.4270769230768" type="qcurve" smooth="yes"/>
      <point x="843.0603076923076" y="834.3495384615384" type="line" smooth="yes"/>
      <point x="843.0603076923076" y="1130.4892307692307"/>
      <point x="666.6781538461538" y="1446.6929230769229"/>
      <point x="501.4209230769232" y="1446.6929230769229" type="qcurve" smooth="yes"/>
      <point x="336.40861538461553" y="1446.6929230769229"/>
      <point x="152.2215384615384" y="1130.4892307692307"/>
      <point x="152.2215384615384" y="834.3495384615384" type="qcurve" smooth="yes"/>
    </contour>
    <contour>
      <point x="894.0996923076922" y="-185.12369230769227" type="line"/>
      <point x="473.05846153846153" y="198.0178461538462" type="line"/>
      <point x="502.1033846153845" y="222.7261538461539" type="line"/>
      <point x="921.5310769230767" y="-156.47261538461538" type="line"/>
    </contour>
  </outline>
</glyph>
<glyph name="R" format="2">
  <advance width="830"/>
  <unicode hex="0052"/>
  <outline>
    <contour>
      <point x="162.06892307692308" y="0.0" type="line"/>
      <point x="162.06892307692308" y="1456.0" type="line"/>
      <point x="428.09046153846157" y="1456.0" type="line" smooth="yes"/>
      <point x="587.2996923076923" y="1456.0"/>
      <point x="738.3833846153844" y="1247.2892307692307"/>
      <point x="738.3833846153844" y="1056.4289230769227" type="qcurve" smooth="yes"/>
      <point x="738.3833846153844" y="868.1883076923078"/>
      <point x="587.2658461538462" y="656.4966153846156"/>
      <point x="428.8689230769231" y="656.4966153846156" type="qcurve" smooth="yes"/>
      <point x="199.81784615384615" y="656.4966153846156" type="line"/>
      <point x="200.44061538461537" y="0.0" type="line"/>
    </contour>
    <contour>
      <point x="199.97353846153845" y="693.027076923077" type="line"/>
      <point x="428.2461538461539" y="693.027076923077" type="line" smooth="yes"/>
      <point x="579.1904465696465" y="693.027076923077"/>
      <point x="699.8639999999999" y="890.1052307692308"/>
      <point x="699.8639999999999" y="1056.4289230769227" type="qcurve" smooth="yes"/>
      <point x="699.8639999999999" y="1231.6886153846156"/>
      <point x="557.5929081081081" y="1420.2338461538461"/>
      <point x="427.6233846153846" y="1420.2338461538461" type="qcurve" smooth="yes"/>
      <point x="199.97353846153845" y="1420.2338461538461" type="line"/>
    </contour>
    <contour>
      <point x="741.7224615384617" y="0.0" type="line"/>
      <point x="447.2449230769231" y="671.8104615384615" type="line"/>
      <point x="484.34830769230757" y="672.1218461538461" type="line"/>
      <point x="784.3895384615383" y="0.0" type="line"/>
    </contour>
  </outline>
</glyph>
<glyph name="S" format="2">
  <advance width="808"/>
  <unicode hex="0053"/>
  <outline>
    <contour>
      <point x="87.60061538461538" y="352.09415384615374" type="qcurve" smooth="yes"/>
      <point x="87.60061538461538" y="408.9341538461538" type="line"/>
      <point x="125.50523076923076" y="408.9341538461538" type="line"/>
      <point x="125.50523076923076" y="352.46215384615374" type="line" smooth="yes"/>
      <point x="125.50523076923074" y="187.58523076923078"/>
      <point x="272.009767594108" y="9.476307692307671"/>
      <point x="412.23384615384606" y="9.476307692307671" type="qcurve" smooth="yes"/>
      <point x="552.4843136669156" y="9.476307692307671"/>
      <point x="691.5950769230768" y="192.34030769230768"/>
      <point x="691.5950769230768" y="344.9618461538462" type="qcurve" smooth="yes"/>
      <point x="691.5950769230768" y="478.9895384615385"/>
      <point x="589.4793846153844" y="646.6221538461538"/>
      <point x="425.9544615384616" y="728.1729230769231" type="qcurve" smooth="yes"/>
      <point x="262.2738461538463" y="809.2036923076923"/>
      <point x="117.15323076923073" y="986.5224615384616"/>
      <point x="115.07323076923076" y="1129.478769230769" type="qcurve" smooth="yes"/>
      <point x="112.47323076923077" y="1284.2332307692304"/>
      <point x="261.43938461538465" y="1481.9723076923078"/>
      <point x="404.45476923076916" y="1481.9723076923078" type="qcurve" smooth="yes"/>
      <point x="548.536" y="1481.9723076923078"/>
      <point x="708.5058461538462" y="1269.3083076923072"/>
      <point x="708.5058461538462" y="1107.529846153846" type="qcurve" smooth="yes"/>
      <point x="708.5058461538462" y="1056.2744615384615" type="line"/>
      <point x="670.6012307692306" y="1056.2744615384615" type="line"/>
      <point x="670.6012307692306" y="1107.191384615384" type="line" smooth="yes"/>
      <point x="664.8812307692307" y="1254.3507692307687"/>
      <point x="540.6598636003174" y="1446.6793846153848"/>
      <point x="404.46830769230763" y="1446.6793846153848" type="qcurve" smooth="yes"/>
      <point x="268.14226215384616" y="1446.6793846153848"/>
      <point x="147.87938461538462" y="1282.625230769231"/>
      <point x="147.87938461538462" y="1142.8418461538456" type="qcurve" smooth="yes"/>
      <point x="147.87938461538462" y="1012.0763076923078"/>
      <point x="267.13107692307693" y="847.0947692307694"/>
      <point x="431.2639999999999" y="767.3378461538459" type="qcurve" smooth="yes"/>
      <point x="583.2812307692309" y="690.7009230769231"/>
      <point x="729.5876923076922" y="500.6738461538463"/>
      <point x="729.5876923076922" y="344.97538461538466" type="qcurve" smooth="yes"/>
      <point x="729.5876923076922" y="170.51076923076923"/>
      <point x="563.5199999999998" y="-25.816615384615382"/>
      <point x="412.2067692307691" y="-25.816615384615382" type="qcurve" smooth="yes"/>
      <point x="260.26523076923075" y="-25.816615384615382"/>
      <point x="87.60061538461538" y="174.81046153846157"/>
    </contour>
  </outline>
</glyph>
<glyph name="T" format="2">
  <advance width="796"/>
  <unicode hex="0054"/>
  <outline>
    <contour>
      <point x="20.38523076923077" y="1416.0621538461542" type="line"/>
      <point x="20.38523076923077" y="1456.0" type="line"/>
      <point x="777.1495384615383" y="1456.0" type="line"/>
      <point x="777.1495384615383" y="1416.0621538461542" type="line"/>
      <point x="417.2289230769229" y="1416.0621538461542" type="line"/>
      <point x="417.2289230769229" y="0.0" type="line"/>
      <point x="380.08861538461537" y="0.0" type="line"/>
      <point x="380.08861538461537" y="1416.0621538461542" type="line"/>
    </contour>
  </outline>
</glyph>
<glyph name="U" format="2">
  <advance width="939"/>
  <unicode hex="0055"/>
  <anchor x="543.558153846154" y="1432.0" name="top"/>
  <outline>
    <contour>
      <point x="137.51507692307692" y="444.8295384615384" type="qcurve" smooth="yes"/>
      <point x="137.51507692307692" y="1456.0" type="line"/>
      <point x="174.6553846153846" y="1456.0" type="line"/>
      <point x="174.6553846153846" y="443.77353846153846" type="line" smooth="yes"/>
      <point x="174.6553846153846" y="223.25582417582422"/>
      <point x="339.22523664402433" y="9.462769230769215"/>
      <point x="471.0203076923077" y="9.462769230769215" type="qcurve" smooth="yes"/>
      <point x="600.720766660547" y="9.462769230769215"/>
      <point x="765.1267692307692" y="224.02013186813193"/>
      <point x="765.1267692307692" y="443.77353846153846" type="qcurve" smooth="yes"/>
      <point x="765.1267692307692" y="1456.0" type="line"/>
      <point x="803.0313846153846" y="1456.0" type="line"/>
      <point x="803.0313846153846" y="444.816" type="line" smooth="yes"/>
      <point x="803.0313846153846" y="208.07753846153844"/>
      <point x="617.822769230769" y="-25.816615384615382"/>
      <point x="470.9932307692309" y="-25.816615384615382" type="qcurve" smooth="yes"/>
      <point x="323.90646153846154" y="-25.816615384615382"/>
      <point x="137.51507692307692" y="208.23323076923074"/>
    </contour>
  </outline>
</glyph>
<glyph name="V" format="2">
  <advance width="824"/>
  <unicode hex="0056"/>
  <outline>
    <contour>
      <point x="13.513846153846156" y="1456.0" type="line"/>
      <point x="52.31692307692309" y="1456.0" type="line"/>
      <point x="374.0332307692308" y="157.28307692307692" type="line" smooth="yes"/>
      <point x="384.3267692307693" y="120.50153846153843"/>
      <point x="403.6203076923076" y="46.29230769230769"/>
      <point x="411.55753846153846" y="12.340923076923097" type="qcurve"/>
      <point x="420.6781538461538" y="12.340923076923097" type="line"/>
      <point x="428.35753846153847" y="46.29230769230768"/>
      <point x="448.79692307692306" y="120.99446153846151"/>
      <point x="458.5975384615385" y="157.33723076923073" type="qcurve" smooth="yes"/>
      <point x="773.651692307692" y="1456.0" type="line"/>
      <point x="808.7661538461537" y="1456.0" type="line"/>
      <point x="452.8012307692308" y="-9.052307692307693" type="line"/>
      <point x="375.97846153846143" y="-9.052307692307693" type="line"/>
    </contour>
  </outline>
</glyph>
<glyph name="W" format="2">
  <advance width="1336"/>
  <unicode hex="0057"/>
  <outline>
    <contour>
      <point x="332.5772307692307" y="-9.038769230769232" type="line"/>
      <point x="45.87076923076922" y="1456.0" type="line"/>
      <point x="81.57230769230767" y="1456.0" type="line"/>
      <point x="333.3643076923078" y="147.8867692307692" type="line" smooth="yes"/>
      <point x="340.2055384615385" y="117.44184615384614"/>
      <point x="345.05846153846153" y="60.547692307692316"/>
      <point x="348.1655384615384" y="30.250461538461508" type="qcurve"/>
      <point x="352.67876923076915" y="30.250461538461508" type="line"/>
      <point x="354.6344615384615" y="60.56123076923074"/>
      <point x="359.58153846153846" y="117.096"/>
      <point x="366.3483076923077" y="147.55446153846154" type="qcurve" smooth="yes"/>
      <point x="648.6258461538459" y="1456.0" type="line"/>
      <point x="695.3304615384613" y="1456.0" type="line"/>
      <point x="970.8676923076926" y="147.56799999999998" type="line" smooth="yes"/>
      <point x="977.634461538462" y="116.9403076923077"/>
      <point x="986.6086153846155" y="60.392"/>
      <point x="989.1686153846152" y="30.094769230769224" type="qcurve"/>
      <point x="993.4510769230768" y="30.094769230769224" type="line"/>
      <point x="996.144" y="60.40553846153846"/>
      <point x="1001.7476923076924" y="117.27261538461542"/>
      <point x="1007.7052307692304" y="147.92738461538454" type="qcurve" smooth="yes"/>
      <point x="1260.5439999999999" y="1456.0" type="line"/>
      <point x="1293.4658461538463" y="1456.0" type="line"/>
      <point x="1008.5704615384619" y="-9.052307692307693" type="line"/>
      <point x="970.7741538461537" y="-9.052307692307693" type="line"/>
      <point x="689.1206153846157" y="1303.8196923076925" type="line" smooth="yes"/>
      <point x="682.1981538461538" y="1336.16"/>
      <point x="674.1883076923077" y="1387.6418461538462"/>
      <point x="671.4590769230769" y="1418.758769230769" type="qcurve"/>
      <point x="668.8203076923077" y="1418.758769230769" type="line"/>
      <point x="666.8418461538463" y="1387.6418461538462"/>
      <point x="658.8590769230767" y="1336.329230769231"/>
      <point x="651.4166153846155" y="1303.8196923076925" type="qcurve" smooth="yes"/>
      <point x="368.84492307692307" y="-9.038769230769232" type="line"/>
    </contour>
  </outline>
</glyph>
<glyph name="X" format="2">
  <advance width="870"/>
  <unicode hex="0058"/>
  <outline>
    <contour>
      <point x="36.64" y="0.0" type="line"/>
      <point x="425.0073846153845" y="763.0492307692308" type="line"/>
      <point x="428.26276923076927" y="763.7261538461537" type="line"/>
      <point x="774.232" y="1456.0" type="line"/>
      <point x="814.4547692307693" y="1456.0" type="line"/>
      <point x="447.63507692307695" y="723.6393846153844" type="line"/>
      <point x="445.9083076923077" y="722.9624615384615" type="line"/>
      <point x="76.86276923076923" y="0.0" type="line"/>
    </contour>
    <contour>
      <point x="58.33723076923077" y="1456.0" type="line"/>
      <point x="102.02646153846155" y="1456.0" type="line"/>
      <point x="448.13169230769245" y="763.7126153846153" type="line"/>
      <point x="449.0276923076922" y="762.6972307692307" type="line"/>
      <point x="835.9286153846156" y="0.0" type="line"/>
      <point x="790.9415384615384" y="0.0" type="line"/>
      <point x="425.2750769230768" y="722.8067692307693" type="line"/>
      <point x="424.39261538461534" y="723.9507692307693" type="line"/>
    </contour>
  </outline>
</glyph>
<glyph name="Y" format="2">
  <advance width="820"/>
  <unicode hex="0059"/>
  <anchor x="500.728" y="1432.0" name="top"/>
  <outline>
    <contour>
      <point x="393.98584615384624" y="0.0" type="line"/>
      <point x="393.98584615384624" y="578.9950769230769" type="line"/>
      <point x="17.98646153846154" y="1456.0" type="line"/>
      <point x="62.81661538461539" y="1456.0" type="line"/>
      <point x="364.6030769230769" y="735.3513846153845" type="line" smooth="yes"/>
      <point x="376.42953846153836" y="709.8055384615384"/>
      <point x="402.72061538461526" y="649.6621538461537"/>
      <point x="412.8941538461537" y="624.4073846153844" type="qcurve"/>
      <point x="416.2307692307691" y="624.4073846153844" type="line"/>
      <point x="426.4043076923077" y="649.6621538461537"/>
      <point x="452.5126153846154" y="709.7919999999999"/>
      <point x="464.33907692307696" y="735.3513846153845" type="qcurve" smooth="yes"/>
      <point x="759.0787692307694" y="1456.0" type="line"/>
      <point x="799.1981538461538" y="1456.0" type="line"/>
      <point x="431.8904615384617" y="578.9950769230769" type="line"/>
      <point x="431.8904615384617" y="0.0" type="line"/>
    </contour>
  </outline>
</glyph>
<glyph name="Z" format="2">
  <advance width="827"/>
  <unicode hex="005A"/>
  <outline>
    <contour>
      <point x="36.52923076923077" y="0.0" type="line"/>
      <point x="36.52923076923077" y="20.87815384615383" type="line"/>
      <point x="720.0363076923076" y="1416.5821538461544" type="line"/>
      <point x="50.531076923076924" y="1416.5821538461544" type="line"/>
      <point x="50.531076923076924" y="1456.0" type="line"/>
      <point x="764.8984615384616" y="1456.0" type="line"/>
      <point x="764.8984615384616" y="1434.7224615384616" type="line"/>
      <point x="81.50646153846152" y="38.37784615384616" type="line"/>
      <point x="793.2356923076924" y="38.37784615384616" type="line"/>
      <point x="793.2356923076924" y="0.0" type="line"/>
    </contour>
  </outline>
</glyph>
<glyph name="bracketleft" format="2">
  <advance width="442"/>
  <unicode hex="005B"/>
  <outline>
    <contour>
      <point x="152.31076923076927" y="-310.0" type="line"/>
      <point x="152.31076923076927" y="1456.0" type="line"/>
      <point x="419.9033846153846" y="1456.0" type="line"/>
      <point x="419.9033846153846" y="1420.7575384615388" type="line"/>
      <point x="191.39815384615383" y="1420.7575384615388" type="line"/>
      <point x="191.39815384615383" y="-274.75753846153845" type="line"/>
      <point x="419.9033846153846" y="-274.75753846153845" type="line"/>
      <point x="419.9033846153846" y="-310.0" type="line"/>
    </contour>
  </outline>
</glyph>
<glyph name="backslash" format="2">
  <advance width="391"/>
  <unicode hex="005C"/>
  <outline>
    <contour>
      <point x="-75.58461538461538" y="1456.0" type="line"/>
      <point x="-35.126153846153855" y="1456.0" type="line"/>
      <point x="465.708923076923" y="-112.856" type="line"/>
      <point x="426.0375384615384" y="-112.856" type="line"/>
    </contour>
  </outline>
</glyph>
<glyph name="bracketright" format="2">
  <advance width="442"/>
  <unicode hex="005D"/>
  <outline>
    <contour>
      <point x="289.704" y="-310.0" type="line"/>
      <point x="22.11138461538463" y="-310.0" type="line"/>
      <point x="22.11138461538463" y="-274.75753846153845" type="line"/>
      <point x="250.6166153846154" y="-274.75753846153845" type="line"/>
      <point x="250.6166153846154" y="1420.7575384615388" type="line"/>
      <point x="22.11138461538463" y="1420.7575384615388" type="line"/>
      <point x="22.11138461538463" y="1456.0" type="line"/>
      <point x="289.704" y="1456.0" type="line"/>
    </contour>
  </outline>
</glyph>
<glyph name="asciicircum" format="2">
  <advance width="873"/>
  <unicode hex="005E"/>
  <outline>
    <contour>
      <point x="39.90153846153845" y="756.8990769230769" type="line"/>
      <point x="423.8055384615384" y="1450.2393846153848" type="line"/>
      <point x="450.43138461538456" y="1450.2393846153848" type="line"/>
      <point x="833.089846153846" y="756.8990769230769" type="line"/>
      <point x="781.8916923076924" y="756.8990769230769" type="line"/>
      <point x="437.3784615384616" y="1393.9175384615382" type="line"/>
      <point x="91.61969230769233" y="756.8990769230769" type="line"/>
    </contour>
  </outline>
</glyph>
<glyph name="underscore" format="2">
  <advance width="675"/>
  <unicode hex="005F"/>
  <outline>
    <contour>
      <point x="0.0" y="-42.0935384615385" type="line"/>
      <point x="0.0" y="-14.621538461538448" type="line"/>
      <point x="675.7759999999997" y="-14.621538461538448" type="line"/>
      <point x="675.7759999999997" y="-42.0935384615385" type="line"/>
    </contour>
  </outline>
</glyph>
<glyph name="grave" format="2">
  <advance width="875"/>
  <unicode hex="0060"/>
  <anchor x="471.2560000000001" y="1028.646153846154" name="_top"/>
  <outline>
    <contour>
      <point x="534.8559999999999" y="1156.3600000000004" type="line"/>
      <point x="300.9944615384614" y="1427.3735384615381" type="line"/>
      <point x="348.82153846153847" y="1455.6221538461537" type="line"/>
      <point x="558.4301538461539" y="1175.1015384615387" type="line"/>
    </contour>
  </outline>
</glyph>
<glyph name="a" format="2">
  <advance width="740"/>
  <unicode hex="0061"/>
  <anchor x="430.1476923076923" y="1028.6461538461535" name="top"/>
  <outline>
    <contour>
      <point x="89.42276923076922" y="278.82953846153845" type="qcurve" smooth="yes"/>
      <point x="89.42276923076922" y="423.5963076923077"/>
      <point x="237.23446153846152" y="585.812923076923"/>
      <point x="368.56184615384615" y="585.812923076923" type="qcurve" smooth="yes"/>
      <point x="562.7095384615384" y="585.812923076923" type="line"/>
      <point x="562.7095384615384" y="730.9593846153845" type="line" smooth="yes"/>
      <point x="562.7095384615384" y="862.3476923076923"/>
      <point x="476.1117202797202" y="1014.2861538461539"/>
      <point x="376.9864615384615" y="1014.2861538461539" type="qcurve" smooth="yes"/>
      <point x="273.6016816450875" y="1014.2861538461539"/>
      <point x="180.12738461538459" y="881.9181538461539"/>
      <point x="180.12738461538459" y="783.3796923076925" type="qcurve" smooth="yes"/>
      <point x="180.12738461538459" y="744.8492307692308" type="line"/>
      <point x="145.14030769230766" y="744.8492307692308" type="line"/>
      <point x="145.14030769230766" y="784.5156923076922" type="line" smooth="yes"/>
      <point x="145.14030769230766" y="897.3156923076925"/>
      <point x="259.7175384615384" y="1054.929846153846"/>
      <point x="375.42830769230767" y="1054.929846153846" type="qcurve" smooth="yes"/>
      <point x="483.14215384615386" y="1054.929846153846"/>
      <point x="600.8781538461537" y="893.366153846154"/>
      <point x="600.8781538461537" y="731.8867692307692" type="qcurve" smooth="yes"/>
      <point x="600.8781538461537" y="222.09538461538463" type="line" smooth="yes"/>
      <point x="600.8781538461537" y="156.97353846153842"/>
      <point x="619.857846153846" y="52.07323076923077"/>
      <point x="635.4399999999999" y="13.644307692307693" type="qcurve"/>
      <point x="635.4399999999999" y="0.0" type="line"/>
      <point x="602.396923076923" y="0.0" type="line"/>
      <point x="588.3821538461536" y="26.292307692307684"/>
      <point x="569.1095384615382" y="109.5796923076923"/>
      <point x="565.0916923076921" y="151.51015384615386" type="qcurve"/>
      <point x="536.9441287894739" y="93.29376742631598"/>
      <point x="405.3997598499063" y="-17.102769230769237"/>
      <point x="309.99753846153845" y="-17.102769230769237" type="qcurve" smooth="yes"/>
      <point x="204.81292307692308" y="-17.102769230769237"/>
      <point x="89.42276923076922" y="128.2006153846154"/>
    </contour>
    <contour>
      <point x="127.5913846153846" y="278.36800000000005" type="qcurve" smooth="yes"/>
      <point x="127.5913846153846" y="140.70707692307695"/>
      <point x="229.14351149881045" y="19.38092307692307"/>
      <point x="317.656" y="19.38092307692307" type="qcurve" smooth="yes"/>
      <point x="408.6078492935636" y="19.38092307692307"/>
      <point x="562.7095384615384" y="180.64307692307685"/>
      <point x="562.7095384615384" y="280.84246153846146" type="qcurve"/>
      <point x="562.7095384615384" y="543.8584615384616" type="line"/>
      <point x="379.9593846153846" y="543.8584615384616" type="line" smooth="yes"/>
      <point x="260.23906257473107" y="543.8584615384616"/>
      <point x="127.5913846153846" y="404.8664615384614"/>
    </contour>
  </outline>
</glyph>
<glyph name="b" format="2">
  <advance width="791"/>
  <unicode hex="0062"/>
  <outline>
    <contour>
      <point x="136.98092307692306" y="0.0" type="line"/>
      <point x="136.98092307692306" y="1522.4886153846153" type="line"/>
      <point x="175.1495384615385" y="1522.4886153846153" type="line"/>
      <point x="175.1495384615385" y="904.900923076923" type="line"/>
      <point x="209.81439592434134" y="966.0984573429307"/>
      <point x="335.8628216039279" y="1046.6221538461534"/>
      <point x="421.8436923076924" y="1046.6221538461534" type="qcurve" smooth="yes"/>
      <point x="555.0781538461538" y="1046.6221538461534"/>
      <point x="704.7710769230766" y="786.756923076923"/>
      <point x="704.7710769230766" y="582.6356923076924" type="qcurve" smooth="yes"/>
      <point x="704.7710769230766" y="447.17476923076924" type="line" smooth="yes"/>
      <point x="704.7710769230766" y="243.24307692307696"/>
      <point x="554.441846153846" y="-17.50892307692308"/>
      <point x="421.2953846153847" y="-17.50892307692308" type="qcurve" smooth="yes"/>
      <point x="335.4800230050323" y="-17.50892307692308"/>
      <point x="206.76034164267531" y="63.214744756658156"/>
      <point x="171.6935384615385" y="117.97169230769231" type="qcurve"/>
      <point x="172.9212307692308" y="117.97169230769231" type="line"/>
      <point x="172.59876923076925" y="0.0" type="line"/>
    </contour>
    <contour>
      <point x="175.1495384615385" y="174.15938461538462" type="line"/>
      <point x="199.3710265224403" y="107.52660224722463"/>
      <point x="319.8000900562852" y="18.998153846153834"/>
      <point x="407.0338461538462" y="18.998153846153834" type="qcurve" smooth="yes"/>
      <point x="536.4252026552128" y="18.998153846153834"/>
      <point x="666.7784615384616" y="263.2793846153846"/>
      <point x="666.7784615384616" y="446.78215384615396" type="qcurve" smooth="yes"/>
      <point x="666.7784615384616" y="583.1840000000001" type="line" smooth="yes"/>
      <point x="666.7784615384616" y="766.3550769230771"/>
      <point x="536.9464334244437" y="1010.1015384615383"/>
      <point x="407.5956923076924" y="1010.1015384615383" type="qcurve" smooth="yes"/>
      <point x="320.1927054409006" y="1010.1015384615383"/>
      <point x="200.6075760146573" y="909.5367974232522"/>
      <point x="175.1495384615385" y="837.7876923076926" type="qcurve"/>
    </contour>
  </outline>
</glyph>
<glyph name="c" format="2">
  <advance width="677"/>
  <unicode hex="0063"/>
  <anchor x="434.82461538461547" y="0" name="bottom"/>
  <outline>
    <contour>
      <point x="86.4953846153846" y="448.8196923076923" type="qcurve" smooth="yes"/>
      <point x="86.4953846153846" y="578.2966153846154" type="line" smooth="yes"/>
      <point x="86.4953846153846" y="791.2098461538461"/>
      <point x="240.64861538461545" y="1054.929846153846"/>
      <point x="379.5680000000001" y="1054.929846153846" type="qcurve" smooth="yes"/>
      <point x="508.0203076923075" y="1054.929846153846"/>
      <point x="632.4775384615384" y="859.9464615384614"/>
      <point x="632.4775384615384" y="730.2375384615386" type="qcurve" smooth="yes"/>
      <point x="632.4775384615384" y="690.4436923076922" type="line"/>
      <point x="597.544" y="690.4436923076922" type="line"/>
      <point x="597.544" y="729.926153846154" type="line" smooth="yes"/>
      <point x="597.544" y="845.393230769231"/>
      <point x="494.69546131020303" y="1018.4227692307692"/>
      <point x="379.55446153846157" y="1018.4227692307692" type="qcurve" smooth="yes"/>
      <point x="247.91664210727237" y="1018.4227692307692"/>
      <point x="124.50153846153847" y="766.4443076923076"/>
      <point x="124.50153846153847" y="578.756923076923" type="qcurve" smooth="yes"/>
      <point x="124.50153846153847" y="447.98030769230763" type="line" smooth="yes"/>
      <point x="124.50153846153847" y="262.2763076923077"/>
      <point x="248.4514113380416" y="10.690461538461529"/>
      <point x="379.62215384615394" y="10.690461538461529" type="qcurve" smooth="yes"/>
      <point x="494.2419228486646" y="10.690461538461529"/>
      <point x="597.6252307692307" y="183.1581538461539"/>
      <point x="597.6252307692307" y="301.33969230769236" type="qcurve" smooth="yes"/>
      <point x="597.6252307692307" y="339.70523076923087" type="line"/>
      <point x="632.5587692307693" y="339.70523076923087" type="line"/>
      <point x="632.5587692307693" y="300.7169230769231" type="line" smooth="yes"/>
      <point x="632.5587692307693" y="168.80123076923076"/>
      <point x="507.5532307692306" y="-25.816615384615382"/>
      <point x="379.62215384615394" y="-25.816615384615382" type="qcurve" smooth="yes"/>
      <point x="241.15630769230768" y="-25.816615384615382"/>
      <point x="86.4953846153846" y="237.84923076923067"/>
    </contour>
  </outline>
</glyph>
<glyph name="d" format="2">
  <advance width="791"/>
  <unicode hex="0064"/>
  <outline>
    <contour>
      <point x="87.42953846153844" y="447.1747692307692" type="qcurve" smooth="yes"/>
      <point x="87.42953846153844" y="582.6492307692308" type="line" smooth="yes"/>
      <point x="87.42953846153844" y="786.7433846153846"/>
      <point x="231.38892307692308" y="1046.6221538461534"/>
      <point x="364.63692307692304" y="1046.6221538461534" type="qcurve" smooth="yes"/>
      <point x="450.1298461538462" y="1046.6221538461534"/>
      <point x="576.1907692307691" y="971.878153846154"/>
      <point x="617.051076923077" y="910.0873846153847" type="qcurve"/>
      <point x="617.051076923077" y="1522.4886153846153" type="line"/>
      <point x="655.2196923076924" y="1522.4886153846153" type="line"/>
      <point x="655.2196923076924" y="0.0" type="line"/>
      <point x="619.6018461538459" y="0.0" type="line"/>
      <point x="619.2793846153843" y="118.09353846153844" type="line"/>
      <point x="617.8935384615384" y="113.41353846153844" type="line"/>
      <point x="578.603076923077" y="61.77661538461536"/>
      <point x="445.6824615384614" y="-17.373538461538462"/>
      <point x="359.98523076923084" y="-17.373538461538462" type="qcurve" smooth="yes"/>
      <point x="226.83876923076926" y="-17.373538461538462"/>
      <point x="87.42953846153844" y="243.35138461538466"/>
    </contour>
    <contour>
      <point x="125.42215384615389" y="446.7686153846154" type="line" smooth="yes"/>
      <point x="125.42215384615389" y="263.41476923076925"/>
      <point x="238.12307692307692" y="19.133538461538468"/>
      <point x="367.4867692307692" y="19.133538461538468" type="qcurve" smooth="yes"/>
      <point x="455.2812307692307" y="19.133538461538468"/>
      <point x="589.1261538461539" y="111.58461538461535"/>
      <point x="617.051076923077" y="172.7347692307693" type="qcurve"/>
      <point x="617.051076923077" y="842.9876923076924" type="line"/>
      <point x="589.5704615384614" y="914.4744615384616"/>
      <point x="461.12861538461533" y="1010.1015384615383"/>
      <point x="373.16492307692306" y="1010.1015384615383" type="qcurve" smooth="yes"/>
      <point x="243.84184615384612" y="1010.1015384615383"/>
      <point x="125.42215384615389" y="766.3550769230769"/>
      <point x="125.42215384615389" y="583.1839999999999" type="qcurve" smooth="yes"/>
    </contour>
  </outline>
</glyph>
<glyph name="e" format="2">
  <advance width="697"/>
  <unicode hex="0065"/>
  <anchor x="427.7655384615385" y="1029.4769230769232" name="top"/>
  <outline>
    <contour>
      <point x="86.4953846153846" y="448.8196923076923" type="qcurve" smooth="yes"/>
      <point x="86.4953846153846" y="578.7636923076924" type="line" smooth="yes"/>
      <point x="86.4953846153846" y="790.6480000000003"/>
      <point x="238.83569230769226" y="1054.929846153846"/>
      <point x="369.1963076923077" y="1054.929846153846" type="qcurve" smooth="yes"/>
      <point x="496.10953846153836" y="1054.929846153846"/>
      <point x="625.5329230769229" y="807.9335384615382"/>
      <point x="625.5329230769229" y="597.6436923076924" type="qcurve" smooth="yes"/>
      <point x="625.5329230769229" y="531.5809230769231" type="line"/>
      <point x="92.3483076923077" y="531.5809230769231" type="line"/>
      <point x="91.3083076923077" y="570.574769230769" type="line"/>
      <point x="587.1649230769231" y="570.574769230769" type="line"/>
      <point x="586.4006153846153" y="597.012923076923" type="line"/>
      <point x="587.684923076923" y="770.0535384615381"/>
      <point x="505.9451217582419" y="1018.4227692307692"/>
      <point x="358.92184615384616" y="1018.4227692307692" type="qcurve" smooth="yes"/>
      <point x="245.49809610440974" y="1018.4227692307692"/>
      <point x="121.02399999999997" y="768.4313846153847"/>
      <point x="121.02399999999997" y="578.2898461538462" type="qcurve" smooth="yes"/>
      <point x="121.02399999999997" y="448.048" type="line" smooth="yes"/>
      <point x="121.02399999999997" y="260.2418461538462"/>
      <point x="252.79855456171722" y="10.690461538461552"/>
      <point x="393.6996923076924" y="10.690461538461552" type="qcurve" smooth="yes"/>
      <point x="463.4731790957134" y="10.690461538461552"/>
      <point x="558.016" y="87.91199999999998"/>
      <point x="595.1975384615386" y="153.58153846153843" type="qcurve"/>
      <point x="625.5735384615383" y="125.47015384615386" type="line"/>
      <point x="592.6393846153846" y="64.97846153846154"/>
      <point x="479.3390769230771" y="-25.816615384615382"/>
      <point x="393.6726153846155" y="-25.816615384615382" type="qcurve" smooth="yes"/>
      <point x="242.99015384615387" y="-25.816615384615382"/>
      <point x="86.4953846153846" y="237.84246153846146"/>
    </contour>
  </outline>
</glyph>
<glyph name="f" format="2">
  <advance width="403"/>
  <unicode hex="0066"/>
  <outline>
    <contour>
      <point x="168.41969230769223" y="0.0" type="line"/>
      <point x="168.41969230769223" y="1215.1076923076919" type="line" smooth="yes"/>
      <point x="168.41969230769223" y="1376.6737977528092"/>
      <point x="278.69087094194794" y="1542.332923076923"/>
      <point x="373.86092307692314" y="1542.332923076923" type="qcurve" smooth="yes"/>
      <point x="397.08738461538456" y="1542.332923076923"/>
      <point x="445.7932307692307" y="1533.6036923076922"/>
      <point x="465.2584615384614" y="1528.2418461538457" type="qcurve"/>
      <point x="456.6227692307692" y="1496.1310769230774" type="line"/>
      <point x="442.5243076923075" y="1501.1489230769234"/>
      <point x="394.70153846153846" y="1510.4000000000003"/>
      <point x="371.11630769230777" y="1510.4000000000003" type="qcurve" smooth="yes"/>
      <point x="293.26732307692316" y="1510.4000000000003"/>
      <point x="206.58830769230772" y="1363.569846153846"/>
      <point x="206.58830769230772" y="1213.8824615384615" type="qcurve" smooth="yes"/>
      <point x="206.58830769230772" y="1014.5335384615387" type="line"/>
      <point x="206.58830769230772" y="1006.3236923076923" type="line"/>
      <point x="206.58830769230772" y="0.0" type="line"/>
    </contour>
    <contour>
      <point x="22.109538461538463" y="991.6775384615381" type="line"/>
      <point x="22.109538461538463" y="1028.6461538461535" type="line"/>
      <point x="183.8750769230769" y="1028.6461538461535" type="line"/>
      <point x="190.61476923076924" y="1028.6461538461535" type="line"/>
      <point x="400.9249230769231" y="1028.6461538461535" type="line"/>
      <point x="400.9249230769231" y="991.6775384615381" type="line"/>
    </contour>
  </outline>
</glyph>
<glyph name="g" format="2">
  <advance width="791"/>
  <unicode hex="0067"/>
  <outline>
    <contour>
      <point x="107.8806153846154" y="-348.89292307692295" type="qcurve"/>
      <point x="130.37230769230763" y="-310.44492307692315" type="line"/>
      <point x="166.6504615384615" y="-345.3464615384616"/>
      <point x="283.6166153846154" y="-393.9821538461539"/>
      <point x="361.6541538461538" y="-393.9821538461539" type="qcurve" smooth="yes"/>
      <point x="469.1216919182083" y="-393.9821538461539"/>
      <point x="616.1169230769232" y="-203.43384615384613"/>
      <point x="616.1169230769232" y="-22.057230769230774" type="qcurve" smooth="yes"/>
      <point x="616.1169230769232" y="112.35815384615384" type="line"/>
      <point x="573.972923076923" y="55.579692307692305"/>
      <point x="439.73538461538465" y="-17.50892307692308"/>
      <point x="353.85107692307696" y="-17.50892307692308" type="qcurve" smooth="yes"/>
      <point x="220.70461538461547" y="-17.50892307692308"/>
      <point x="86.4953846153846" y="243.2295384615385"/>
      <point x="86.4953846153846" y="447.1747692307692" type="qcurve" smooth="yes"/>
      <point x="86.4953846153846" y="582.6356923076922" type="line" smooth="yes"/>
      <point x="86.4953846153846" y="786.7433846153846"/>
      <point x="225.25476923076926" y="1046.6221538461534"/>
      <point x="358.50276923076916" y="1046.6221538461534" type="qcurve" smooth="yes"/>
      <point x="452.1827692307693" y="1046.6221538461534"/>
      <point x="587.6246153846155" y="961.7095384615385"/>
      <point x="619.5593846153846" y="899.2873846153848" type="qcurve"/>
      <point x="618.8652307692306" y="899.2873846153848" type="line"/>
      <point x="618.6676923076922" y="1028.6461538461535" type="line"/>
      <point x="654.2855384615385" y="1028.6461538461535" type="line"/>
      <point x="654.2855384615385" y="-22.991384615384618" type="line" smooth="yes"/>
      <point x="654.2855384615385" y="-223.6516923076923"/>
      <point x="484.12184615384615" y="-434.3076923076922"/>
      <point x="355.0209230769231" y="-434.3076923076922" type="qcurve" smooth="yes"/>
      <point x="278.0221538461539" y="-434.3076923076922"/>
      <point x="152.95015384615382" y="-388.1335384615384"/>
    </contour>
    <contour>
      <point x="124.48800000000004" y="446.7686153846154" type="line" smooth="yes"/>
      <point x="124.48800000000004" y="263.2793846153847"/>
      <point x="238.22892307692305" y="18.998153846153855"/>
      <point x="367.5926153846154" y="18.998153846153855" type="qcurve" smooth="yes"/>
      <point x="455.3870769230768" y="18.998153846153855"/>
      <point x="585.3606153846151" y="116.80492307692306"/>
      <point x="616.1169230769232" y="177.7993846153846" type="qcurve"/>
      <point x="616.1169230769232" y="842.9876923076924" type="line"/>
      <point x="588.5033846153847" y="912.3944615384615"/>
      <point x="460.7144615384615" y="1010.1015384615383"/>
      <point x="372.7507692307692" y="1010.1015384615383" type="qcurve" smooth="yes"/>
      <point x="249.14769230769232" y="1010.1015384615383"/>
      <point x="124.48800000000004" y="766.3550769230769"/>
      <point x="124.48800000000004" y="583.1839999999999" type="qcurve" smooth="yes"/>
    </contour>
  </outline>
</glyph>
<glyph name="h" format="2">
  <advance width="772"/>
  <unicode hex="0068"/>
  <outline>
    <contour>
      <point x="136.98092307692306" y="0.0" type="line"/>
      <point x="136.98092307692306" y="1522.4344615384616" type="line"/>
      <point x="175.1495384615385" y="1522.4344615384616" type="line"/>
      <point x="175.1495384615385" y="892.1532307692306" type="line"/>
      <point x="214.6646153846154" y="957.819076923077"/>
      <point x="334.48799999999994" y="1046.6221538461534"/>
      <point x="426.8935384615384" y="1046.6221538461534" type="qcurve" smooth="yes"/>
      <point x="518.3292307692307" y="1046.6221538461534"/>
      <point x="643.3070769230768" y="920.5304615384615"/>
      <point x="643.3070769230768" y="773.5999999999999" type="qcurve" smooth="yes"/>
      <point x="643.3070769230768" y="0.0" type="line"/>
      <point x="605.644923076923" y="0.0" type="line"/>
      <point x="605.644923076923" y="774.896" type="line" smooth="yes"/>
      <point x="605.644923076923" y="900.5396923076921"/>
      <point x="497.7827692307692" y="1010.8559999999999"/>
      <point x="424.296" y="1010.8559999999999" type="qcurve" smooth="yes"/>
      <point x="332.93415384615383" y="1010.8559999999999"/>
      <point x="210.01661538461533" y="901.3833846153847"/>
      <point x="175.1495384615385" y="833.8221538461539" type="qcurve"/>
      <point x="175.1495384615385" y="0.0" type="line"/>
    </contour>
  </outline>
</glyph>
<glyph name="i" format="2">
  <advance width="348"/>
  <unicode hex="0069"/>
  <outline>
    <contour>
      <point x="154.96061538461538" y="0.0" type="line"/>
      <point x="154.96061538461538" y="1028.6461538461535" type="line"/>
      <point x="193.1292307692308" y="1028.6461538461535" type="line"/>
      <point x="193.1292307692308" y="0.0" type="line"/>
    </contour>
    <contour>
      <point x="146.47199999999998" y="1386.344615384615" type="qcurve" smooth="yes"/>
      <point x="146.47199999999998" y="1406.225846153846"/>
      <point x="161.13661538461534" y="1432.8418461538463"/>
      <point x="174.0584615384615" y="1432.8418461538463" type="qcurve" smooth="yes"/>
      <point x="186.98030769230766" y="1432.8418461538463"/>
      <point x="201.63138461538458" y="1406.225846153846"/>
      <point x="201.63138461538458" y="1386.344615384615" type="qcurve" smooth="yes"/>
      <point x="201.63138461538458" y="1366.2941538461541"/>
      <point x="187.12246153846155" y="1339.6781538461541"/>
      <point x="174.0449230769231" y="1339.6781538461541" type="qcurve" smooth="yes"/>
      <point x="160.96738461538462" y="1339.6781538461541"/>
      <point x="146.47199999999998" y="1366.2941538461541"/>
    </contour>
  </outline>
</glyph>
<glyph name="j" format="2">
  <advance width="347"/>
  <unicode hex="006A"/>
  <outline>
    <contour>
      <point x="-56.84492307692308" y="-417.70461538461535" type="qcurve"/>
      <point x="-56.37784615384615" y="-367.84061538461543" type="line"/>
      <point x="-40.96738461538462" y="-373.3421538461539"/>
      <point x="7.032000000000004" y="-384.7895384615385"/>
      <point x="30.931692307692312" y="-384.7895384615385" type="qcurve" smooth="yes"/>
      <point x="87.32369230769228" y="-384.7895384615385"/>
      <point x="154.1292307692307" y="-281.95852307692314"/>
      <point x="154.1292307692307" y="-160.06215384615385" type="qcurve" smooth="yes"/>
      <point x="154.1292307692307" y="1028.6461538461535" type="line"/>
      <point x="192.29784615384614" y="1028.6461538461535" type="line"/>
      <point x="192.29784615384614" y="-128.2123076923077" type="line" smooth="yes"/>
      <point x="192.29784615384614" y="-288.41230769230765"/>
      <point x="97.12560323886639" y="-436.15569230769233"/>
      <point x="26.526769230769244" y="-436.15569230769233" type="qcurve" smooth="yes"/>
      <point x="4.3425671641791155" y="-436.15569230769233"/>
      <point x="-47.505151504383534" y="-423.5417961511991"/>
    </contour>
    <contour>
      <point x="144.87569230769233" y="1386.344615384615" type="qcurve" smooth="yes"/>
      <point x="144.87569230769233" y="1406.225846153846"/>
      <point x="159.54030769230766" y="1432.8418461538463"/>
      <point x="172.46215384615383" y="1432.8418461538463" type="qcurve" smooth="yes"/>
      <point x="185.38400000000001" y="1432.8418461538463"/>
      <point x="200.0350769230769" y="1406.225846153846"/>
      <point x="200.0350769230769" y="1386.344615384615" type="qcurve" smooth="yes"/>
      <point x="200.0350769230769" y="1366.2941538461541"/>
      <point x="185.5261538461539" y="1339.6781538461541"/>
      <point x="172.44861538461535" y="1339.6781538461541" type="qcurve" smooth="yes"/>
      <point x="159.37107692307686" y="1339.6781538461541"/>
      <point x="144.87569230769233" y="1366.2941538461541"/>
    </contour>
  </outline>
</glyph>
<glyph name="k" format="2">
  <advance width="690"/>
  <unicode hex="006B"/>
  <outline>
    <contour>
      <point x="136.98092307692306" y="0.0" type="line"/>
      <point x="136.98092307692306" y="1522.4886153846153" type="line"/>
      <point x="175.1495384615385" y="1522.4886153846153" type="line"/>
      <point x="175.1495384615385" y="507.6572307692309" type="line"/>
      <point x="587.5956923076924" y="1028.6461538461535" type="line"/>
      <point x="644.2252307692306" y="1028.6461538461535" type="line"/>
      <point x="174.88369230769231" y="443.29599999999994" type="line"/>
      <point x="174.88369230769231" y="3.5809230769230775" type="line"/>
    </contour>
    <contour>
      <point x="644.6486153846154" y="0.0" type="line"/>
      <point x="281.9501538461538" y="576.7286153846154" type="line"/>
      <point x="308.7575384615384" y="637.3600000000001" type="line"/>
      <point x="693.0707692307693" y="0.0" type="line"/>
    </contour>
  </outline>
</glyph>
<glyph name="l" format="2">
  <advance width="347"/>
  <unicode hex="006C"/>
  <outline>
    <contour>
      <point x="154.1704615384615" y="0.0" type="line"/>
      <point x="154.1704615384615" y="1522.4886153846153" type="line"/>
      <point x="192.3390769230769" y="1522.4886153846153" type="line"/>
      <point x="192.3390769230769" y="0.0" type="line"/>
    </contour>
  </outline>
</glyph>
<glyph name="m" format="2">
  <advance width="1184"/>
  <unicode hex="006D"/>
  <outline>
    <contour>
      <point x="136.98092307692306" y="0.0" type="line"/>
      <point x="136.98092307692306" y="1028.6461538461535" type="line"/>
      <point x="172.44307692307692" y="1028.6461538461535" type="line"/>
      <point x="172.24553846153847" y="900.3575384615383" type="line"/>
      <point x="171.6935384615385" y="900.3575384615383" type="line"/>
      <point x="211.11199999999997" y="968.724923076923"/>
      <point x="332.43999999999994" y="1046.4799999999998"/>
      <point x="409.19076923076926" y="1046.466461538461" type="qcurve" smooth="yes"/>
      <point x="484.9230769230768" y="1046.4529230769226"/>
      <point x="589.9556923076923" y="961.796923076923"/>
      <point x="606.1323076923076" y="887.6775384615383" type="qcurve"/>
      <point x="605.2067692307693" y="887.6775384615383" type="line"/>
      <point x="639.4137827179436" y="955.8745426199037"/>
      <point x="771.8326153846151" y="1046.6221538461534"/>
      <point x="851.5809230769232" y="1046.6221538461534" type="qcurve" smooth="yes"/>
      <point x="940.9894111405837" y="1046.6221538461534"/>
      <point x="1056.416" y="923.0086153846155"/>
      <point x="1056.416" y="779.3335384615384" type="qcurve" smooth="yes"/>
      <point x="1056.416" y="0.0" type="line"/>
      <point x="1018.247384615384" y="0.0" type="line"/>
      <point x="1018.247384615384" y="780.616" type="line" smooth="yes"/>
      <point x="1017.0843076923076" y="903.0449230769232"/>
      <point x="921.8732307692306" y="1010.8559999999999"/>
      <point x="837.9753846153845" y="1010.8559999999999" type="qcurve" smooth="yes"/>
      <point x="763.0233846153844" y="1010.8559999999999"/>
      <point x="650.9698461538461" y="914.6443076923077"/>
      <point x="615.7827692307692" y="842.6486153846151" type="qcurve"/>
      <point x="615.7827692307692" y="0.0" type="line"/>
      <point x="577.6141538461537" y="0.0" type="line"/>
      <point x="577.6141538461537" y="781.2658461538463" type="line" smooth="yes"/>
      <point x="576.4510769230769" y="903.2886153846155"/>
      <point x="480.52984615384605" y="1010.8559999999999"/>
      <point x="396.7132307692308" y="1010.8559999999999" type="qcurve" smooth="yes"/>
      <point x="322.03261538461544" y="1010.8559999999999"/>
      <point x="209.8566153846154" y="914.915076923077"/>
      <point x="175.1495384615385" y="842.6486153846151" type="qcurve"/>
      <point x="175.1495384615385" y="0.0" type="line"/>
    </contour>
  </outline>
</glyph>
<glyph name="n" format="2">
  <advance width="772"/>
  <unicode hex="006E"/>
  <anchor x="461.87323076923076" y="1028.6461538461535" name="top"/>
  <outline>
    <contour>
      <point x="136.98092307692306" y="0.0" type="line"/>
      <point x="136.98092307692306" y="1028.6461538461535" type="line"/>
      <point x="172.44307692307692" y="1028.6461538461535" type="line"/>
      <point x="172.76553846153845" y="897.1969230769229" type="line"/>
      <point x="171.1735384615385" y="897.1969230769229" type="line"/>
      <point x="212.6707692307692" y="967.521230769231"/>
      <point x="345.947771167048" y="1046.6221538461534"/>
      <point x="427.41353846153834" y="1046.6221538461534" type="qcurve" smooth="yes"/>
      <point x="524.5692307692307" y="1046.6221538461534"/>
      <point x="643.3070769230768" y="920.5546447445683"/>
      <point x="643.3070769230768" y="773.5999999999999" type="qcurve" smooth="yes"/>
      <point x="643.3070769230768" y="0.0" type="line"/>
      <point x="605.644923076923" y="0.0" type="line"/>
      <point x="605.644923076923" y="774.896" type="line" smooth="yes"/>
      <point x="605.644923076923" y="901.3756936170209"/>
      <point x="502.22161564537157" y="1010.8559999999999"/>
      <point x="409.73599999999993" y="1010.8559999999999" type="qcurve" smooth="yes"/>
      <point x="329.86130812204556" y="1010.8559999999999"/>
      <point x="211.53841318550073" y="913.8892938242409"/>
      <point x="175.1495384615385" y="839.0221538461539" type="qcurve"/>
      <point x="175.1495384615385" y="0.0" type="line"/>
    </contour>
  </outline>
</glyph>
<glyph name="o" format="2">
  <advance width="779"/>
  <unicode hex="006F"/>
  <anchor x="446.98338461538464" y="1028.6461538461535" name="top"/>
  <outline>
    <contour>
      <point x="86.4953846153846" y="448.8196923076923" type="qcurve" smooth="yes"/>
      <point x="86.4953846153846" y="578.2966153846154" type="line" smooth="yes"/>
      <point x="86.4953846153846" y="791.1556923076923"/>
      <point x="250.45600000000002" y="1054.929846153846"/>
      <point x="389.5273846153846" y="1054.929846153846" type="qcurve" smooth="yes"/>
      <point x="528.9643076923078" y="1054.929846153846"/>
      <point x="693.5064615384615" y="791.1421538461539"/>
      <point x="693.5064615384615" y="578.1273846153846" type="qcurve" smooth="yes"/>
      <point x="693.5064615384615" y="448.8196923076923" type="line" smooth="yes"/>
      <point x="693.5064615384615" y="238.1132307692307"/>
      <point x="528.1926153846152" y="-25.816615384615382"/>
      <point x="389.540923076923" y="-25.816615384615382" type="qcurve" smooth="yes"/>
      <point x="251.04492307692306" y="-25.816615384615382"/>
      <point x="86.4953846153846" y="237.9981538461538"/>
    </contour>
    <contour>
      <point x="124.5015384615385" y="578.756923076923" type="qcurve" smooth="yes"/>
      <point x="124.5015384615385" y="447.98030769230763" type="line" smooth="yes"/>
      <point x="124.5015384615385" y="246.8116923076923"/>
      <point x="259.90215384615385" y="10.690461538461541"/>
      <point x="389.6966153846154" y="10.690461538461541" type="qcurve" smooth="yes"/>
      <point x="519.5181538461537" y="10.690461538461541"/>
      <point x="655.5273846153846" y="246.7981538461539"/>
      <point x="655.5273846153846" y="447.9938461538461" type="qcurve" smooth="yes"/>
      <point x="655.5273846153846" y="578.756923076923" type="line" smooth="yes"/>
      <point x="655.5273846153846" y="776.945846153846"/>
      <point x="520.134153846154" y="1018.422769230769"/>
      <point x="389.5273846153846" y="1018.422769230769" type="qcurve" smooth="yes"/>
      <point x="260.0504615384615" y="1018.422769230769"/>
      <point x="124.5015384615385" y="776.7901538461539"/>
    </contour>
  </outline>
</glyph>
<glyph name="p" format="2">
  <advance width="791"/>
  <unicode hex="0070"/>
  <outline>
    <contour>
      <point x="131.7809230769231" y="-416.3790769230769" type="line"/>
      <point x="131.7809230769231" y="1028.6461538461535" type="line"/>
      <point x="167.39876923076923" y="1028.6461538461535" type="line"/>
      <point x="167.7212307692308" y="904.5144615384617" type="line"/>
      <point x="166.50707692307697" y="904.5144615384617" type="line"/>
      <point x="201.04184615384617" y="962.2295384615385"/>
      <point x="335.9636923076923" y="1046.6221538461534"/>
      <point x="421.8436923076924" y="1046.6221538461534" type="qcurve" smooth="yes"/>
      <point x="555.0781538461538" y="1046.6221538461534"/>
      <point x="704.7710769230766" y="786.756923076923"/>
      <point x="704.7710769230766" y="582.6356923076921" type="qcurve" smooth="yes"/>
      <point x="704.7710769230766" y="447.1747692307693" type="line" smooth="yes"/>
      <point x="704.7710769230766" y="243.24307692307693"/>
      <point x="554.4553846153846" y="-17.50892307692308"/>
      <point x="421.2818461538462" y="-17.50892307692308" type="qcurve" smooth="yes"/>
      <point x="335.4246153846152" y="-17.50892307692308"/>
      <point x="210.32492307692306" y="53.03261538461539"/>
      <point x="169.9495384615385" y="107.15815384615385" type="qcurve"/>
      <point x="169.9495384615385" y="-416.3790769230769" type="line"/>
    </contour>
    <contour>
      <point x="169.9495384615385" y="172.59938461538462" type="line"/>
      <point x="197.22153846153847" y="111.44923076923075"/>
      <point x="319.7458461538461" y="18.998153846153834"/>
      <point x="407.0338461538462" y="18.998153846153834" type="qcurve" smooth="yes"/>
      <point x="536.3975384615386" y="18.998153846153834"/>
      <point x="666.7784615384616" y="263.29292307692305"/>
      <point x="666.7784615384616" y="446.78215384615385" type="qcurve" smooth="yes"/>
      <point x="666.7784615384616" y="583.1839999999997" type="line" smooth="yes"/>
      <point x="666.7784615384616" y="766.3550769230769"/>
      <point x="536.9187692307693" y="1010.1015384615383"/>
      <point x="407.5956923076924" y="1010.1015384615383" type="qcurve" smooth="yes"/>
      <point x="320.15200000000004" y="1010.1015384615383"/>
      <point x="197.56307692307698" y="913.9544615384616"/>
      <point x="169.9495384615385" y="848.1876923076925" type="qcurve"/>
    </contour>
  </outline>
</glyph>
<glyph name="q" format="2">
  <advance width="791"/>
  <unicode hex="0071"/>
  <outline>
    <contour>
      <point x="87.42953846153844" y="447.1747692307692" type="qcurve" smooth="yes"/>
      <point x="87.42953846153844" y="582.6492307692308" type="line" smooth="yes"/>
      <point x="87.42953846153844" y="786.7433846153846"/>
      <point x="221.05538461538467" y="1046.6221538461534"/>
      <point x="354.36984615384614" y="1046.6221538461534" type="qcurve" smooth="yes"/>
      <point x="440.2664615384616" y="1046.6221538461534"/>
      <point x="584.7692307692307" y="962.4289230769233"/>
      <point x="619.1015384615383" y="904.3212307692307" type="qcurve"/>
      <point x="618.5052307692309" y="904.3212307692307" type="line"/>
      <point x="618.3624615384615" y="1028.6461538461535" type="line"/>
      <point x="654.512" y="1028.6461538461535" type="line"/>
      <point x="654.512" y="-416.2233846153846" type="line"/>
      <point x="615.7784615384616" y="-416.2233846153846" type="line"/>
      <point x="615.7784615384616" y="107.45969230769228" type="line"/>
      <point x="615.7784615384616" y="107.45969230769228" type="line"/>
      <point x="575.2929230769229" y="53.101538461538446"/>
      <point x="440.63199999999983" y="-17.373538461538462"/>
      <point x="354.91815384615387" y="-17.373538461538462" type="qcurve" smooth="yes"/>
      <point x="221.70523076923084" y="-17.373538461538462"/>
      <point x="87.42953846153844" y="243.35138461538466"/>
    </contour>
    <contour>
      <point x="125.42215384615389" y="446.7686153846154" type="line" smooth="yes"/>
      <point x="125.42215384615389" y="263.41476923076925"/>
      <point x="239.16307692307691" y="19.133538461538468"/>
      <point x="368.5267692307692" y="19.133538461538468" type="qcurve" smooth="yes"/>
      <point x="456.3212307692306" y="19.133538461538468"/>
      <point x="588.219076923077" y="111.58461538461535"/>
      <point x="616.0110769230768" y="172.7347692307693" type="qcurve"/>
      <point x="616.0110769230768" y="848.1876923076925" type="line"/>
      <point x="588.3975384615384" y="913.9544615384615"/>
      <point x="455.9286153846153" y="1010.1015384615383"/>
      <point x="367.96492307692307" y="1010.1015384615383" type="qcurve" smooth="yes"/>
      <point x="238.64184615384616" y="1010.1015384615383"/>
      <point x="125.42215384615389" y="766.3550769230769"/>
      <point x="125.42215384615389" y="583.1839999999999" type="qcurve" smooth="yes"/>
    </contour>
  </outline>
</glyph>
<glyph name="r" format="2">
  <advance width="495"/>
  <unicode hex="0072"/>
  <outline>
    <contour>
      <point x="136.98092307692306" y="0.0" type="line"/>
      <point x="136.98092307692306" y="1028.6461538461535" type="line"/>
      <point x="172.44307692307692" y="1028.6461538461535" type="line"/>
      <point x="172.24553846153847" y="909.0473846153845" type="line"/>
      <point x="171.55138461538465" y="909.0473846153845" type="line"/>
      <point x="205.9186198656909" y="969.2529736552159"/>
      <point x="318.26605883634784" y="1054.929846153846"/>
      <point x="395.0319999999999" y="1054.929846153846" type="qcurve" smooth="yes"/>
      <point x="415.6030769230769" y="1054.929846153846"/>
      <point x="457.10953846153836" y="1045.836923076923"/>
      <point x="465.80061538461547" y="1042.1347692307688" type="qcurve"/>
      <point x="465.80061538461547" y="1009.5735384615384" type="line"/>
      <point x="448.43753846153834" y="1013.4313846153843"/>
      <point x="410.15630769230773" y="1020.8393846153847"/>
      <point x="387.8541538461538" y="1020.8393846153847" type="qcurve" smooth="yes"/>
      <point x="318.3830153846155" y="1020.8393846153847"/>
      <point x="205.0410247218432" y="921.827495138485"/>
      <point x="175.16307692307694" y="846.6904615384617" type="qcurve"/>
      <point x="175.16307692307694" y="0.0" type="line"/>
    </contour>
  </outline>
</glyph>
<glyph name="s" format="2">
  <advance width="658"/>
  <unicode hex="0073"/>
  <outline>
    <contour>
      <point x="74.08984615384615" y="304.8689230769231" type="line"/>
      <point x="112.25846153846152" y="304.8689230769231" type="line"/>
      <point x="112.25846153846152" y="275.1815384615384" type="line" smooth="yes"/>
      <point x="112.25846153846152" y="140.55569230769225"/>
      <point x="231.31165894346614" y="7.646769230769232"/>
      <point x="328.58276923076926" y="7.633230769230761" type="qcurve" smooth="yes"/>
      <point x="426.3777880986938" y="7.619692307692307"/>
      <point x="533.4264615384614" y="136.15138461538461"/>
      <point x="533.4264615384614" y="250.52" type="qcurve" smooth="yes"/>
      <point x="533.4264615384614" y="360.95938461538464"/>
      <point x="439.23630769230755" y="475.41538461538465"/>
      <point x="324.6018461538461" y="521.5033846153847" type="qcurve" smooth="yes"/>
      <point x="209.99569230769225" y="566.6301538461537"/>
      <point x="110.368" y="694.3864615384618"/>
      <point x="110.368" y="796.0726153846153" type="qcurve" smooth="yes"/>
      <point x="110.368" y="917.7723076923077"/>
      <point x="238.68307692307695" y="1054.929846153846"/>
      <point x="341.51384615384615" y="1054.929846153846" type="qcurve" smooth="yes"/>
      <point x="445.2978461538461" y="1054.929846153846"/>
      <point x="571.016" y="887.5612307692307"/>
      <point x="571.1107692307693" y="756.6584615384614" type="qcurve" smooth="yes"/>
      <point x="571.1107692307693" y="731.0596923076921" type="line"/>
      <point x="533.1581538461538" y="731.0596923076921" type="line"/>
      <point x="533.1581538461538" y="750.6750769230767" type="line" smooth="yes"/>
      <point x="533.1581538461538" y="880.0726153846152"/>
      <point x="430.4841138040042" y="1021.48"/>
      <point x="341.5003076923078" y="1021.48" type="qcurve" smooth="yes"/>
      <point x="253.6909486273445" y="1021.48"/>
      <point x="149.5550769230769" y="906.2073846153846"/>
      <point x="149.5550769230769" y="804.3803076923075" type="qcurve" smooth="yes"/>
      <point x="149.5550769230769" y="708.4984615384616"/>
      <point x="230.96061538461535" y="595.9876923076926"/>
      <point x="345.6953846153846" y="550.7187692307693" type="qcurve" smooth="yes"/>
      <point x="460.68061538461535" y="504.7999999999998"/>
      <point x="574.9280000000001" y="375.38769230769225"/>
      <point x="574.9280000000001" y="258.67199999999997" type="qcurve" smooth="yes"/>
      <point x="574.9280000000001" y="126.0276923076923"/>
      <point x="452.7803076923077" y="-25.816615384615382"/>
      <point x="328.73846153846165" y="-25.816615384615382" type="qcurve" smooth="yes"/>
      <point x="204.25353846153845" y="-25.816615384615382"/>
      <point x="74.08984615384615" y="134.79076923076926"/>
      <point x="74.08984615384615" y="275.8043076923077" type="qcurve" smooth="yes"/>
    </contour>
  </outline>
</glyph>
<glyph name="t" format="2">
  <advance width="451"/>
  <unicode hex="0074"/>
  <outline>
    <contour>
      <point x="8.374153846153845" y="991.6775384615381" type="line"/>
      <point x="8.374153846153845" y="1028.6461538461535" type="line"/>
      <point x="402.14215384615375" y="1028.6461538461535" type="line"/>
      <point x="402.14215384615375" y="991.6775384615381" type="line"/>
    </contour>
    <contour>
      <point x="166.30707692307695" y="237.00492307692303" type="qcurve" smooth="yes"/>
      <point x="166.30707692307695" y="1006.2732307692307" type="line"/>
      <point x="166.30707692307695" y="1014.0369230769229" type="line"/>
      <point x="166.30707692307695" y="1274.7692307692312" type="line"/>
      <point x="204.48923076923074" y="1274.7692307692312" type="line"/>
      <point x="204.48923076923074" y="237.35692307692304" type="line" smooth="yes"/>
      <point x="204.48923076923074" y="113.61353846153847"/>
      <point x="261.056" y="9.297230769230762"/>
      <point x="321.09169230769237" y="9.297230769230762" type="qcurve" smooth="yes"/>
      <point x="340.8381538461539" y="9.297230769230762"/>
      <point x="377.29661538461534" y="19.139076923076907"/>
      <point x="393.86461538461543" y="27.203692307692293" type="qcurve"/>
      <point x="394.17600000000004" y="-8.539076923076921" type="line"/>
      <point x="379.6721916577091" y="-15.144373849225001"/>
      <point x="339.1983006351446" y="-25.97230769230769"/>
      <point x="313.7070769230769" y="-25.97230769230769" type="qcurve" smooth="yes"/>
      <point x="244.7450688259108" y="-25.97230769230769"/>
      <point x="166.30707692307695" y="99.93415384615386"/>
    </contour>
  </outline>
</glyph>
<glyph name="u" format="2">
  <advance width="772"/>
  <unicode hex="0075"/>
  <anchor x="432.68430769230775" y="1028.6461538461535" name="top"/>
  <outline>
    <contour>
      <point x="122.85046153846159" y="255.04615384615374" type="qcurve" smooth="yes"/>
      <point x="122.85046153846159" y="1028.6461538461535" type="line"/>
      <point x="161.0326153846154" y="1028.6461538461535" type="line"/>
      <point x="161.0326153846154" y="253.75015384615375" type="line" smooth="yes"/>
      <point x="161.0326153846154" y="128.10646153846156"/>
      <point x="261.2172307692307" y="17.790153846153853"/>
      <point x="352.9353846153846" y="17.790153846153853" type="qcurve" smooth="yes"/>
      <point x="433.62153846153836" y="17.790153846153853"/>
      <point x="549.6566153846154" y="114.7827692307692"/>
      <point x="587.3679999999997" y="189.62399999999997" type="qcurve"/>
      <point x="587.3679999999997" y="1028.6461538461535" type="line"/>
      <point x="625.0166153846155" y="1028.6461538461535" type="line"/>
      <point x="625.0166153846155" y="0.0" type="line"/>
      <point x="589.5544615384613" y="0.0" type="line"/>
      <point x="590.5163076923076" y="131.44923076923078" type="line"/>
      <point x="590.0596923076923" y="131.44923076923078" type="line"/>
      <point x="550.6110769230769" y="61.124923076923075"/>
      <point x="422.1876923076924" y="-17.976"/>
      <point x="340.42646153846147" y="-17.976" type="qcurve" smooth="yes"/>
      <point x="239.63076923076926" y="-17.976"/>
      <point x="122.85046153846159" y="108.1156923076923"/>
    </contour>
  </outline>
</glyph>
<glyph name="v" format="2">
  <advance width="677"/>
  <unicode hex="0076"/>
  <outline>
    <contour>
      <point x="11.680615384615384" y="1028.6461538461535" type="line"/>
      <point x="54.52492307692308" y="1028.6461538461535" type="line"/>
      <point x="310.33415384615387" y="157.92246153846156" type="line" smooth="yes"/>
      <point x="322.19138461538455" y="121.13169230769225"/>
      <point x="334.7298461538461" y="72.25292307692305"/>
      <point x="337.9255384615385" y="57.02153846153844" type="qcurve"/>
      <point x="341.3421538461538" y="57.02153846153844" type="line"/>
      <point x="342.11199999999997" y="68.92984615384611"/>
      <point x="358.7378461538461" y="125.29907692307688"/>
      <point x="368.93353846153843" y="158.75323076923075" type="qcurve" smooth="yes"/>
      <point x="623.419076923077" y="1028.6461538461535" type="line"/>
      <point x="665.9919999999998" y="1028.6461538461535" type="line"/>
      <point x="361.1956923076922" y="-0.1556923076923077" type="line"/>
      <point x="316.57169230769216" y="-0.1556923076923077" type="line"/>
    </contour>
  </outline>
</glyph>
<glyph name="w" format="2">
  <advance width="1095"/>
  <unicode hex="0077"/>
  <outline>
    <contour>
      <point x="36.694153846153846" y="1028.6461538461535" type="line"/>
      <point x="82.05046153846152" y="1028.6461538461535" type="line"/>
      <point x="251.44799999999995" y="170.7532307692308" type="line" smooth="yes"/>
      <point x="258.3476923076924" y="137.04861538461537"/>
      <point x="270.97907692307695" y="82.75876923076926"/>
      <point x="278.13046153846153" y="49.30461538461536" type="qcurve"/>
      <point x="283.1556923076923" y="49.30461538461536" type="line"/>
      <point x="291.2043076923078" y="82.75876923076926"/>
      <point x="311.96369230769227" y="137.03507692307693"/>
      <point x="320.524923076923" y="170.7532307692308" type="qcurve" smooth="yes"/>
      <point x="522.9224615384616" y="1028.6461538461535" type="line"/>
      <point x="572.7526153846155" y="1028.6461538461535" type="line"/>
      <point x="777.6030769230769" y="170.72615384615384" type="line" smooth="yes"/>
      <point x="786.1507692307692" y="137.06215384615385"/>
      <point x="807.7759999999997" y="82.74523076923082"/>
      <point x="815.8110769230768" y="49.33169230769233" type="qcurve"/>
      <point x="820.8633846153846" y="49.33169230769233" type="line"/>
      <point x="828.7655384615383" y="82.74523076923082"/>
      <point x="837.6535384615385" y="136.72984615384613"/>
      <point x="844.5895384615385" y="170.39384615384617" type="qcurve" smooth="yes"/>
      <point x="1012.6393846153849" y="1028.6461538461535" type="line"/>
      <point x="1057.9273846153847" y="1028.6461538461535" type="line"/>
      <point x="849.0492307692307" y="0.0" type="line"/>
      <point x="781.3944615384615" y="0.0" type="line"/>
      <point x="578.9926153846154" y="824.8627692307696" type="line" smooth="yes"/>
      <point x="569.4166153846154" y="858.6147692307691"/>
      <point x="555.7704615384615" y="929.7876923076924"/>
      <point x="551.1840000000002" y="963.7089230769232" type="qcurve"/>
      <point x="547.6873846153843" y="963.7089230769232" type="line"/>
      <point x="543.100923076923" y="929.7741538461539"/>
      <point x="529.4547692307691" y="858.6147692307693"/>
      <point x="519.8787692307692" y="824.8627692307696" type="qcurve" smooth="yes"/>
      <point x="314.0049230769231" y="0.0" type="line"/>
      <point x="247.01661538461548" y="0.0" type="line"/>
    </contour>
  </outline>
</glyph>
<glyph name="x" format="2">
  <advance width="689"/>
  <unicode hex="0078"/>
  <outline>
    <contour>
      <point x="29.420307692307695" y="0.0" type="line"/>
      <point x="327.8990769230769" y="538.1193846153845" type="line"/>
      <point x="335.0603076923076" y="538.1193846153847" type="line"/>
      <point x="603.1747692307691" y="1028.6461538461535" type="line"/>
      <point x="642.9759999999999" y="1028.6461538461535" type="line"/>
      <point x="355.44" y="507.9181538461538" type="line"/>
      <point x="346.7501538461538" y="507.9181538461538" type="line"/>
      <point x="68.59015384615384" y="0.0" type="line"/>
    </contour>
    <contour>
      <point x="41.45907692307692" y="1028.6461538461535" type="line"/>
      <point x="82.33415384615385" y="1028.6461538461535" type="line"/>
      <point x="358.19692307692304" y="538.4172307692307" type="line"/>
      <point x="361.2424615384615" y="538.4172307692306" type="line"/>
      <point x="665.5033846153844" y="0.0" type="line"/>
      <point x="624.4726153846152" y="0.0" type="line"/>
      <point x="339.20923076923077" y="507.9316923076923" type="line"/>
      <point x="335.3993846153846" y="507.93169230769223" type="line"/>
    </contour>
  </outline>
</glyph>
<glyph name="y" format="2">
  <advance width="773"/>
  <unicode hex="0079"/>
  <anchor x="492.0658461538462" y="1028.6461538461535" name="top"/>
  <outline>
    <contour>
      <point x="108.34400000000002" y="-411.979076923077" type="qcurve"/>
      <point x="108.96676923076924" y="-375.9913846153847" type="line"/>
      <point x="128.24" y="-383.32800000000003"/>
      <point x="179.8381538461538" y="-395.7483076923077"/>
      <point x="200.71384615384613" y="-395.7483076923077" type="qcurve" smooth="yes"/>
      <point x="267.92103338171273" y="-395.7483076923077"/>
      <point x="314.81476923076923" y="-292.2947692307693"/>
      <point x="408.76" y="5.3895384615384625" type="qcurve" smooth="yes"/>
      <point x="406.75323076923075" y="0.9396923076923076" type="line"/>
      <point x="99.65784615384617" y="1028.6461538461535" type="line"/>
      <point x="143.4153846153846" y="1028.6461538461535" type="line"/>
      <point x="397.8935384615384" y="159.82892307692305" type="line" smooth="yes"/>
      <point x="407.1981538461539" y="126.85353846153842"/>
      <point x="415.15569230769233" y="94.8990769230769"/>
      <point x="423.936" y="60.930461538461536" type="qcurve"/>
      <point x="427.90399999999994" y="60.930461538461536" type="line"/>
      <point x="436.1372307692308" y="94.85846153846154"/>
      <point x="442.6443076923076" y="126.85353846153848"/>
      <point x="450.49661538461555" y="153.19630769230773" type="qcurve" smooth="yes"/>
      <point x="714.7587692307693" y="1028.6461538461535" type="line"/>
      <point x="755.2203076923076" y="1028.6461538461535" type="line"/>
      <point x="440.9267692307693" y="-8.748923076923077" type="line" smooth="yes"/>
      <point x="362.5846153846153" y="-268.29723076923074"/>
      <point x="285.5696194331983" y="-431.01784615384616"/>
      <point x="199.90830769230766" y="-431.01784615384616" type="qcurve" smooth="yes"/>
      <point x="169.9335384615385" y="-431.01784615384616"/>
      <point x="127.25907692307693" y="-419.8923076923078"/>
    </contour>
  </outline>
</glyph>
<glyph name="z" format="2">
  <advance width="664"/>
  <unicode hex="007A"/>
  <outline>
    <contour>
      <point x="65.04615384615384" y="0.0" type="line"/>
      <point x="65.04615384615384" y="49.78030769230767" type="line"/>
      <point x="561.6793846153845" y="992.1390769230768" type="line"/>
      <point x="72.38276923076924" y="992.1390769230768" type="line"/>
      <point x="72.38276923076924" y="1028.6461538461535" type="line"/>
      <point x="586.2787692307693" y="1028.6461538461535" type="line"/>
      <point x="586.2787692307693" y="978.6233846153846" type="line"/>
      <point x="83.76123076923075" y="36.50707692307693" type="line"/>
      <point x="612.5501538461538" y="36.50707692307693" type="line"/>
      <point x="612.5501538461538" y="0.0" type="line"/>
    </contour>
  </outline>
</glyph>
<glyph name="braceleft" format="2">
  <advance width="524"/>
  <unicode hex="007B"/>
  <outline>
    <contour>
      <point x="457.61046153846144" y="-311.84430769230767" type="line"/>
      <point x="323.40923076923076" y="-312.0"/>
      <point x="171.13415384615385" y="-106.66153846153848"/>
      <point x="209.62215384615388" y="91.21538461538461" type="qcurve" smooth="yes"/>
      <point x="255.96246153846147" y="333.1538461538461" type="line" smooth="yes"/>
      <point x="281.83446153846154" y="462.3513846153847"/>
      <point x="167.23261538461543" y="554.5778461538462"/>
      <point x="78.39323076923075" y="554.5778461538462" type="qcurve"/>
      <point x="78.39323076923075" y="593.4221538461538" type="line"/>
      <point x="167.23261538461543" y="593.4221538461538"/>
      <point x="281.83446153846154" y="685.6486153846153"/>
      <point x="255.96246153846147" y="814.8461538461538" type="qcurve" smooth="yes"/>
      <point x="209.62215384615388" y="1056.7846153846156" type="line" smooth="yes"/>
      <point x="174.77415384615384" y="1236.9815384615385"/>
      <point x="305.72923076923087" y="1460.0"/>
      <point x="457.61046153846144" y="1460.1556923076923" type="qcurve"/>
      <point x="457.61046153846144" y="1423.8664615384619" type="line"/>
      <point x="324.0" y="1415.3907692307694"/>
      <point x="216.13846153846154" y="1227.4252307692311"/>
      <point x="249.69599999999997" y="1055.9384615384618" type="qcurve" smooth="yes"/>
      <point x="295.8806153846153" y="814.0" type="line" smooth="yes"/>
      <point x="312.8953846153846" y="726.2043076923077"/>
      <point x="230.86215384615377" y="605.736"/>
      <point x="140.12923076923084" y="574.0" type="qcurve"/>
      <point x="231.17353846153839" y="542.264"/>
      <point x="312.6295384615385" y="421.92861538461534"/>
      <point x="295.8806153846153" y="334.0" type="qcurve" smooth="yes"/>
      <point x="249.69599999999997" y="92.06153846153845" type="line" smooth="yes"/>
      <point x="211.97846153846152" y="-98.66523076923077"/>
      <point x="341.68" y="-265.675076923077"/>
      <point x="457.61046153846144" y="-275.3993846153847" type="qcurve"/>
    </contour>
  </outline>
</glyph>
<glyph name="bar" format="2">
  <advance width="443"/>
  <unicode hex="007C"/>
  <outline>
    <contour>
      <point x="204.0030769230769" y="-416.0" type="line"/>
      <point x="204.0030769230769" y="1394.8553846153848" type="line"/>
      <point x="238.76861538461543" y="1394.8553846153848" type="line"/>
      <point x="238.76861538461543" y="-416.0" type="line"/>
    </contour>
  </outline>
</glyph>
<glyph name="braceright" format="2">
  <advance width="524"/>
  <unicode hex="007D"/>
  <outline>
    <contour>
      <point x="51.20923076923078" y="-311.84430769230767" type="qcurve"/>
      <point x="51.20923076923078" y="-275.3993846153847" type="line"/>
      <point x="155.17969230769236" y="-275.55507692307697"/>
      <point x="298.9212307692308" y="-99.18523076923078"/>
      <point x="264.3236923076923" y="92.06153846153845" type="qcurve" smooth="yes"/>
      <point x="223.3390769230769" y="334.0" type="line" smooth="yes"/>
      <point x="208.1501538461539" y="422.4486153846153"/>
      <point x="294.80615384615385" y="543.8240000000001"/>
      <point x="399.89046153846164" y="574.0" type="qcurve"/>
      <point x="297.7175384615384" y="598.4559999999999"/>
      <point x="207.11015384615388" y="725.5513846153846"/>
      <point x="223.3390769230769" y="814.0" type="qcurve" smooth="yes"/>
      <point x="267.9636923076924" y="1055.9384615384618" type="line" smooth="yes"/>
      <point x="304.64123076923084" y="1247.1852307692313"/>
      <point x="165.57969230769237" y="1423.7107692307695"/>
      <point x="51.20923076923078" y="1423.8664615384619" type="qcurve"/>
      <point x="51.20923076923078" y="1460.1556923076923" type="line"/>
      <point x="189.05046153846158" y="1460.0"/>
      <point x="346.7698461538462" y="1258.3015384615385"/>
      <point x="308.0375384615384" y="1056.7846153846156" type="qcurve" smooth="yes"/>
      <point x="263.2572307692307" y="814.8461538461538" type="line" smooth="yes"/>
      <point x="238.42523076923078" y="685.1286153846153"/>
      <point x="377.98707692307704" y="593.4221538461538"/>
      <point x="456.42646153846147" y="593.4221538461538" type="qcurve"/>
      <point x="456.42646153846147" y="554.5778461538463" type="line"/>
      <point x="377.98707692307704" y="554.5778461538463"/>
      <point x="239.98523076923075" y="462.87138461538456"/>
      <point x="263.2572307692307" y="333.1538461538461" type="qcurve" smooth="yes"/>
      <point x="304.39753846153843" y="91.21538461538461" type="line" smooth="yes"/>
      <point x="340.0098461538462" y="-107.18153846153848"/>
      <point x="169.29046153846156" y="-312.0"/>
    </contour>
  </outline>
</glyph>
<glyph name="asciitilde" format="2">
  <advance width="1181"/>
  <unicode hex="007E"/>
  <outline>
    <contour>
      <point x="346.4203076923077" y="627.9790769230771" type="qcurve"/>
      <point x="346.4203076923077" y="676.3144615384615" type="line"/>
      <point x="366.7286153846154" y="704.1101538461537"/>
      <point x="420.32553846153843" y="729.9273846153848"/>
      <point x="456.76" y="729.9938461538461" type="qcurve" smooth="yes"/>
      <point x="458.6073846153845" y="730.0603076923077"/>
      <point x="548.1692307692307" y="715.8116923076924"/>
      <point x="590.891076923077" y="702.2590769230769" type="qcurve" smooth="yes"/>
      <point x="631.5569230769232" y="690.0387692307693"/>
      <point x="719.7483076923075" y="673.3384615384616"/>
      <point x="722.1286153846154" y="673.3384615384616" type="qcurve" smooth="yes"/>
      <point x="761.9716923076925" y="673.3384615384616"/>
      <point x="816.244923076923" y="707.5661538461538"/>
      <point x="836.6141538461538" y="739.7513846153846" type="qcurve"/>
      <point x="836.6141538461538" y="689.8966153846155" type="line"/>
      <point x="817.0092307692307" y="664.5009230769232"/>
      <point x="762.0381538461539" y="637.204923076923"/>
      <point x="724.488" y="637.204923076923" type="qcurve" smooth="yes"/>
      <point x="726.3280000000002" y="637.204923076923"/>
      <point x="652.9864615384614" y="645.6110769230769"/>
      <point x="619.9950769230769" y="654.364923076923" type="qcurve" smooth="yes"/>
      <point x="570.891076923077" y="670.3692307692305"/>
      <point x="465.8849230769232" y="693.9267692307691"/>
      <point x="459.8172307692307" y="693.9267692307691" type="qcurve" smooth="yes"/>
      <point x="421.85415384615385" y="693.9267692307691"/>
      <point x="367.7163076923077" y="661.9298461538463"/>
    </contour>
  </outline>
</glyph>
<glyph name="sterling" format="2">
  <advance width="951"/>
  <unicode hex="00A3"/>
  <outline>
    <contour>
      <point x="953.2307692307694" y="0.0" type="line"/>
      <point x="36.0" y="0.0" type="line"/>
      <point x="36.0" y="87.7230769230769" type="line"/>
      <point x="75.38461538461539" y="87.7230769230769" type="line" smooth="yes"/>
      <point x="190.64615384615385" y="87.7230769230769"/>
      <point x="324.6461538461538" y="280.8"/>
      <point x="306.4923076923077" y="432.10769230769233" type="qcurve" smooth="yes"/>
      <point x="233.2153846153846" y="1039.0" type="line" smooth="yes"/>
      <point x="207.73846153846154" y="1251.2615384615385"/>
      <point x="384.1538461538461" y="1483.4769230769232"/>
      <point x="571.8615384615384" y="1483.4769230769232" type="qcurve" smooth="yes"/>
      <point x="739.4307692307692" y="1483.4769230769232"/>
      <point x="921.6923076923078" y="1303.2307692307693"/>
      <point x="921.6923076923078" y="1136.2307692307693" type="qcurve" smooth="yes"/>
      <point x="921.6923076923078" y="1120.2307692307693" type="line"/>
      <point x="820.246153846154" y="1120.2307692307693" type="line"/>
      <point x="820.246153846154" y="1136.2307692307693" type="line" smooth="yes"/>
      <point x="817.5483076923076" y="1274.492307692308"/>
      <point x="689.123076923077" y="1385.4307692307696"/>
      <point x="573.8615384615384" y="1385.4307692307696" type="qcurve" smooth="yes"/>
      <point x="451.10769230769233" y="1385.4307692307696"/>
      <point x="321.6461538461538" y="1244.8153846153843"/>
      <point x="342.2923076923077" y="1039.0" type="qcurve" smooth="yes"/>
      <point x="400.7692307692308" y="456.4923076923077" type="line" smooth="yes"/>
      <point x="414.6" y="320.4923076923077"/>
      <point x="333.0153846153846" y="138.04615384615386"/>
      <point x="263.0153846153846" y="97.04615384615384" type="qcurve"/>
      <point x="953.2307692307694" y="97.04615384615384" type="line"/>
    </contour>
    <contour>
      <point x="782.4615384615385" y="688.1384615384616" type="line"/>
      <point x="68.61538461538461" y="688.1384615384616" type="line"/>
      <point x="68.61538461538461" y="771.6923076923078" type="line"/>
      <point x="782.4615384615385" y="771.6923076923078" type="line"/>
    </contour>
  </outline>
</glyph>
<glyph name="dieresis" format="2">
  <advance width="903"/>
  <unicode hex="00A8"/>
  <anchor x="423.0" y="1577.0" name="mkmktop_acc"/>
  <outline>
    <contour>
      <point x="194.07076923076923" y="1239.940923076923" type="qcurve" smooth="yes"/>
      <point x="194.07076923076923" y="1268.2246153846154"/>
      <point x="229.46092307692308" y="1308.1612307692312"/>
      <point x="263.1489230769231" y="1308.1612307692312" type="qcurve" smooth="yes"/>
      <point x="297.68123076923075" y="1308.1612307692312"/>
      <point x="333.22707692307694" y="1268.2246153846154"/>
      <point x="333.22707692307694" y="1239.940923076923" type="qcurve" smooth="yes"/>
      <point x="333.22707692307694" y="1211.6843076923078"/>
      <point x="297.68123076923075" y="1172.592"/>
      <point x="263.1489230769231" y="1172.592" type="qcurve" smooth="yes"/>
      <point x="229.46092307692308" y="1172.592"/>
      <point x="194.07076923076923" y="1211.6843076923078"/>
    </contour>
    <contour>
      <point x="569.3329230769228" y="1238.0966153846152" type="qcurve" smooth="yes"/>
      <point x="569.3329230769228" y="1266.5359999999998"/>
      <point x="604.7095384615385" y="1306.472615384616"/>
      <point x="638.5667692307693" y="1306.472615384616" type="qcurve" smooth="yes"/>
      <point x="672.2547692307692" y="1306.472615384616"/>
      <point x="708.4892307692306" y="1266.5359999999998"/>
      <point x="708.4892307692306" y="1238.0966153846152" type="qcurve" smooth="yes"/>
      <point x="708.4892307692306" y="1209.8400000000001"/>
      <point x="672.2547692307692" y="1170.9033846153848"/>
      <point x="638.5667692307693" y="1170.9033846153848" type="qcurve" smooth="yes"/>
      <point x="604.7095384615385" y="1170.9033846153848"/>
      <point x="569.3329230769228" y="1209.8400000000001"/>
    </contour>
  </outline>
</glyph>
<glyph name="macron" format="2">
  <advance width="903"/>
  <unicode hex="00AF"/>
  <anchor x="473.0" y="1577.0" name="mkmktop_acc"/>
  <outline>
    <contour>
      <point x="684.208" y="1312.8947692307693" type="line"/>
      <point x="684.208" y="1235.3403076923075" type="line"/>
      <point x="219.28615384615387" y="1235.3403076923075" type="line"/>
      <point x="219.28615384615387" y="1312.8947692307693" type="line"/>
    </contour>
  </outline>
</glyph>
<glyph name="degree" format="2">
  <advance width="765"/>
  <unicode hex="00B0"/>
  <outline>
    <contour>
      <point x="147.6153846153846" y="1235.2769230769231" type="qcurve"/>
      <point x="147.6153846153846" y="1171.2192055109072"/>
      <point x="288.8514902411021" y="1081.852923076923"/>
      <point x="385.1692307692307" y="1081.852923076923" type="qcurve" smooth="yes"/>
      <point x="480.6809001148105" y="1081.852923076923"/>
      <point x="618.723076923077" y="1171.236969001148"/>
      <point x="618.723076923077" y="1235.2769230769231" type="qcurve" smooth="yes"/>
      <point x="618.723076923077" y="1298.3598163031"/>
      <point x="480.68978185993103" y="1391.7009230769231"/>
      <point x="385.1692307692307" y="1391.7009230769231" type="qcurve" smooth="yes"/>
      <point x="288.69161882893235" y="1391.7009230769231"/>
      <point x="147.6153846153846" y="1298.5285694603901"/>
    </contour>
    <contour>
      <point x="238.3846153846154" y="1235.2769230769231" type="qcurve"/>
      <point x="238.3846153846154" y="1173.5928817451206"/>
      <point x="325.39931113662465" y="1090.492307692308"/>
      <point x="385.1692307692307" y="1090.492307692308" type="qcurve" smooth="yes"/>
      <point x="445.7699196326063" y="1090.492307692308"/>
      <point x="527.9538461538461" y="1173.5928817451206"/>
      <point x="527.9538461538461" y="1235.2769230769231" type="qcurve" smooth="yes"/>
      <point x="527.9538461538461" y="1297.9180252583237"/>
      <point x="445.7699196326063" y="1383.0615384615385"/>
      <point x="385.1692307692307" y="1383.0615384615385" type="qcurve" smooth="yes"/>
      <point x="325.39931113662465" y="1383.0615384615385"/>
      <point x="238.3846153846154" y="1297.9180252583237"/>
    </contour>
  </outline>
</glyph>
<glyph name="twosuperior" format="2">
  <advance width="632"/>
  <unicode hex="00B2"/>
  <outline>
    <contour>
      <point x="93.30276923076923" y="697.467076923077" type="line"/>
      <point x="93.30276923076923" y="770.9944615384616" type="line"/>
      <point x="314.8707692307692" y="1027.876923076923" type="line" smooth="yes"/>
      <point x="373.20123076923085" y="1093.5218461538464"/>
      <point x="458.536" y="1211.008615384615"/>
      <point x="458.536" y="1280.6387692307692" type="qcurve" smooth="yes"/>
      <point x="458.536" y="1344.7513846153845"/>
      <point x="386.632" y="1416.4935384615385"/>
      <point x="307.5963076923078" y="1416.4935384615385" type="qcurve" smooth="yes"/>
      <point x="225.31015384615387" y="1416.4935384615385"/>
      <point x="144.4756923076923" y="1337.0"/>
      <point x="146.15076923076924" y="1231.2898461538457" type="qcurve"/>
      <point x="79.32184615384615" y="1231.2898461538457" type="line"/>
      <point x="77.64676923076922" y="1364.209230769231"/>
      <point x="198.50215384615387" y="1482.336"/>
      <point x="305.93476923076923" y="1482.336" type="qcurve" smooth="yes"/>
      <point x="414.58215384615386" y="1482.336"/>
      <point x="530.3630769230768" y="1376.645538461538"/>
      <point x="530.3630769230768" y="1280.6387692307696" type="qcurve" smooth="yes"/>
      <point x="530.3630769230768" y="1182.5526153846158"/>
      <point x="410.9532307692308" y="1040.3390769230768"/>
      <point x="336.65538461538466" y="960.3747692307693" type="qcurve" smooth="yes"/>
      <point x="174.26830769230767" y="763.4652307692306" type="line"/>
      <point x="549.9889230769231" y="763.4652307692306" type="line"/>
      <point x="549.9889230769231" y="697.467076923077" type="line"/>
    </contour>
  </outline>
</glyph>
<glyph name="threesuperior" format="2">
  <advance width="641"/>
  <unicode hex="00B3"/>
  <outline>
    <contour>
      <point x="88.48553846153845" y="922.8584615384617" type="qcurve"/>
      <point x="150.97784615384614" y="922.8584615384617" type="line"/>
      <point x="150.97784615384614" y="826.2695384615386"/>
      <point x="230.67507692307694" y="741.0910769230769"/>
      <point x="320.592" y="741.0910769230769" type="qcurve" smooth="yes"/>
      <point x="398.08123076923073" y="741.0910769230769"/>
      <point x="482.0473846153845" y="824.3015384615385"/>
      <point x="482.0473846153845" y="904.5686153846154" type="qcurve" smooth="yes"/>
      <point x="482.0473846153845" y="980.976"/>
      <point x="394.49600000000004" y="1069.6750769230769"/>
      <point x="319.856" y="1069.6750769230769" type="qcurve" smooth="yes"/>
      <point x="247.39569230769226" y="1069.6750769230769" type="line"/>
      <point x="247.39569230769226" y="1130.3907692307694" type="line"/>
      <point x="319.5446153846153" y="1130.3907692307694" type="line" smooth="yes"/>
      <point x="392.2098461538462" y="1131.2215384615386"/>
      <point x="466.4824615384615" y="1202.6572307692304"/>
      <point x="466.4824615384615" y="1273.768" type="qcurve" smooth="yes"/>
      <point x="466.4824615384615" y="1354.0929230769232"/>
      <point x="390.0086153846154" y="1420.2836923076923"/>
      <point x="319.34830769230757" y="1420.2836923076923" type="qcurve" smooth="yes"/>
      <point x="233.7138461538462" y="1420.2836923076923"/>
      <point x="160.96246153846158" y="1334.213538461538"/>
      <point x="160.96246153846158" y="1246.9138461538466" type="qcurve"/>
      <point x="98.45661538461538" y="1246.9138461538466" type="line"/>
      <point x="98.45661538461538" y="1353.5175384615384"/>
      <point x="210.7483076923077" y="1482.6473846153847"/>
      <point x="320.17907692307693" y="1482.6473846153847" type="qcurve" smooth="yes"/>
      <point x="415.2295384615384" y="1482.6473846153847"/>
      <point x="529.8055384615385" y="1387.729846153846"/>
      <point x="529.8055384615385" y="1283.5815384615385" type="qcurve" smooth="yes"/>
      <point x="529.8055384615385" y="1203.3846153846155"/>
      <point x="461.34153846153833" y="1119.1526153846155"/>
      <point x="406.3476923076922" y="1105.1021538461541" type="qcurve"/>
      <point x="469.20615384615394" y="1091.4036923076924"/>
      <point x="546.8898461538462" y="981.8627692307695"/>
      <point x="546.8898461538462" y="906.2572307692309" type="qcurve" smooth="yes"/>
      <point x="546.8898461538462" y="798.1686153846154"/>
      <point x="422.66769230769233" y="683.7255384615385"/>
      <point x="316.4516923076924" y="683.7255384615385" type="qcurve" smooth="yes"/>
      <point x="228.62092307692313" y="683.7255384615385"/>
      <point x="88.48553846153845" y="797.281846153846"/>
    </contour>
  </outline>
</glyph>
<glyph name="acute" format="2">
  <advance width="903"/>
  <unicode hex="00B4"/>
  <anchor x="291.0" y="1197.0" name="mkmktop_acc"/>
  <outline>
    <contour>
      <point x="312.7563076923077" y="1195.2123076923074" type="line"/>
      <point x="545.4584615384614" y="1477.1243076923074" type="line"/>
      <point x="618.4043076923077" y="1426.7396923076924" type="line"/>
      <point x="349.0381538461537" y="1168.8135384615387" type="line"/>
    </contour>
  </outline>
</glyph>
<glyph name="cedilla" format="2">
  <advance width="903"/>
  <unicode hex="00B8"/>
  <outline>
    <contour>
      <point x="385.04061538461536" y="38.73046153846154" type="line"/>
      <point x="457.97292307692317" y="37.89969230769231" type="line"/>
      <point x="432.3083076923078" y="-49.62707692307692" type="line"/>
      <point x="457.3230769230768" y="-58.22584615384615"/>
      <point x="588.0000000000001" y="-127.01169230769231"/>
      <point x="588.0000000000001" y="-207.6283076923077" type="qcurve" smooth="yes"/>
      <point x="588.0000000000001" y="-295.33476923076927"/>
      <point x="426.9224615384615" y="-402.616"/>
      <point x="272.47692307692313" y="-402.616" type="qcurve"/>
      <point x="266.7224615384616" y="-330.65661538461535" type="line"/>
      <point x="393.604923076923" y="-328.16430769230766"/>
      <point x="498.9292307692307" y="-262.78400000000005"/>
      <point x="498.9292307692307" y="-209.6283076923077" type="qcurve" smooth="yes"/>
      <point x="498.9292307692307" y="-161.71815384615385"/>
      <point x="430.5316923076923" y="-125.65230769230769"/>
      <point x="348.0886153846154" y="-119.43076923076923" type="qcurve"/>
    </contour>
  </outline>
</glyph>
<glyph name="onesuperior" format="2">
  <advance width="548"/>
  <unicode hex="00B9"/>
  <outline>
    <contour>
      <point x="70.0763076923077" y="1295.2492307692307" type="line"/>
      <point x="69.60923076923076" y="1370.582153846154" type="line"/>
      <point x="326.3378461538461" y="1481.1938461538462" type="line"/>
      <point x="348.2307692307693" y="1481.1938461538462" type="line"/>
      <point x="348.2307692307693" y="689.6824615384616" type="line"/>
      <point x="276.5187692307692" y="689.6824615384616" type="line"/>
      <point x="276.5187692307692" y="1380.2627692307692" type="line"/>
    </contour>
  </outline>
</glyph>
<glyph name="ordmasculine" format="2">
  <advance width="932"/>
  <unicode hex="00BA"/>
  <guideline x="0" y="1975.0" angle="0" identifier="Jnt0R9CyOf"/>
  <outline>
    <contour>
      <point x="123.0" y="1043.0" type="qcurve"/>
      <point x="123.0" y="1124.0" type="line"/>
      <point x="123.0" y="1278.0"/>
      <point x="308.2797428243399" y="1477.0"/>
      <point x="465.0" y="1477.0" type="qcurve" smooth="yes"/>
      <point x="623.2061262916187" y="1477.0"/>
      <point x="807.0" y="1277.5296440872562"/>
      <point x="807.0" y="1124.0" type="qcurve"/>
      <point x="807.0" y="1043.0" type="line"/>
      <point x="807.0" y="889.470355912744"/>
      <point x="623.5035132032148" y="691.0"/>
      <point x="467.0" y="691.0" type="qcurve" smooth="yes"/>
      <point x="308.6341676234214" y="691.0"/>
      <point x="123.0" y="889.2053363949484"/>
    </contour>
    <contour>
      <point x="286.0" y="1124.0" type="qcurve"/>
      <point x="286.0" y="1043.0" type="line"/>
      <point x="286.0" y="951.9216073478759"/>
      <point x="375.3658323765786" y="830.0"/>
      <point x="467.0" y="830.0" type="qcurve" smooth="yes"/>
      <point x="555.6602985074626" y="830.0"/>
      <point x="645.0" y="951.9216073478759"/>
      <point x="645.0" y="1043.0" type="qcurve"/>
      <point x="645.0" y="1124.0" type="line"/>
      <point x="645.0" y="1212.6602985074628"/>
      <point x="555.5226176808266" y="1336.0"/>
      <point x="465.0" y="1336.0" type="qcurve" smooth="yes"/>
      <point x="374.4773823191734" y="1336.0"/>
      <point x="286.0" y="1212.6602985074628"/>
    </contour>
  </outline>
</glyph>
<glyph name="circumflex" format="2">
  <advance width="903"/>
  <unicode hex="02C6"/>
  <outline>
    <contour>
      <point x="481.89353846153847" y="1457.304" type="line"/>
      <point x="689.4572307692308" y="1169.3704615384615" type="line"/>
      <point x="608.8129230769231" y="1168.7476923076922" type="line"/>
      <point x="450.6049230769231" y="1383.5661538461543" type="line"/>
      <point x="293.7083076923077" y="1168.7476923076922" type="line"/>
      <point x="214.90830769230763" y="1169.5261538461539" type="line"/>
      <point x="419.3163076923077" y="1457.304" type="line"/>
    </contour>
  </outline>
</glyph>
<glyph name="caron" format="2">
  <advance width="903"/>
  <unicode hex="02C7"/>
  <outline>
    <contour>
      <point x="422.47200000000004" y="1151.8615384615384" type="line"/>
      <point x="214.90830769230763" y="1439.795076923077" type="line"/>
      <point x="295.5526153846154" y="1440.4178461538463" type="line"/>
      <point x="453.7606153846154" y="1225.5993846153847" type="line"/>
      <point x="610.6572307692309" y="1440.4178461538463" type="line"/>
      <point x="689.4572307692308" y="1439.6393846153846" type="line"/>
      <point x="485.04923076923075" y="1151.8615384615384" type="line"/>
    </contour>
  </outline>
</glyph>
<glyph name="breve" format="2">
  <advance width="904"/>
  <unicode hex="02D8"/>
  <anchor x="429.0" y="1606.0" name="mkmktop_acc"/>
  <outline>
    <contour>
      <point x="688.8233846153845" y="1438.5895384615385" type="qcurve"/>
      <point x="736.0609230769232" y="1413.2990769230773" type="line"/>
      <point x="705.6283076923077" y="1308.3243076923075"/>
      <point x="557.2566153846153" y="1160.7372307692308"/>
      <point x="451.7606153846152" y="1160.7372307692308" type="qcurve" smooth="yes"/>
      <point x="355.5267692307692" y="1160.7372307692308"/>
      <point x="202.7643076923077" y="1292.402461538461"/>
      <point x="167.46030769230768" y="1414.2990769230773" type="qcurve"/>
      <point x="219.8043076923077" y="1438.5895384615385" type="line"/>
      <point x="254.18276923076928" y="1347.0086153846157"/>
      <point x="373.08307692307693" y="1234.6627692307693"/>
      <point x="452.6049230769231" y="1234.6627692307693" type="qcurve" smooth="yes"/>
      <point x="531.3113846153844" y="1234.6627692307693"/>
      <point x="653.3926153846154" y="1344.4621538461538"/>
    </contour>
  </outline>
</glyph>
<glyph name="dotaccent" format="2">
  <advance width="903"/>
  <unicode hex="02D9"/>
  <anchor x="250.0" y="1572.0" name="mkmktop_acc"/>
  <outline>
    <contour>
      <point x="375.2510769230768" y="1262.7778461538462" type="qcurve" smooth="yes"/>
      <point x="375.2510769230768" y="1290.528615384615"/>
      <point x="417.2147692307693" y="1337.713846153846"/>
      <point x="452.05846153846153" y="1337.713846153846" type="qcurve" smooth="yes"/>
      <point x="486.0578461538462" y="1337.713846153846"/>
      <point x="528.865846153846" y="1290.528615384615"/>
      <point x="528.865846153846" y="1262.7778461538462" type="qcurve" smooth="yes"/>
      <point x="528.865846153846" y="1234.196307692308"/>
      <point x="486.0578461538462" y="1187.8553846153845"/>
      <point x="452.05846153846153" y="1187.8553846153845" type="qcurve" smooth="yes"/>
      <point x="417.2147692307693" y="1187.8553846153845"/>
      <point x="375.2510769230768" y="1234.196307692308"/>
    </contour>
  </outline>
</glyph>
<glyph name="ring" format="2">
  <advance width="903"/>
  <unicode hex="02DA"/>
  <anchor x="336.0" y="1693.0" name="mkmktop_acc"/>
  <outline>
    <contour>
      <point x="255.69723076923077" y="1340.1649230769228" type="qcurve"/>
      <point x="255.69723076923077" y="1422.328"/>
      <point x="373.4486153846153" y="1542.0252307692306"/>
      <point x="454.03138461538464" y="1542.0252307692306" type="qcurve" smooth="yes"/>
      <point x="534.5870769230769" y="1542.0252307692306"/>
      <point x="649.8732307692308" y="1422.328"/>
      <point x="649.8732307692308" y="1340.1649230769228" type="qcurve" smooth="yes"/>
      <point x="649.8732307692308" y="1257.1575384615385"/>
      <point x="534.5870769230769" y="1141.3181538461538"/>
      <point x="454.03138461538464" y="1141.3181538461538" type="qcurve" smooth="yes"/>
      <point x="373.4486153846153" y="1141.3181538461538"/>
      <point x="255.69723076923077" y="1257.1575384615385"/>
    </contour>
    <contour>
      <point x="321.9341538461538" y="1340.164923076923" type="qcurve"/>
      <point x="321.9341538461538" y="1284.8455384615384"/>
      <point x="399.96738461538456" y="1210.054153846154"/>
      <point x="454.03138461538464" y="1210.054153846154" type="qcurve" smooth="yes"/>
      <point x="508.926153846154" y="1210.054153846154"/>
      <point x="582.8055384615385" y="1284.9741538461537"/>
      <point x="582.8055384615385" y="1340.164923076923" type="qcurve" smooth="yes"/>
      <point x="582.8055384615385" y="1396.1864615384616"/>
      <point x="508.926153846154" y="1473.4313846153848"/>
      <point x="454.03138461538464" y="1473.4313846153848" type="qcurve" smooth="yes"/>
      <point x="399.96738461538456" y="1473.4313846153848"/>
      <point x="321.9341538461538" y="1396.1864615384616"/>
    </contour>
  </outline>
</glyph>
<glyph name="ogonek" format="2">
  <advance width="903"/>
  <unicode hex="02DB"/>
  <outline>
    <contour>
      <point x="446.63446153846144" y="41.06338461538463" type="qcurve"/>
      <point x="476.3495384615385" y="8.930461538461536" type="line"/>
      <point x="412.34707692307694" y="-32.16553846153846"/>
      <point x="305.23753846153846" y="-155.65476923076926"/>
      <point x="305.23753846153846" y="-216.13969230769234" type="qcurve" smooth="yes"/>
      <point x="305.23753846153846" y="-266.53353846153846"/>
      <point x="372.6886153846154" y="-305.70276923076915"/>
      <point x="422.59507692307693" y="-305.70276923076915" type="qcurve" smooth="yes"/>
      <point x="471.43199999999985" y="-305.70276923076915"/>
      <point x="536.0492307692306" y="-287.0141538461538"/>
      <point x="550.5821538461538" y="-278.70276923076926" type="qcurve"/>
      <point x="561.3636923076923" y="-333.3156923076922" type="line"/>
      <point x="536.9864615384615" y="-348.1599999999999"/>
      <point x="464.0344615384615" y="-374.9803076923077"/>
      <point x="410.01661538461536" y="-374.9803076923077" type="qcurve" smooth="yes"/>
      <point x="336.3341538461538" y="-374.9803076923077"/>
      <point x="234.51999999999998" y="-298.8356923076922"/>
      <point x="234.51999999999998" y="-225.4067692307692" type="qcurve" smooth="yes"/>
      <point x="234.51999999999998" y="-152.56861538461538"/>
      <point x="332.3304615384615" y="-20.641230769230773"/>
    </contour>
  </outline>
</glyph>
<glyph name="tilde" format="2">
  <advance width="903"/>
  <unicode hex="02DC"/>
  <anchor x="475.0" y="1598.0" name="mkmktop_acc"/>
  <outline>
    <contour>
      <point x="157.25784615384615" y="1231.7427692307688" type="line"/>
      <point x="186.8326153846154" y="1288.8264615384612"/>
      <point x="284.34030769230765" y="1344.2541538461542"/>
      <point x="344.17846153846153" y="1344.2541538461542" type="qcurve" smooth="yes"/>
      <point x="382.2203076923077" y="1344.2541538461542"/>
      <point x="450.2141538461538" y="1318.9427692307695"/>
      <point x="483.16615384615386" y="1296.9667692307696" type="qcurve" smooth="yes"/>
      <point x="513.7409230769231" y="1276.3680000000002"/>
      <point x="583.8006153846154" y="1235.4818461538464"/>
      <point x="617.7526153846153" y="1235.4818461538464" type="qcurve" smooth="yes"/>
      <point x="654.9501538461539" y="1235.4818461538464"/>
      <point x="718.411076923077" y="1285.6793846153848"/>
      <point x="738.92" y="1318.2541538461542" type="qcurve"/>
      <point x="783.4756923076923" y="1268.2756923076922" type="line"/>
      <point x="758.5064615384616" y="1213.108923076923"/>
      <point x="670.9833846153846" y="1155.4363076923075"/>
      <point x="616.0572307692307" y="1155.4363076923075" type="qcurve" smooth="yes"/>
      <point x="562.0701538461539" y="1155.4363076923075"/>
      <point x="478.34584615384614" y="1195.7895384615383"/>
      <point x="450.1483076923077" y="1212.3224615384615" type="qcurve" smooth="yes"/>
      <point x="419.41784615384614" y="1230.5439999999999"/>
      <point x="358.424" y="1262.52"/>
      <point x="330.51384615384615" y="1262.52" type="qcurve" smooth="yes"/>
      <point x="287.56184615384615" y="1262.52"/>
      <point x="213.56799999999998" y="1197.2160000000003"/>
      <point x="197.4363076923077" y="1170.2147692307692" type="qcurve"/>
    </contour>
  </outline>
</glyph>
<glyph name="hungarumlaut" format="2">
  <advance width="903"/>
  <unicode hex="02DD"/>
  <outline>
    <contour>
      <point x="683.064" y="1101.6726153846153" type="line"/>
      <point x="881.9187692307692" y="1405.4172307692309" type="line"/>
      <point x="1013.6141538461538" y="1444.423384615385" type="line"/>
      <point x="805.8430769230771" y="1142.6658461538464" type="line"/>
    </contour>
    <contour>
      <point x="-10.203692307692315" y="1101.6726153846155" type="line"/>
      <point x="99.59261538461543" y="1405.4172307692306" type="line"/>
      <point x="225.24" y="1444.423384615385" type="line"/>
      <point x="90.57661538461538" y="1142.6658461538464" type="line"/>
    </contour>
  </outline>
</glyph>
<glyph name="hookabovecomb" format="2">
  <advance width="903"/>
  <unicode hex="0309"/>
  <outline>
    <contour>
      <point x="391.4116923076923" y="1118.9753846153847" type="line"/>
      <point x="391.4116923076923" y="1154.083076923077" type="line" smooth="yes"/>
      <point x="391.4116923076923" y="1199.076923076923"/>
      <point x="443.0941538461538" y="1258.3341538461539"/>
      <point x="510.37538461538463" y="1267.6215384615384" type="qcurve" smooth="yes"/>
      <point x="568.0880000000001" y="1274.376"/>
      <point x="611.5132307692307" y="1308.7113846153845"/>
      <point x="611.5132307692307" y="1350.1784615384615" type="qcurve" smooth="yes"/>
      <point x="611.5132307692307" y="1389.6455384615385"/>
      <point x="553.603076923077" y="1426.1126153846155"/>
      <point x="501.00430769230763" y="1426.1126153846155" type="qcurve" smooth="yes"/>
      <point x="442.29784615384614" y="1426.1126153846155"/>
      <point x="337.1483076923077" y="1395.6036923076922"/>
      <point x="326.36984615384614" y="1387.6036923076922" type="qcurve"/>
      <point x="280.3101538461538" y="1494.0763076923076" type="line"/>
      <point x="312.1963076923077" y="1511.3636923076922"/>
      <point x="452.8067692307692" y="1548.9384615384615"/>
      <point x="527.1778461538461" y="1548.9384615384615" type="qcurve" smooth="yes"/>
      <point x="636.4350769230768" y="1548.9384615384615"/>
      <point x="750.3809230769231" y="1445.5255384615386"/>
      <point x="750.3809230769231" y="1357.7772307692308" type="qcurve" smooth="yes"/>
      <point x="750.3809230769231" y="1265.3403076923078"/>
      <point x="632.3452307692309" y="1156.616"/>
      <point x="496.3513846153846" y="1147.3286153846154" type="qcurve"/>
      <point x="496.3513846153846" y="1118.9753846153847" type="line"/>
    </contour>
  </outline>
</glyph>
<glyph name="breveinvertedcomb" format="2">
  <advance width="903"/>
  <unicode hex="030F"/>
  <outline>
    <contour>
      <point x="229.65169230769231" y="1163.124923076923" type="qcurve"/>
      <point x="148.35261538461538" y="1209.1846153846154" type="line"/>
      <point x="179.61599999999999" y="1300.867076923077"/>
      <point x="337.9569230769231" y="1455.1003076923075"/>
      <point x="452.59138461538464" y="1455.1003076923075" type="qcurve" smooth="yes"/>
      <point x="555.4713846153846" y="1455.1003076923075"/>
      <point x="719.0338461538462" y="1313.465846153846"/>
      <point x="756.8301538461538" y="1208.1846153846154" type="qcurve"/>
      <point x="667.9323076923077" y="1163.124923076923" type="line"/>
      <point x="636.0461538461539" y="1219.8135384615384"/>
      <point x="525.4535384615385" y="1315.5439999999999"/>
      <point x="451.7470769230769" y="1315.5439999999999" type="qcurve" smooth="yes"/>
      <point x="373.0406153846154" y="1315.5439999999999"/>
      <point x="261.75938461538465" y="1223.1907692307693"/>
    </contour>
  </outline>
</glyph>
<glyph name="horncomb" format="2">
  <advance width="903"/>
  <unicode hex="031B"/>
  <outline>
    <contour>
      <point x="0.0" y="1029.7833846153846" type="line"/>
      <point x="73.41292307692308" y="1029.7833846153846" type="line" smooth="yes"/>
      <point x="121.72430769230769" y="1029.7833846153846"/>
      <point x="198.4510769230769" y="1064.8732307692312"/>
      <point x="198.4510769230769" y="1113.2923076923082" type="qcurve" smooth="yes"/>
      <point x="198.4510769230769" y="1158.0467692307698"/>
      <point x="172.88861538461543" y="1227.7261538461541"/>
      <point x="157.3347692307692" y="1257.2381538461543" type="qcurve"/>
      <point x="222.60553846153846" y="1257.8609230769234" type="line"/>
      <point x="245.25230769230762" y="1229.2203076923076"/>
      <point x="273.21415384615375" y="1146.3618461538467"/>
      <point x="273.21415384615375" y="1093.5753846153846" type="qcurve" smooth="yes"/>
      <point x="273.21415384615375" y="1014.2941538461537"/>
      <point x="183.10523076923076" y="961.7427692307692"/>
      <point x="124.22707692307694" y="961.7427692307692" type="qcurve" smooth="yes"/>
      <point x="84.45476923076922" y="961.7427692307692"/>
      <point x="22.730461538461537" y="963.5667692307692"/>
      <point x="0.0" y="968.6732307692308" type="qcurve"/>
    </contour>
  </outline>
</glyph>
<glyph name="dotbelowcomb" format="2">
  <advance width="903"/>
  <unicode hex="0323"/>
  <outline>
    <contour>
      <point x="348.6935384615385" y="-258.29292307692305" type="qcurve" smooth="yes"/>
      <point x="348.6935384615385" y="-210.45476923076922"/>
      <point x="401.376" y="-157.6166153846154"/>
      <point x="452.05846153846153" y="-157.6166153846154" type="qcurve" smooth="yes"/>
      <point x="499.36369230769225" y="-157.6166153846154"/>
      <point x="555.4233846153846" y="-213.832"/>
      <point x="555.4233846153846" y="-258.29292307692305" type="qcurve" smooth="yes"/>
      <point x="555.4233846153846" y="-306.9753846153846"/>
      <point x="502.7409230769231" y="-359.8135384615384"/>
      <point x="452.05846153846153" y="-359.8135384615384" type="qcurve" smooth="yes"/>
      <point x="404.75323076923075" y="-359.8135384615384"/>
      <point x="348.6935384615385" y="-303.5981538461538"/>
    </contour>
  </outline>
</glyph>
<glyph name="dieresisbelowcomb" format="2">
  <advance width="903"/>
  <unicode hex="0324"/>
  <outline>
    <contour>
      <point x="150.58646153846152" y="-299.664" type="qcurve" smooth="yes"/>
      <point x="150.58646153846152" y="-252.1372307692308"/>
      <point x="202.64615384615385" y="-200.61046153846152"/>
      <point x="251.3286153846154" y="-200.61046153846152" type="qcurve" smooth="yes"/>
      <point x="297.4781538461538" y="-200.61046153846152"/>
      <point x="352.22646153846154" y="-255.51446153846152"/>
      <point x="352.22646153846154" y="-299.664" type="qcurve" smooth="yes"/>
      <point x="352.22646153846154" y="-346.34646153846154"/>
      <point x="300.8553846153846" y="-397.87323076923076"/>
      <point x="251.3286153846154" y="-397.87323076923076" type="qcurve" smooth="yes"/>
      <point x="205.17907692307693" y="-397.87323076923076"/>
      <point x="150.58646153846152" y="-343.8135384615384"/>
    </contour>
    <contour>
      <point x="550.3335384615385" y="-299.81969230769226" type="qcurve" smooth="yes"/>
      <point x="550.3335384615385" y="-252.13723076923074"/>
      <point x="602.3932307692307" y="-200.61046153846152"/>
      <point x="651.2313846153846" y="-200.61046153846152" type="qcurve" smooth="yes"/>
      <point x="697.380923076923" y="-200.61046153846152"/>
      <point x="751.9735384615384" y="-255.51446153846155"/>
      <point x="751.9735384615384" y="-299.81969230769226" type="qcurve" smooth="yes"/>
      <point x="751.9735384615384" y="-346.5021538461538"/>
      <point x="700.7581538461538" y="-397.87323076923076"/>
      <point x="651.2313846153846" y="-397.87323076923076" type="qcurve" smooth="yes"/>
      <point x="604.9261538461539" y="-397.87323076923076"/>
      <point x="550.3335384615385" y="-343.96923076923076"/>
    </contour>
  </outline>
</glyph>
<glyph name="commaaccentcomb" format="2">
  <advance width="903"/>
  <unicode hex="0326"/>
  <outline>
    <contour>
      <point x="327.82523076923076" y="-501.8436923076923" type="line"/>
      <point x="356.51384615384615" y="-403.2929230769231"/>
      <point x="392.9809230769231" y="-265.00553846153844"/>
      <point x="414.73538461538465" y="-149.14953846153844" type="qcurve"/>
      <point x="588.5550769230769" y="-147.928" type="line"/>
      <point x="467.78276923076925" y="-504.8436923076923" type="line"/>
    </contour>
  </outline>
</glyph>
<glyph name="brevebelowcomb" format="2">
  <advance width="903"/>
  <unicode hex="032E"/>
  <outline>
    <contour>
      <point x="716.9021538461539" y="-126.8443076923077" type="qcurve"/>
      <point x="796.5126153846154" y="-186.41292307692308" type="line"/>
      <point x="761.872" y="-278.0953846153846"/>
      <point x="581.579076923077" y="-432.3286153846154"/>
      <point x="451.7470769230769" y="-432.3286153846154" type="qcurve" smooth="yes"/>
      <point x="336.20246153846153" y="-432.3286153846154"/>
      <point x="150.688" y="-290.6941538461539"/>
      <point x="107.82584615384616" y="-185.41292307692308" type="qcurve"/>
      <point x="193.34646153846154" y="-126.8443076923077" type="line"/>
      <point x="231.9870769230769" y="-188.59876923076925"/>
      <point x="364.5316923076923" y="-288.5507692307692"/>
      <point x="451.7470769230769" y="-288.5507692307692" type="qcurve" smooth="yes"/>
      <point x="545.651076923077" y="-288.5507692307692"/>
      <point x="678.8843076923077" y="-192.8203076923077"/>
    </contour>
  </outline>
</glyph>
<glyph name="macronbelowcomb" format="2">
  <advance width="903"/>
  <unicode hex="0331"/>
  <outline>
    <contour>
      <point x="185.7956923076923" y="-237.98153846153846" type="line"/>
      <point x="185.7956923076923" y="-105.33538461538463" type="line"/>
      <point x="717.6984615384615" y="-105.33538461538463" type="line"/>
      <point x="717.6984615384615" y="-237.98153846153846" type="line"/>
    </contour>
  </outline>
</glyph>
<glyph name="endash" format="2">
  <advance width="945"/>
  <unicode hex="2013"/>
  <outline>
    <contour>
      <point x="0.1556923076923077" y="541.0301538461539" type="line"/>
      <point x="0.0" y="684.4307692307692" type="line"/>
      <point x="944.5969230769231" y="684.4307692307692" type="line"/>
      <point x="944.7526153846154" y="541.0301538461539" type="line"/>
    </contour>
  </outline>
</glyph>
<glyph name="emdash" format="2">
  <advance width="1849"/>
  <unicode hex="2014"/>
  <outline>
    <contour>
      <point x="229.01723076923076" y="541.0301538461539" type="line"/>
      <point x="228.86153846153846" y="684.4307692307692" type="line"/>
      <point x="1614.5587692307693" y="684.4307692307692" type="line"/>
      <point x="1614.7144615384616" y="541.0301538461539" type="line"/>
    </contour>
  </outline>
</glyph>
<glyph name="horizontalbar" format="2">
  <advance width="591"/>
  <unicode hex="2015"/>
  <outline>
    <contour>
      <point x="18.443076923076923" y="643.1261538461539" type="line"/>
      <point x="18.443076923076923" y="784.5267692307692" type="line"/>
      <point x="550.2676923076923" y="784.5267692307692" type="line"/>
      <point x="550.2676923076923" y="643.1261538461539" type="line"/>
    </contour>
  </outline>
</glyph>
<glyph name="quoteleft" format="2">
  <advance width="367"/>
  <unicode hex="2018"/>
  <outline>
    <contour>
      <point x="117.91323076923074" y="1118.9415384615386" type="line"/>
      <point x="117.60184615384613" y="1225.9292307692308" type="line" smooth="yes"/>
      <point x="116.66769230769228" y="1317.3304615384616"/>
      <point x="180.72430769230772" y="1481.357538461539"/>
      <point x="252.3563076923077" y="1545.5163076923077" type="qcurve"/>
      <point x="305.75261538461535" y="1509.0129230769237" type="line"/>
      <point x="254.1963076923077" y="1451.1636923076928"/>
      <point x="205.6486153846154" y="1312.108923076923"/>
      <point x="206.58276923076923" y="1228.9292307692308" type="qcurve" smooth="yes"/>
      <point x="206.89415384615387" y="1119.097230769231" type="line"/>
    </contour>
  </outline>
</glyph>
<glyph name="quoteright" format="2">
  <advance width="367"/>
  <unicode hex="2019"/>
  <outline>
    <contour>
      <point x="247.14276923076935" y="1457.8443076923077" type="line"/>
      <point x="247.45415384615396" y="1350.761846153846" type="line" smooth="yes"/>
      <point x="248.3883076923078" y="1259.3606153846154"/>
      <point x="184.33169230769235" y="1095.3335384615384"/>
      <point x="112.71323076923076" y="1031.1747692307692" type="qcurve"/>
      <point x="59.303384615384616" y="1067.6781538461535" type="line"/>
      <point x="110.87323076923074" y="1125.5273846153848"/>
      <point x="159.39384615384608" y="1264.5821538461537"/>
      <point x="158.45969230769225" y="1347.7618461538461" type="qcurve" smooth="yes"/>
      <point x="158.14830769230764" y="1457.6886153846153" type="line"/>
    </contour>
  </outline>
</glyph>
<glyph name="quotesinglbase" format="2">
  <advance width="410"/>
  <unicode hex="201A"/>
  <outline>
    <contour>
      <point x="318.0" y="220.0" type="line"/>
      <point x="318.0" y="92.0" type="line" smooth="yes"/>
      <point x="318.0" y="2.0000000000000004"/>
      <point x="227.0" y="-202.0"/>
      <point x="145.0" y="-270.0" type="qcurve"/>
      <point x="39.0" y="-197.0" type="line"/>
      <point x="86.0" y="-131.0"/>
      <point x="134.0" y="7.999999999999999"/>
      <point x="134.0" y="89.0" type="qcurve" smooth="yes"/>
      <point x="134.0" y="220.0" type="line"/>
    </contour>
  </outline>
</glyph>
<glyph name="quotedblleft" format="2">
  <advance width="742"/>
  <unicode hex="201C"/>
  <outline>
    <contour>
      <point x="84.68246153846154" y="1094.0184615384617" type="line"/>
      <point x="84.37107692307693" y="1201.006153846154" type="line" smooth="yes"/>
      <point x="83.43692307692308" y="1292.4073846153847"/>
      <point x="164.9396923076923" y="1480.5267692307693"/>
      <point x="241.55630769230768" y="1546.3470769230769" type="qcurve"/>
      <point x="330.6756923076923" y="1484.0898461538463" type="line"/>
      <point x="285.7655384615385" y="1420.4252307692307"/>
      <point x="238.8793846153846" y="1287.1858461538461"/>
      <point x="239.81353846153846" y="1204.006153846154" type="qcurve" smooth="yes"/>
      <point x="240.12492307692307" y="1094.1741538461538" type="line"/>
    </contour>
    <contour>
      <point x="457.9747692307692" y="1094.0184615384617" type="line"/>
      <point x="457.6633846153846" y="1201.006153846154" type="line" smooth="yes"/>
      <point x="456.72923076923075" y="1292.4073846153847"/>
      <point x="538.232" y="1480.5267692307693"/>
      <point x="614.8486153846154" y="1546.3470769230769" type="qcurve"/>
      <point x="703.968" y="1484.0898461538463" type="line"/>
      <point x="659.0578461538462" y="1420.4252307692307"/>
      <point x="612.1716923076923" y="1287.1858461538461"/>
      <point x="613.1058461538462" y="1204.006153846154" type="qcurve" smooth="yes"/>
      <point x="613.4172307692307" y="1094.1741538461538" type="line"/>
    </contour>
  </outline>
</glyph>
<glyph name="quotedblright" format="2">
  <advance width="742"/>
  <unicode hex="201D"/>
  <outline>
    <contour>
      <point x="283.9033846153846" y="1457.8443076923077" type="line"/>
      <point x="284.2147692307692" y="1344.9464615384616" type="line" smooth="yes"/>
      <point x="285.14892307692304" y="1253.5452307692308"/>
      <point x="203.64615384615385" y="1065.4258461538461"/>
      <point x="127.87384615384616" y="999.6055384615385" type="qcurve"/>
      <point x="37.91015384615385" y="1061.8627692307693" type="line"/>
      <point x="83.66461538461539" y="1125.5273846153846"/>
      <point x="128.86215384615386" y="1258.7667692307691"/>
      <point x="127.928" y="1341.9464615384616" type="qcurve" smooth="yes"/>
      <point x="127.61661538461539" y="1457.6886153846153" type="line"/>
    </contour>
    <contour>
      <point x="657.1956923076923" y="1457.8443076923077" type="line"/>
      <point x="657.507076923077" y="1344.9464615384616" type="line" smooth="yes"/>
      <point x="658.4412307692307" y="1253.5452307692308"/>
      <point x="576.9384615384615" y="1065.4258461538461"/>
      <point x="501.1661538461539" y="999.6055384615385" type="qcurve"/>
      <point x="411.20246153846153" y="1061.8627692307693" type="line"/>
      <point x="456.9569230769231" y="1125.5273846153846"/>
      <point x="502.15446153846153" y="1258.7667692307691"/>
      <point x="501.2203076923077" y="1341.9464615384616" type="qcurve" smooth="yes"/>
      <point x="500.90892307692303" y="1457.6886153846153" type="line"/>
    </contour>
  </outline>
</glyph>
<glyph name="fraction" format="2">
  <advance width="305"/>
  <unicode hex="2044"/>
  <guideline x="0" y="901.0" angle="0" identifier="tcCoNUQTdD"/>
  <guideline x="0" y="555.0" angle="0" identifier="0lx51aIE0d"/>
  <outline>
    <contour>
      <point x="532.2701538461538" y="1425.0295384615386" type="line"/>
      <point x="-197.21784615384612" y="2.732307692307692" type="line"/>
      <point x="-234.96984615384613" y="23.535384615384622" type="line"/>
      <point x="490.3932307692307" y="1444.129846153846" type="line"/>
    </contour>
  </outline>
</glyph>
<glyph name="foursuperior" format="2">
  <advance width="670"/>
  <unicode hex="2074"/>
  <outline>
    <contour>
      <point x="72.24738461538459" y="881.9021538461539" type="line"/>
      <point x="66.36430769230769" y="951.4332307692306" type="line"/>
      <point x="411.73846153846154" y="1489.691076923077" type="line"/>
      <point x="491.0830769230769" y="1489.691076923077" type="line"/>
      <point x="359.4559999999999" y="1287.822153846154" type="line"/>
      <point x="132.23384615384612" y="941.1255384615384" type="line"/>
      <point x="621.4092307692307" y="941.1255384615384" type="line"/>
      <point x="621.4092307692307" y="881.9021538461539" type="line"/>
    </contour>
    <contour>
      <point x="505.8849230769231" y="1489.7723076923075" type="line"/>
      <point x="505.8849230769231" y="689.8381538461539" type="line"/>
      <point x="440.85969230769234" y="689.8381538461539" type="line"/>
      <point x="440.85969230769234" y="1489.7723076923075" type="line"/>
    </contour>
  </outline>
</glyph>
<glyph name="acutecomb.case" format="2">
  <advance width="903"/>
  <outline>
    <contour>
      <point x="368.0584615384616" y="1592.8726153846148" type="line"/>
      <point x="597.0584615384615" y="1946.7070769230775" type="line"/>
      <point x="704.5199999999999" y="1918.6350769230773" type="line"/>
      <point x="417.56738461538464" y="1570.2621538461535" type="line"/>
    </contour>
  </outline>
</glyph>
<glyph name="acutecombstack.case" format="2">
  <advance width="903"/>
  <outline>
    <contour>
      <point x="301.65353846153846" y="1636.039384615385" type="line"/>
      <point x="578.1858461538462" y="1842.889230769231" type="line"/>
      <point x="642.9981538461539" y="1753.0233846153847" type="line"/>
      <point x="337.448" y="1591.9218461538462" type="line"/>
    </contour>
  </outline>
</glyph>
<glyph name="brevecomb.case" format="2">
  <advance width="903"/>
  <outline>
    <contour>
      <point x="715.2406153846152" y="1883.0855384615386" type="qcurve"/>
      <point x="779.8972307692308" y="1843.455384615385" type="line"/>
      <point x="736.9489230769232" y="1743.4652307692309"/>
      <point x="573.2713846153844" y="1614.1550769230769"/>
      <point x="451.7470769230769" y="1614.1550769230769" type="qcurve" smooth="yes"/>
      <point x="344.51015384615386" y="1614.1550769230769"/>
      <point x="167.30338461538463" y="1739.174153846154"/>
      <point x="124.44123076923083" y="1844.455384615385" type="qcurve"/>
      <point x="186.7003076923077" y="1891.3932307692307" type="line"/>
      <point x="228.66399999999996" y="1813.0233846153847"/>
      <point x="364.5316923076923" y="1703.102153846154"/>
      <point x="450.9163076923077" y="1703.102153846154" type="qcurve" smooth="yes"/>
      <point x="545.651076923077" y="1703.102153846154"/>
      <point x="668.0843076923074" y="1791.3556923076924"/>
    </contour>
  </outline>
</glyph>
<glyph name="brevecombstack.case" format="2">
  <advance width="903"/>
  <outline>
    <contour>
      <point x="714.8480000000001" y="1857.2689230769233" type="qcurve"/>
      <point x="779.6399999999998" y="1817.692923076923" type="line"/>
      <point x="736.7187692307692" y="1717.8652307692305"/>
      <point x="573.1766153846155" y="1588.825846153846"/>
      <point x="451.7470769230769" y="1588.825846153846" type="qcurve" smooth="yes"/>
      <point x="344.5913846153847" y="1588.825846153846"/>
      <point x="167.53353846153846" y="1713.6012307692308"/>
      <point x="124.69846153846152" y="1818.692923076923" type="qcurve"/>
      <point x="187.09292307692309" y="1865.576615384616" type="line"/>
      <point x="229.0024615384615" y="1787.3286153846157"/>
      <point x="364.6670769230769" y="1677.637538461538"/>
      <point x="450.9163076923077" y="1677.637538461538" type="qcurve" smooth="yes"/>
      <point x="545.5156923076926" y="1677.637538461538"/>
      <point x="667.7458461538461" y="1765.6744615384619"/>
    </contour>
  </outline>
</glyph>
